<?xml version="1.0" standalone="no"?>
<!DOCTYPE svg PUBLIC "-//W3C//DTD SVG 1.1//EN" "http://www.w3.org/Graphics/SVG/1.1/DTD/svg11.dtd" >
<svg xmlns="http://www.w3.org/2000/svg" xmlns:xlink="http://www.w3.org/1999/xlink" version="1.1">
<metadata>
Created by FontForge 20170731 at Wed May 16 07:59:58 2018
 By Aleksey,,,
Copyright (c) 2008 by Jos Buivenga. All rights reserved.
</metadata>
<defs>
<font id="MuseoSans-100" horiz-adv-x="376" >
  <font-face 
    font-family="Museo Sans 100"
    font-weight="100"
    font-stretch="normal"
    units-per-em="1000"
    panose-1="2 0 0 0 0 0 0 0 0 0"
    ascent="750"
    descent="-250"
    x-height="500"
    cap-height="700"
    bbox="-115 -210 1088 874"
    underline-thickness="50"
    underline-position="-150"
    unicode-range="U+000D-FB04"
  />
<missing-glyph horiz-adv-x="510" 
d="M5 700h500v-700h-500v700zM425 650h-340l170 -255zM455 95v510l-170 -255zM225 350l-170 255v-510zM425 50l-170 255l-170 -255h340z" />
    <glyph glyph-name="f_f" unicode="ff" horiz-adv-x="610" 
d="M414 462h-263v-462h-42v462h-63v38h63v20q0 62 17.5 98.5t42.5 56t52 25t46 5.5q10 0 19 -1q4 0 7 -1v-39q-3 1 -6 1q-9 1 -17 1q-15 0 -35.5 -4.5t-39 -19.5t-31.5 -44t-13 -77v-21h263v20q0 62 17.5 98.5t42.5 56t52 25t46 5.5q10 0 19 -1q4 0 7 -1v-39q-3 1 -6 1
q-9 1 -17 1q-15 0 -35.5 -4.5t-39 -19.5t-31.5 -44t-13 -77v-21h137v-38h-137v-462h-42v462z" />
    <glyph glyph-name="fi" unicode="fi" horiz-adv-x="523" 
d="M393 462h-242v-462h-42v462h-63v38h63v20q0 62 17.5 98.5t42.5 56t52 25t46 5.5q10 0 19 -1q4 0 7 -1v-39q-3 1 -6 1q-9 1 -17 1q-15 0 -35.5 -4.5t-39 -19.5t-31.5 -44t-13 -77v-21h284v-500h-42v462zM389 700h50v-73h-50v73z" />
    <glyph glyph-name="fl" unicode="fl" horiz-adv-x="535" 
d="M109 459h-63v38h63v23q0 62 17.5 98.5t42.5 56t52 25t46 5.5q10 0 19 -1q4 0 7 -1v-39q-3 1 -6 1q-9 1 -17 1q-15 0 -35.5 -4.5t-39 -19.5t-31.5 -44t-13 -77v-24h137v-38h-137v-459h-42v459zM388 700h42v-586q0 -26 6 -41.5t15 -23.5t19 -10.5t19 -2.5q5 0 11 1h4v-39
q-3 -1 -6 -1q-7 -1 -12 -1q-11 0 -27.5 3t-32.5 14t-27 32t-11 56v599z" />
    <glyph glyph-name="f_f_i" unicode="ffi" horiz-adv-x="828" 
d="M698 462h-242v-462h-42v462h-263v-462h-42v462h-63v38h63v20q0 62 17.5 98.5t42.5 56t52 25t46 5.5q10 0 19 -1q4 0 7 -1v-39q-3 1 -6 1q-9 1 -17 1q-15 0 -35.5 -4.5t-39 -19.5t-31.5 -44t-13 -77v-21h263v20q0 62 17.5 98.5t42.5 56t52 25t46 5.5q10 0 19 -1q4 0 7 -1
v-39q-3 1 -6 1q-9 1 -17 1q-15 0 -35.5 -4.5t-39 -19.5t-31.5 -44t-13 -77v-21h284v-500h-42v462zM694 700h50v-73h-50v73z" />
    <glyph glyph-name="f_f_l" unicode="ffl" horiz-adv-x="840" 
d="M414 462h-263v-462h-42v462h-63v38h63v20q0 62 17.5 98.5t42.5 56t52 25t46 5.5q10 0 19 -1q4 0 7 -1v-39q-3 1 -6 1q-9 1 -17 1q-15 0 -35.5 -4.5t-39 -19.5t-31.5 -44t-13 -77v-21h263v20q0 62 17.5 98.5t42.5 56t52 25t46 5.5q10 0 19 -1q4 0 7 -1v-39q-3 1 -6 1
q-9 1 -17 1q-15 0 -35.5 -4.5t-39 -19.5t-31.5 -44t-13 -77v-21h137v-38h-137v-462h-42v462zM693 700h42v-586q0 -26 6 -41.5t15 -23.5t19 -10.5t19 -2.5q5 0 11 1h4v-39q-3 -1 -6 -1q-7 -1 -12 -1q-11 0 -27.5 3t-32.5 14t-27 32t-11 56v599z" />
    <glyph glyph-name="f_j" unicode="fj" horiz-adv-x="523" 
d="M109 462h-63v38h63v20q0 62 17.5 98.5t42.5 56t52 25t46 5.5q10 0 19 -1q4 0 7 -1v-39q-3 1 -6 1q-9 1 -17 1q-15 0 -35.5 -4.5t-39 -19.5t-31.5 -44t-13 -77v-21h284v-520q0 -62 -17.5 -99t-42.5 -56t-52.5 -24.5t-46.5 -5.5q-9 0 -18 1q-4 0 -7 1v39q3 -1 6 -1
q8 -1 16 -1q15 0 35.5 4.5t39.5 19.5t32 44t13 77v483h-242v-462h-42v462zM389 700h50v-73h-50v73z" />
    <glyph glyph-name=".notdef" horiz-adv-x="510" 
d="M5 700h500v-700h-500v700zM425 650h-340l170 -255zM455 95v510l-170 -255zM225 350l-170 255v-510zM425 50l-170 255l-170 -255h340z" />
    <glyph glyph-name=".null" horiz-adv-x="0" 
 />
    <glyph glyph-name=".null" horiz-adv-x="0" 
 />
    <glyph glyph-name="nonmarkingreturn" unicode="&#xd;" horiz-adv-x="250" 
 />
    <glyph glyph-name="space" unicode=" " horiz-adv-x="277" 
 />
    <glyph glyph-name="exclam" unicode="!" horiz-adv-x="295" 
d="M126 700h43v-525h-43v525zM119 61h59v-61h-59v61z" />
    <glyph glyph-name="quotedbl" unicode="&#x22;" horiz-adv-x="291" 
d="M176 709h43v-151h-43v151zM72 709h43v-151h-43v151z" />
    <glyph glyph-name="numbersign" unicode="#" horiz-adv-x="733" 
d="M204 199h-152l7 40h152l39 221h-152l7 40h152l35 200h43l-35 -200h189l35 200h43l-35 -200h149l-7 -40h-149l-39 -221h149l-7 -40h-149l-35 -199h-43l35 199h-189l-35 -199h-43zM443 239l39 221h-189l-39 -221h189z" />
    <glyph glyph-name="dollar" unicode="$" horiz-adv-x="548" 
d="M95 108q22 -22 50 -39q26 -16 59.5 -27.5t77.5 -11.5q33 0 61.5 10t49.5 28t33 43.5t12 56.5q0 49 -26.5 79.5t-67 53t-87 41.5t-87 43t-67 58.5t-26.5 87.5q0 32 13 62.5t36.5 55t57 41t75.5 20.5v95h43v-94q40 -2 70 -12t51 -21q24 -14 42 -31l-24 -37q-18 17 -42 30
q-21 12 -48.5 21t-62.5 9q-39 0 -70 -12t-52 -31.5t-32.5 -44t-11.5 -50.5q0 -45 26.5 -73.5t67 -49.5t87 -39.5t87 -44t67 -62t26.5 -93.5q0 -36 -12.5 -67.5t-36 -55.5t-57 -39.5t-75.5 -18.5v-93h-43v93q-47 3 -83 17t-60 29q-29 18 -50 40z" />
    <glyph glyph-name="percent" unicode="%" horiz-adv-x="702" 
d="M193 451q-27 0 -50.5 10t-41.5 28t-28 41.5t-10 50.5t10 51t28 41.5t41.5 28t50.5 10.5t51 -10.5t41.5 -28t28 -41.5t10.5 -51t-10.5 -50.5t-28 -41.5t-41.5 -28t-51 -10zM592 700h52l-531 -700h-52zM193 491q38 0 63 26t25 64t-25 64.5t-63 26.5t-62.5 -26.5
t-24.5 -64.5t24.5 -64t62.5 -26zM379 118q0 27 10 51t28 41.5t41.5 28t50.5 10.5t51 -10.5t41.5 -28t28 -41.5t10.5 -51t-10.5 -50.5t-28 -41.5t-41.5 -28t-51 -10t-50.5 10t-41.5 28t-28 41.5t-10 50.5zM422 118q0 -38 24.5 -64t62.5 -26t63 26t25 64t-25 64.5t-63 26.5
t-62.5 -26.5t-24.5 -64.5z" />
    <glyph glyph-name="ampersand" unicode="&#x26;" horiz-adv-x="666" 
d="M65 191q0 31 8.5 60.5t25 55t41.5 44.5t57 28v2q-28 10 -50 31q-21 18 -36 48t-15 78q0 38 13.5 69.5t39.5 55t64 36.5t87 13q11 0 24 -1.5t24 -3.5q13 -2 26 -5l-14 -38l-22 4q-10 2 -20.5 3t-20.5 1q-33 0 -61.5 -9t-49.5 -26.5t-33 -42t-12 -55.5q0 -19 5.5 -43
t23 -46t51.5 -37t91 -15h163v102h43v-102h97v-40h-97v-112q0 -67 -16 -115.5t-45.5 -80t-70.5 -47t-91 -15.5q-51 0 -93 15.5t-72.5 42.5t-47.5 64.5t-17 80.5zM110 193q0 -34 12.5 -63.5t36 -51.5t58 -35t78.5 -13q40 0 73 11.5t57 37.5t37 67t13 100v112h-161
q-105 0 -154.5 -46t-49.5 -119z" />
    <glyph glyph-name="quotesingle" unicode="'" horiz-adv-x="187" 
d="M72 709h43v-151h-43v151z" />
    <glyph glyph-name="parenleft" unicode="(" horiz-adv-x="277" 
d="M193 -95q-51 90 -80.5 201t-29.5 229q0 109 28.5 205.5t81.5 184.5h44q-54 -91 -83.5 -188t-29.5 -203q0 -112 28 -220.5t85 -208.5h-44z" />
    <glyph glyph-name="parenright" unicode=")" horiz-adv-x="277" 
d="M40 -95q57 100 85 208.5t28 220.5q0 106 -29.5 203t-83.5 188h44q53 -88 81.5 -184.5t28.5 -205.5q0 -118 -29.5 -229t-80.5 -201h-44z" />
    <glyph glyph-name="asterisk" unicode="*" horiz-adv-x="470" 
d="M105 369l99 130v2l-156 47l13 42l155 -54l-5 164h47l-5 -164l156 53l14 -41l-157 -47v-2l98 -130l-35 -26l-93 134h-2l-93 -133z" />
    <glyph glyph-name="plus" unicode="+" horiz-adv-x="686" 
d="M85 303h237v263h43v-263h236v-40h-236v-263h-43v263h-237v40z" />
    <glyph glyph-name="comma" unicode="," horiz-adv-x="241" 
d="M98 61h56l-67 -155h-42z" />
    <glyph glyph-name="hyphen" unicode="-" horiz-adv-x="356" 
d="M40 303h276v-40h-276v40z" />
    <glyph glyph-name="period" unicode="." horiz-adv-x="237" 
d="M88 63h61v-63h-61v63z" />
    <glyph glyph-name="slash" unicode="/" horiz-adv-x="384" 
d="M300 740h44l-253 -782h-44z" />
    <glyph glyph-name="zero" unicode="0" horiz-adv-x="622" 
d="M311 -12q-67 0 -112 28t-72.5 77t-39.5 115t-12 142t12 142t39.5 115t72.5 77t112 28t112 -28t72.5 -77t39.5 -115t12 -142t-12 -142t-39.5 -115t-72.5 -77t-112 -28zM311 30q56 0 93 24.5t58.5 67.5t30.5 101.5t9 126.5t-9 126t-30.5 101.5t-58.5 68t-93 24.5t-93 -24.5
t-58.5 -68t-30.5 -101.5t-9 -126t9 -126.5t30.5 -101.5t58.5 -67.5t93 -24.5z" />
    <glyph glyph-name="one" unicode="1" horiz-adv-x="442" 
d="M56 40h159v570v13t1 11v11h-2q-2 -4 -7 -10t-12 -14t-18 -19l-83 -83l-30 29l151 152h43v-660h155v-40h-357v40z" />
    <glyph glyph-name="two" unicode="2" horiz-adv-x="557" 
d="M66 0q-3 20 -3 37q0 61 27.5 105.5t69 80.5t90 67t90 64.5t69 73t27.5 92.5q0 32 -11.5 59t-32.5 47.5t-51 32t-68 11.5q-42 0 -73.5 -15.5t-53.5 -34.5q-25 -22 -43 -50l-32 22q20 34 49 60q27 24 64 42t90 18q52 0 90.5 -16t64.5 -42.5t39 -61t13 -72.5
q0 -60 -27.5 -104t-69 -80t-89.5 -66.5t-89.5 -64t-69 -73t-27.5 -92.5h383v-40h-426z" />
    <glyph glyph-name="three" unicode="3" horiz-adv-x="556" 
d="M81 117q22 -24 51 -43q26 -18 60 -31t77 -13q33 0 64.5 12.5t56 35t39.5 54t15 70.5q0 41 -16 72t-42 52t-59.5 32t-69.5 11h-48l-12 30l196 229q6 7 11.5 12.5t9.5 10.5q5 5 10 9v2q-6 -1 -14 -1q-7 0 -17 -0.5t-23 -0.5h-287v40h401v-30l-226 -261q32 0 72 -9t75 -32.5
t59.5 -63.5t24.5 -102q0 -45 -17.5 -84t-48 -68t-71 -45.5t-85.5 -16.5q-50 0 -90 15t-69 34q-33 21 -59 48z" />
    <glyph glyph-name="four" unicode="4" horiz-adv-x="588" 
d="M36 230l363 470h40v-460h104v-40h-104v-200h-43v200h-360v30zM396 240v328q0 11 0.5 22t1.5 20q0 11 1 21h-2q-5 -7 -11 -15q-5 -8 -11 -16t-13 -17l-266 -341v-2h300z" />
    <glyph glyph-name="five" unicode="5" horiz-adv-x="554" 
d="M94 116q15 -24 38 -43q21 -18 51 -30.5t73 -12.5q41 0 76.5 14t61.5 38.5t41 58t15 72.5q0 40 -15 74t-41 58.5t-61.5 38.5t-76.5 14q-30 0 -55 -6.5t-43 -14.5q-21 -9 -38 -21l-32 11l40 333h325v-40h-287l-25 -209q-1 -10 -2.5 -18t-2.5 -14t-2 -11h2q15 9 33 16
q17 7 38.5 11.5t48.5 4.5q50 0 94 -17.5t76 -48.5t50.5 -72.5t18.5 -88.5t-19 -88t-51 -71.5t-75.5 -48t-93.5 -17.5q-51 0 -88 15.5t-61 35.5q-29 22 -48 50z" />
    <glyph glyph-name="six" unicode="6" horiz-adv-x="592" 
d="M316 -12q-58 0 -103.5 26t-77 70.5t-48 104t-16.5 126.5q0 64 16.5 134t53 128.5t93.5 96.5t138 38q27 0 49.5 -4.5t38.5 -9.5q19 -6 34 -14l-21 -39q-13 7 -29 13q-15 5 -33 8.5t-41 3.5q-61 0 -107 -28.5t-77.5 -74.5t-48.5 -103.5t-21 -115.5h2q29 45 82.5 70.5
t115.5 25.5q46 0 85.5 -15.5t68 -45t45 -70.5t16.5 -92q0 -57 -17.5 -100.5t-47 -73t-68.5 -44.5t-82 -15zM315 30q41 0 72.5 14t53.5 39.5t33.5 60.5t11.5 77t-12.5 75.5t-35.5 57t-54.5 36t-69.5 12.5q-40 0 -75.5 -13t-62 -33t-41.5 -44.5t-15 -48.5q0 -36 13.5 -77
t39 -75.5t61.5 -57.5t81 -23z" />
    <glyph glyph-name="seven" unicode="7" horiz-adv-x="507" 
d="M397 595q6 13 12.5 25t12.5 21q6 10 12 19v2q-6 -1 -14 -1t-18 -0.5t-23 -0.5h-340v40h443v-30l-332 -670h-45z" />
    <glyph glyph-name="eight" unicode="8" horiz-adv-x="601" 
d="M69 200q0 48 19.5 85t43.5 62q27 29 62 51q-40 24 -65.5 58t-25.5 85q0 33 13 64t39 54.5t64.5 38t89.5 14.5q49 0 87.5 -13t65.5 -36.5t41 -56t14 -71.5q0 -40 -13.5 -75.5t-30.5 -61.5t-32 -42t-18 -19q45 -25 74 -60t29 -90q0 -41 -17.5 -77.5t-48 -63.5t-71.5 -42.5
t-88 -15.5q-43 0 -85 13.5t-74.5 40.5t-52.5 66.5t-20 91.5zM481 186q0 39 -23 66t-59 48t-79.5 38t-84.5 37q-5 -3 -24.5 -15.5t-41 -34.5t-38.5 -53.5t-17 -71.5t16 -71.5t42.5 -53.5t60 -33.5t68.5 -11.5q33 0 65.5 11.5t58 32t41 49.5t15.5 63zM148 541
q0 -39 21.5 -65.5t55.5 -46.5t76 -36.5t82 -35.5q5 4 19 19t30 38.5t28 54t12 66.5q0 31 -12 56t-34 42.5t-51.5 27t-65.5 9.5q-38 0 -68 -10t-50.5 -27.5t-31.5 -41t-11 -50.5z" />
    <glyph glyph-name="nine" unicode="9" horiz-adv-x="592" 
d="M220 -12q-27 0 -49.5 4.5t-38.5 9.5q-19 6 -34 14l21 39q13 -7 29 -12q15 -6 33 -9.5t41 -3.5q61 0 107 28.5t77.5 74.5t48.5 103.5t21 115.5h-2q-29 -45 -82.5 -70.5t-115.5 -25.5q-46 0 -85.5 15.5t-68 45t-45 70.5t-16.5 92q0 57 17.5 100.5t47 73t68.5 44.5t82 15
q58 0 103.5 -26t77 -70.5t48 -104t16.5 -126.5q0 -64 -16.5 -134t-53 -128.5t-93.5 -96.5t-138 -38zM278 298q41 0 76 13t61.5 33t41.5 44.5t15 48.5q0 36 -13.5 77t-39 75.5t-61.5 57.5t-81 23q-40 0 -72 -14t-54 -39.5t-33.5 -60.5t-11.5 -77t12.5 -75.5t35.5 -57
t54.5 -36t69.5 -12.5z" />
    <glyph glyph-name="colon" unicode=":" horiz-adv-x="293" 
d="M118 500h57v-59h-57v59zM118 59h57v-59h-57v59z" />
    <glyph glyph-name="semicolon" unicode=";" horiz-adv-x="293" 
d="M121 500h57v-59h-57v59zM121 61h52l-56 -155h-41z" />
    <glyph glyph-name="less" unicode="&#x3c;" horiz-adv-x="563" 
d="M54 301l439 197v-48l-377 -166v-2l377 -166v-48l-439 197v36z" />
    <glyph glyph-name="equal" unicode="=" horiz-adv-x="704" 
d="M124 383h456v-40h-456v40zM124 223h456v-40h-456v40z" />
    <glyph glyph-name="greater" unicode="&#x3e;" horiz-adv-x="563" 
d="M70 116l377 166v2l-377 166v48l439 -197v-36l-439 -197v48z" />
    <glyph glyph-name="question" unicode="?" horiz-adv-x="469" 
d="M162 219q0 41 13.5 70.5t33 53.5t43 44t43 42.5t33 49t13.5 62.5q0 27 -10.5 50.5t-30 41t-46 27.5t-59.5 10q-28 0 -51 -6.5t-40 -14.5q-20 -9 -36 -21l-23 34q18 14 41 25q21 10 47.5 17.5t60.5 7.5q43 0 78.5 -13t60.5 -36t39 -54.5t14 -68.5q0 -41 -13.5 -71
t-33.5 -54t-43.5 -44t-43.5 -42t-33.5 -48t-13.5 -62v-44h-43v44zM154 61h59v-61h-59v61z" />
    <glyph glyph-name="at" unicode="@" horiz-adv-x="788" 
d="M70 243q0 76 27.5 142.5t74.5 116t110 78t134 28.5q65 0 109 -15t71.5 -40t39.5 -57t12 -65v-344h70v-40h-265q-40 0 -75 15.5t-61.5 41.5t-41.5 61.5t-15 75.5t15 75.5t41.5 62.5t61.5 42.5t75 15.5h150q-1 25 -11 48.5t-31 42t-55 29.5t-84 11q-65 0 -121 -25.5
t-97.5 -69.5t-65 -103t-23.5 -127t23.5 -127t65 -102.5t97.5 -68.5t121 -25v-42q-73 0 -137 28.5t-112 78t-75.5 116t-27.5 142.5zM305 241q0 -32 12 -60t32.5 -49t48.5 -33t60 -12h145v310h-143q-33 0 -61 -12.5t-49 -33.5t-33 -49.5t-12 -60.5z" />
    <glyph glyph-name="A" unicode="A" horiz-adv-x="606" 
d="M451 242h-297l-90 -242h-46l262 700h46l262 -700h-46zM302 650q-4 -16 -9 -31q-4 -14 -8.5 -28t-8.5 -25l-107 -284h267l-106 284q-4 11 -8.5 25.5t-8.5 27.5q-5 15 -9 31h-2z" />
    <glyph glyph-name="B" unicode="B" horiz-adv-x="619" 
d="M108 700h235q38 0 70.5 -12.5t56 -35t37 -55t13.5 -72.5q0 -57 -25 -95t-66 -58v-2q52 -14 85.5 -61.5t33.5 -115.5q0 -44 -14.5 -79.5t-41 -61t-62 -39t-77.5 -13.5h-245v700zM342 388q59 0 96 37t37 100q0 62 -36 98.5t-98 36.5h-190v-272h191zM349 40q71 0 112.5 40.5
t41.5 112.5q0 36 -11.5 64.5t-32 48.5t-49 31t-62.5 11h-197v-308h198z" />
    <glyph glyph-name="C" unicode="C" horiz-adv-x="734" 
d="M61 355q0 76 26.5 141.5t73 113.5t110 75t137.5 27q63 0 109.5 -13.5t77.5 -30.5q37 -19 63 -44l-26 -32q-25 22 -59 40q-31 16 -71 27.5t-93 11.5q-64 0 -119.5 -24t-96.5 -66t-64 -100t-23 -126t23 -127.5t64 -103.5t97 -69.5t122 -25.5q57 0 100.5 15t74.5 33
q35 20 62 47l27 -30q-29 -30 -68 -53q-36 -22 -84 -37.5t-112 -15.5q-76 0 -140.5 29t-111.5 78.5t-73 116.5t-26 143z" />
    <glyph glyph-name="D" unicode="D" horiz-adv-x="741" 
d="M108 700h220q78 0 142.5 -23.5t110 -68.5t71 -110t25.5 -148q0 -84 -25.5 -149t-71 -109.5t-110 -68t-142.5 -23.5h-220v700zM321 40q70 0 127 20t98 59.5t63.5 97.5t22.5 133t-22.5 133t-63.5 97t-98 59.5t-127 20.5h-170v-620h170z" />
    <glyph glyph-name="E" unicode="E" horiz-adv-x="571" 
d="M108 700h383v-40h-340v-287h279v-40h-279v-293h359v-40h-402v700z" />
    <glyph glyph-name="F" unicode="F" horiz-adv-x="508" 
d="M108 700h353v-40h-310v-292h268v-40h-268v-328h-43v700z" />
    <glyph glyph-name="G" unicode="G" horiz-adv-x="757" 
d="M61 350q0 76 26.5 142t73.5 115t111 77t138 28q60 0 105 -12.5t76 -26.5q37 -18 63 -40l-26 -33q-26 20 -59 36q-30 14 -69 24.5t-90 10.5q-66 0 -121.5 -24.5t-96 -68t-63.5 -102t-23 -126.5t22 -127t62 -102t94.5 -67.5t119.5 -24.5q57 0 101 18t75 40q37 25 64 57v135
h-125v40h168v-319h-43v61q0 9 1 21v9h-2q-26 -29 -61 -51q-33 -22 -76.5 -37t-101.5 -15q-73 0 -136 28t-109 77t-72 115t-26 142z" />
    <glyph glyph-name="H" unicode="H" horiz-adv-x="746" 
d="M108 700h43v-329h444v329h43v-700h-43v331h-444v-331h-43v700z" />
    <glyph glyph-name="I" unicode="I" horiz-adv-x="259" 
d="M108 700h43v-700h-43v700z" />
    <glyph glyph-name="J" unicode="J" horiz-adv-x="513" 
d="M39 213h43v-23q0 -35 7.5 -60.5t20.5 -44.5q21 -30 52.5 -43t63.5 -13q26 0 51.5 8t46 27t33.5 50t13 76v470h-167v40h210v-509q0 -56 -16.5 -95t-43 -63t-60 -34.5t-67.5 -10.5t-67.5 10.5t-60 34.5t-43 63t-16.5 95v22z" />
    <glyph glyph-name="K" unicode="K" horiz-adv-x="580" 
d="M108 700h43v-312h130l200 312h52l-215 -330v-2l229 -368h-52l-214 348h-130v-348h-43v700z" />
    <glyph glyph-name="L" unicode="L" horiz-adv-x="509" 
d="M108 700h43v-660h334v-40h-377v700z" />
    <glyph glyph-name="M" unicode="M" horiz-adv-x="850" 
d="M144 700h42l204 -440q6 -13 12 -27t11 -25q6 -14 11 -27h2q5 13 11 27q5 12 11 25.5t12 26.5l204 440h42l56 -700h-43l-43 534q-1 13 -1.5 29t-1.5 30v34h-2l-12 -34q-6 -15 -12 -30.5t-12 -28.5l-188 -399h-44l-187 399q-6 12 -12.5 28.5t-11.5 31.5q-7 17 -13 35h-2
v-35q-1 -16 -1.5 -31.5t-1.5 -28.5l-43 -534h-43z" />
    <glyph glyph-name="N" unicode="N" horiz-adv-x="752" 
d="M108 700h40l399 -549q9 -12 19 -27t18 -29l20 -32h2q-1 15 -2 31q-2 14 -2.5 29t-0.5 28v549h43v-700h-40l-399 549q-9 12 -19 27t-18 29l-20 32h-2q1 -15 3 -31q1 -14 1.5 -29t0.5 -28v-549h-43v700z" />
    <glyph glyph-name="O" unicode="O" horiz-adv-x="826" 
d="M59 355q0 75 28 140.5t76 113.5t112.5 75.5t137.5 27.5t137.5 -27.5t112.5 -75.5t76 -113.5t28 -140.5q0 -77 -28 -144t-76 -116.5t-112.5 -78t-137.5 -28.5t-137.5 28.5t-112.5 78t-76 116.5t-28 144zM104 355q0 -69 24 -128.5t66 -103.5t98.5 -69t120.5 -25t120.5 25
t98.5 69t66 103.5t24 128.5q0 67 -24 125t-66 100.5t-98.5 66.5t-120.5 24t-120.5 -24t-98.5 -66.5t-66 -100.5t-24 -125z" />
    <glyph glyph-name="P" unicode="P" horiz-adv-x="592" 
d="M108 700h230q46 0 85 -14t67.5 -40.5t44.5 -64t16 -85.5t-16 -86t-44.5 -64.5t-67.5 -41t-85 -14.5h-187v-290h-43v700zM336 330q77 0 123.5 43.5t46.5 122.5t-46.5 121.5t-123.5 42.5h-185v-330h185z" />
    <glyph glyph-name="Q" unicode="Q" horiz-adv-x="839" 
d="M60 354q0 76 27.5 141.5t75.5 113.5t112 75.5t137 27.5q74 0 139 -27.5t113 -75.5t76 -113.5t28 -141.5q0 -72 -24.5 -136.5t-67.5 -112.5l90 -93l-28 -27l-89 92q-48 -43 -108 -66t-129 -23q-73 0 -137 28.5t-112 78t-75.5 116.5t-27.5 143zM105 354q0 -68 23.5 -127.5
t65 -103.5t97.5 -69t121 -25q55 0 110.5 20t97.5 58l-90 93l28 27l89 -92q35 43 55.5 99.5t20.5 119.5q0 68 -24 126t-65.5 100.5t-98.5 66.5t-123 24q-65 0 -121 -24t-97.5 -66.5t-65 -100.5t-23.5 -126z" />
    <glyph glyph-name="R" unicode="R" horiz-adv-x="621" 
d="M108 700h205q49 0 77 -5t49 -16q44 -22 70.5 -65t26.5 -103q0 -75 -39 -127t-101 -66v-2q2 -2 5 -6q2 -3 5 -8t6 -11l157 -291h-51l-166 310h-201v-310h-43v700zM341 350q69 0 109.5 44.5t40.5 116.5q0 47 -22 82.5t-60 52.5q-15 7 -35.5 10.5t-62.5 3.5h-160v-310h190z
" />
    <glyph glyph-name="S" unicode="S" horiz-adv-x="530" 
d="M85 108q22 -22 50 -39q26 -16 59.5 -27.5t77.5 -11.5q33 0 61.5 10t49.5 28t33 43.5t12 56.5q0 50 -26.5 81t-66.5 53t-86 40t-86 42t-66.5 58t-26.5 89q0 35 15 67.5t42.5 58t66 40.5t86.5 15q43 0 76 -10t56 -22q26 -15 46 -33l-24 -37q-18 17 -42 30q-21 12 -48.5 21
t-62.5 9q-39 0 -70 -12t-52 -31.5t-32.5 -44t-11.5 -50.5q0 -46 26.5 -74.5t66.5 -49.5t86 -38.5t86 -42.5t66.5 -62t26.5 -95q0 -38 -14 -71t-40.5 -58t-64 -39t-84.5 -14q-52 0 -91.5 13.5t-67.5 30.5q-32 19 -55 43z" />
    <glyph glyph-name="T" unicode="T" horiz-adv-x="581" 
d="M269 660h-261v40h565v-40h-261v-660h-43v660z" />
    <glyph glyph-name="U" unicode="U" horiz-adv-x="719" 
d="M98 700h43v-458q0 -49 15.5 -88.5t44 -67.5t69 -42.5t89.5 -14.5q50 0 90 15t69 42.5t44.5 67.5t15.5 90v456h43v-460q0 -58 -19 -104.5t-53.5 -79.5t-82.5 -50.5t-106 -17.5t-106 17.5t-82.5 50.5t-54 79.5t-19.5 104.5v460z" />
    <glyph glyph-name="V" unicode="V" horiz-adv-x="605" 
d="M17 700h46l211 -566q5 -12 9.5 -27t8.5 -27q5 -15 9 -30h2q4 15 9 30q4 13 8.5 27.5t9.5 26.5l212 566h46l-262 -700h-47z" />
    <glyph glyph-name="W" unicode="W" horiz-adv-x="919" 
d="M456 639q-4 -19 -9 -39q-4 -18 -8.5 -36.5t-9.5 -35.5l-148 -528h-54l-184 700h45l148 -570q3 -13 6.5 -26t5.5 -24q3 -13 5 -25h2l2 7t4.5 17.5t5.5 24t7 26.5l160 570h48l160 -570q4 -13 7 -26.5t5.5 -24t4.5 -17.5l2 -7h2q2 12 5 25q3 11 6 24l6 26l153 570h45
l-189 -700h-54l-148 528q-5 17 -10 36.5t-8 35.5q-5 20 -9 39h-2h-2z" />
    <glyph glyph-name="X" unicode="X" horiz-adv-x="573" 
d="M256 370l-201 330h52l134 -223q8 -13 16 -26.5t15 -25.5q7 -13 15 -26h2q6 13 14 26q6 13 13.5 26t15.5 26l135 223h52l-203 -330l227 -370h-51l-162 266l-45 75h-2q-6 -12 -13 -25q-6 -12 -13.5 -25t-15.5 -26l-160 -265h-51z" />
    <glyph glyph-name="Y" unicode="Y" horiz-adv-x="556" 
d="M257 304l-238 396h49l166 -276q8 -13 15.5 -27t13.5 -25q7 -14 14 -27h2q6 13 14 27q6 12 13.5 25.5t15.5 26.5l166 276h49l-237 -396v-304h-43v304z" />
    <glyph glyph-name="Z" unicode="Z" horiz-adv-x="586" 
d="M44 34l385 562q9 14 17.5 25.5t15.5 20.5q8 10 15 18v2q-5 -1 -12 -1t-16.5 -0.5t-22.5 -0.5h-361v40h464v-34l-385 -562q-9 -14 -17.5 -25.5t-15.5 -19.5q-8 -11 -15 -19v-2q5 1 12 1t16.5 0.5t22.5 0.5h385v-40h-488v34z" />
    <glyph glyph-name="bracketleft" unicode="[" horiz-adv-x="267" 
d="M112 725h108v-40h-65v-740h65v-40h-108v820z" />
    <glyph glyph-name="backslash" unicode="\" horiz-adv-x="384" 
d="M40 740h44l253 -782h-44z" />
    <glyph glyph-name="bracketright" unicode="]" horiz-adv-x="267" 
d="M112 -55v740h-65v40h108v-820h-108v40h65z" />
    <glyph glyph-name="asciicircum" unicode="^" horiz-adv-x="600" 
d="M274 700h32l197 -448h-46l-167 388l-167 -388h-46z" />
    <glyph glyph-name="underscore" unicode="_" horiz-adv-x="576" 
d="M536 0v-40h-496v40h496z" />
    <glyph glyph-name="grave" unicode="`" horiz-adv-x="509" 
d="M193 861h56l67 -111h-44z" />
    <glyph glyph-name="a" unicode="a" horiz-adv-x="513" 
d="M47 133q0 43 17 72t44 48t61 29.5t68.5 15.5t66 6t53.5 1h33v17q0 42 -10 70.5t-28.5 46t-43.5 25t-55 7.5q-33 0 -59 -7.5t-45 -16.5q-22 -11 -39 -24l-24 34q18 15 44 28q23 11 53.5 19t71.5 8q87 0 132 -47.5t45 -141.5v-323h-42v66q0 10 0.5 18.5t1.5 14.5q1 7 2 12
h-2l-9 -19t-29.5 -42.5t-54 -42.5t-82.5 -19q-30 0 -60.5 8.5t-55 26.5t-39.5 45.5t-15 64.5zM91 136q0 -20 8 -39.5t24 -35t40 -25t56 -9.5q41 0 73 19t53.5 49.5t33 68.5t11.5 75v27h-32q-32 0 -77.5 -2t-87.5 -14t-72 -38.5t-30 -75.5z" />
    <glyph glyph-name="b" unicode="b" horiz-adv-x="579" 
d="M88 700h42v-260q0 -9 -0.5 -16.5t-1.5 -12.5q-1 -7 -2 -12h2q14 32 39 57q22 23 56 39.5t86 16.5q50 0 90 -19t68 -53.5t43 -83t15 -106.5q0 -60 -16.5 -108t-46.5 -82.5t-71 -53t-90 -18.5q-48 0 -80.5 17.5t-53.5 39.5q-24 24 -39 56h-2q1 -5 2 -12q1 -6 1.5 -14
t0.5 -18v-57h-42v700zM129 249q0 -42 10.5 -81.5t32.5 -70t54.5 -49.5t76.5 -19q37 0 69.5 15t56.5 43t38 69.5t14 93.5q0 51 -13 91.5t-36 69.5t-55 44.5t-70 15.5q-34 0 -66.5 -12.5t-57 -39.5t-39.5 -69t-15 -101z" />
    <glyph glyph-name="c" unicode="c" horiz-adv-x="551" 
d="M53 249q0 60 21 108.5t56 83t82 53t99 18.5q45 0 78.5 -11t55.5 -24q26 -16 45 -36l-26 -34q-17 18 -40 32q-22 13 -49.5 22.5t-63.5 9.5q-44 0 -83 -15.5t-68 -44.5t-46 -70t-17 -92q0 -50 17 -90.5t46 -69.5t68 -44.5t83 -15.5q42 0 73 11t52 25q24 16 42 36l22 -35
q-20 -22 -48 -39q-25 -16 -59.5 -27.5t-81.5 -11.5q-53 0 -100 18.5t-82 52.5t-55.5 82t-20.5 108z" />
    <glyph glyph-name="d" unicode="d" horiz-adv-x="580" 
d="M55 250q0 60 16.5 108t46.5 82.5t71 53t90 18.5q48 0 80.5 -17.5t53.5 -38.5q24 -25 39 -57h2q-1 5 -2 12q-1 6 -1.5 13t-0.5 16v260h42v-700h-42v63q0 9 0.5 16t1.5 12l2 10h-2q-14 -32 -39 -56q-22 -24 -56 -40.5t-86 -16.5q-50 0 -90 19t-68 53.5t-43 83t-15 106.5z
M99 250q0 -51 13 -91.5t36 -69.5t55 -44.5t70 -15.5q35 0 67 12.5t56.5 39.5t39.5 69t15 101q0 42 -10.5 81.5t-32.5 70t-54.5 49.5t-76.5 19q-37 0 -69.5 -15t-56.5 -43t-38 -69t-14 -94z" />
    <glyph glyph-name="e" unicode="e" horiz-adv-x="553" 
d="M53 249q0 63 20 112t53.5 82.5t77.5 51t92 17.5q51 0 89.5 -18.5t64 -50t38 -73t12.5 -86.5q0 -7 -1 -18q0 -4 -1 -9h-401q0 -54 17 -96.5t46.5 -72t68.5 -44.5t82 -15q36 0 64.5 10t49.5 22q23 13 41 31l23 -35q-21 -19 -48 -34q-25 -15 -57 -25t-73 -10
q-53 0 -100 18.5t-82 52.5t-55.5 82t-20.5 108zM456 296q-2 46 -15.5 79.5t-35.5 55t-50.5 32t-59.5 10.5q-34 0 -66.5 -11t-58.5 -33.5t-44.5 -55.5t-25.5 -77h356z" />
    <glyph glyph-name="f" unicode="f" horiz-adv-x="305" 
d="M109 459h-63v38h63v23q0 62 17.5 98.5t42.5 56t52 25t46 5.5q10 0 19 -1q4 0 7 -1v-39q-3 1 -6 1q-9 1 -17 1q-15 0 -35.5 -4.5t-39 -19.5t-31.5 -44t-13 -77v-24h137v-38h-137v-459h-42v459z" />
    <glyph glyph-name="g" unicode="g" horiz-adv-x="573" 
d="M119 -134q18 -10 40 -18q20 -7 43.5 -12t50.5 -5q40 0 75 10t60.5 31t40 53.5t14.5 77.5v58q0 9 0.5 16.5t1.5 12.5q1 7 2 12h-2q-23 -46 -64 -74t-104 -28q-49 0 -89.5 18.5t-70 52t-46 81.5t-16.5 106q0 59 15.5 106t43.5 80t67.5 50.5t88.5 17.5q54 0 87.5 -15.5
t52.5 -33.5q23 -22 34 -49h2q-1 2 -1 5q-2 7 -2 14v67h42v-497q0 -57 -19 -97.5t-51 -66t-73 -37.5t-86 -12q-42 0 -81 10t-76 29zM280 41q33 0 63 11t52.5 36.5t35.5 67t13 102.5q0 60 -13.5 101t-37 66t-55 35.5t-68.5 10.5q-81 0 -126 -55.5t-45 -157.5q0 -51 13 -91
t37 -68t57.5 -43t73.5 -15z" />
    <glyph glyph-name="h" unicode="h" horiz-adv-x="586" 
d="M88 700h42v-288q0 -9 -0.5 -16.5t-1.5 -12.5q-1 -7 -2 -12h2q6 18 22.5 42t43 46t63 37.5t83.5 15.5q49 0 81 -14t50.5 -39.5t26 -61.5t7.5 -80v-317h-42v302q0 33 -3.5 63.5t-16 54t-37 37.5t-66.5 14q-35 0 -67.5 -12t-59.5 -33t-46.5 -50t-28.5 -64q-5 -16 -6.5 -33
t-1.5 -35v-244h-42v700z" />
    <glyph glyph-name="i" unicode="i" horiz-adv-x="218" 
d="M84 700h50v-73h-50v73zM88 500h42v-500h-42v500z" />
    <glyph glyph-name="j" unicode="j" horiz-adv-x="218" 
d="M130 500v-520q0 -62 -17.5 -99t-42.5 -56t-52.5 -24.5t-46.5 -5.5q-9 0 -18 1q-4 0 -7 1v39q3 -1 6 -1q8 -1 16 -1q15 0 35.5 4.5t39.5 19.5t32 44t13 77v521h42zM84 700h50v-73h-50v73z" />
    <glyph glyph-name="k" unicode="k" horiz-adv-x="480" 
d="M88 700h42v-397h89l162 197h55l-181 -215v-2l198 -283h-53l-181 264h-89v-264h-42v700z" />
    <glyph glyph-name="l" unicode="l" horiz-adv-x="230" 
d="M83 700h42v-586q0 -26 6 -41.5t15 -23.5t19 -10.5t19 -2.5q5 0 11 1h4v-39q-3 -1 -6 -1q-7 -1 -12 -1q-11 0 -27.5 3t-32.5 14t-27 32t-11 56v599z" />
    <glyph glyph-name="m" unicode="m" horiz-adv-x="918" 
d="M88 500h42v-88q0 -9 -0.5 -16.5t-1.5 -12.5q-1 -7 -2 -12h2q9 28 29.5 53.5t46.5 45t56.5 31t59.5 11.5q75 0 112.5 -34.5t45.5 -101.5h2q11 26 29.5 50.5t43.5 43.5t55 30.5t62 11.5q48 0 80.5 -13.5t51.5 -39t27 -61.5t8 -81v-317h-42v302q0 35 -4.5 66.5t-18 54.5
t-38 36.5t-64.5 13.5q-31 0 -59.5 -13t-51.5 -34t-40 -48.5t-25 -56.5q-10 -33 -10 -77v-244h-42v302q0 32 -3.5 63t-16 55t-37 38.5t-65.5 14.5q-33 0 -62.5 -13.5t-53 -36t-40.5 -51.5t-26 -60q-5 -16 -6.5 -33t-1.5 -35v-244h-42v500z" />
    <glyph glyph-name="n" unicode="n" horiz-adv-x="586" 
d="M88 500h42v-88q0 -9 -0.5 -16.5t-1.5 -12.5q-1 -7 -2 -12h2q6 18 22.5 42t43 46t63 37.5t83.5 15.5q49 0 81 -14t50.5 -39.5t26 -61.5t7.5 -80v-317h-42v302q0 33 -3.5 63.5t-16 54t-37 37.5t-66.5 14q-35 0 -67.5 -12t-59.5 -33t-46.5 -50t-28.5 -64q-5 -16 -6.5 -33
t-1.5 -35v-244h-42v500z" />
    <glyph glyph-name="o" unicode="o" horiz-adv-x="620" 
d="M51 253q0 55 20.5 102t55.5 82t82 55t101 20t101 -20t82 -55t55.5 -82t20.5 -102q0 -56 -20.5 -104.5t-55.5 -84t-82 -56t-101 -20.5t-101 20.5t-82 56t-55.5 84t-20.5 104.5zM95 253q0 -48 17 -89t46 -71t68 -47t84 -17t84 17t68 47t46 71t17 89q0 47 -17 86.5t-46 69
t-68 46t-84 16.5t-84 -16.5t-68 -46t-46 -69t-17 -86.5z" />
    <glyph glyph-name="p" unicode="p" horiz-adv-x="579" 
d="M88 500h42v-60q0 -9 -0.5 -16t-0.5 -13q-1 -6 -2 -11h2q14 31 38 56q22 23 56 39.5t86 16.5q50 0 90 -19t68 -53.5t43 -83t15 -106.5q0 -60 -16.5 -108t-46 -82.5t-70.5 -53t-89 -18.5q-49 0 -82 17.5t-54 39.5q-24 24 -39 56h-2q1 -5 2 -12q1 -6 1.5 -14t0.5 -18v-257
h-42v700zM129 249q0 -42 11.5 -81.5t33.5 -70t54.5 -49.5t74.5 -19q37 0 69.5 15t56.5 43t38 69.5t14 93.5q0 51 -13 91.5t-36 69.5t-55 44.5t-70 15.5q-34 0 -66.5 -12.5t-57 -39.5t-39.5 -69t-15 -101z" />
    <glyph glyph-name="q" unicode="q" horiz-adv-x="580" 
d="M55 250q0 60 16.5 108t46.5 82.5t71 53t90 18.5q48 0 80.5 -17.5t52.5 -38.5q24 -25 39 -56h2q-1 5 -1 11q-1 6 -1.5 13t-0.5 16v60h42v-700h-42v257q0 10 0.5 18t1.5 14q1 7 2 12h-2q-14 -32 -39 -56q-22 -24 -56 -40.5t-86 -16.5q-50 0 -90 19t-68 53.5t-43 83
t-15 106.5zM99 250q0 -51 13 -91.5t36 -69.5t55 -44.5t70 -15.5q35 0 67 12.5t56.5 39.5t39.5 69t15 101q0 42 -10.5 81.5t-32.5 70t-54.5 49.5t-76.5 19q-37 0 -69.5 -15t-56.5 -43t-38 -69t-14 -94z" />
    <glyph glyph-name="r" unicode="r" horiz-adv-x="338" 
d="M88 500h42v-95q0 -9 -0.5 -16.5t-1.5 -12.5q-1 -7 -2 -12h2q9 29 24.5 54.5t35.5 44.5t45 30t55 11q9 0 20 -1q5 -1 9 -2v-42q-4 1 -7 1q-4 0 -8 0.5t-8 0.5q-29 0 -53 -11.5t-42.5 -31t-32 -44.5t-21.5 -53q-8 -26 -11.5 -53t-3.5 -52v-216h-42v500z" />
    <glyph glyph-name="s" unicode="s" horiz-adv-x="436" 
d="M72 92q17 -18 40 -31q22 -13 50 -22.5t65 -9.5q23 0 44 6t36.5 18t25 29.5t9.5 40.5q0 32 -20.5 51.5t-51 34.5t-66 27.5t-66 30.5t-51 43.5t-20.5 66.5q0 33 13 58.5t35 42.5t51 25.5t61 8.5q38 0 66 -8.5t46 -18.5q22 -12 36 -27l-25 -34q-13 13 -31 24q-17 9 -40 16
t-55 7q-21 0 -41.5 -5t-36.5 -16t-25.5 -28.5t-9.5 -41.5q0 -32 20.5 -52.5t51 -35t66 -27.5t66 -30.5t51 -43.5t20.5 -68q0 -30 -12 -55t-33.5 -42.5t-50.5 -27.5t-64 -10q-46 0 -79.5 11t-56.5 25q-26 16 -45 36z" />
    <glyph glyph-name="t" unicode="t" horiz-adv-x="314" 
d="M104 459h-66v38h66v142h42v-142h131v-38h-131v-275q0 -49 13 -78.5t31.5 -45.5t39 -20.5t35.5 -4.5q9 0 17 1q3 0 6 1v-39q-3 -1 -7 -1q-3 0 -7.5 -0.5t-10.5 -0.5q-19 0 -46.5 5.5t-52.5 24.5t-42.5 56t-17.5 99v278z" />
    <glyph glyph-name="u" unicode="u" horiz-adv-x="581" 
d="M81 500h42v-302q0 -33 3.5 -63.5t16 -54t37 -37.5t66.5 -14q47 0 85 19t64.5 50.5t41 72.5t14.5 85v244h42v-500h-42v88q0 9 0.5 16.5t1.5 12.5q1 7 2 12h-2q-6 -18 -22.5 -42t-42 -46t-61.5 -37.5t-81 -15.5q-92 0 -128.5 50t-36.5 145v317z" />
    <glyph glyph-name="v" unicode="v" horiz-adv-x="469" 
d="M18 500h45l154 -392q3 -9 6.5 -18.5t5.5 -17.5q3 -9 5 -18h2q2 9 5 18q3 8 6 17.5t6 18.5l154 392h44l-196 -500h-40z" />
    <glyph glyph-name="w" unicode="w" horiz-adv-x="797" 
d="M21 500h45l136 -392q3 -9 6 -18.5t6 -17.5q2 -9 5 -18h2l6 18q2 8 5 17.5t6 18.5l137 390h47l137 -390q3 -9 6 -18.5t6 -17.5q2 -9 5 -18h2q2 8 5 18q3 8 6 17.5t6 18.5l136 392h45l-176 -500h-45l-139 388q-3 9 -6.5 18.5t-5.5 17.5q-3 9 -5 18h-2q-2 -9 -5 -18
q-3 -8 -6 -17.5t-6 -18.5l-138 -388h-45z" />
    <glyph glyph-name="x" unicode="x" horiz-adv-x="476" 
d="M209 264l-161 236h51l121 -182l6 -10t6 -9q2 -5 5 -9h2l6 9q2 4 5 9l6 10l121 182h51l-161 -236l180 -264h-52l-138 207q-3 5 -6.5 10.5t-5.5 9.5q-3 5 -6 9h-2q-2 -4 -5 -9q-3 -4 -6 -9t-7 -11l-138 -207h-52z" />
    <glyph glyph-name="y" unicode="y" horiz-adv-x="489" 
d="M27 -146q8 -7 18 -12q9 -5 20 -8.5t24 -3.5q36 0 59.5 27.5t38.5 62.5l36 83l-207 497h45l165 -399q4 -9 7 -17.5t6 -14.5q3 -8 5 -15h2q2 7 5 15q2 7 5 15t7 17l165 399h45l-257 -617q-17 -39 -48 -66t-79 -27q-18 0 -33 4.5t-25 9.5q-13 6 -23 14z" />
    <glyph glyph-name="z" unicode="z" horiz-adv-x="501" 
d="M44 34l303 381q7 9 14 17t12 15q7 7 13 14v2q-6 -1 -13 -1t-16.5 -0.5t-21.5 -0.5h-278v39h386v-34l-304 -381q-7 -9 -14 -17t-13 -15q-7 -7 -13 -14v-2q6 1 14 1q7 0 16.5 0.5t21.5 0.5h303v-39h-410v34z" />
    <glyph glyph-name="braceleft" unicode="{" horiz-adv-x="325" 
d="M140 182q0 40 -13 63.5t-29 36.5q-19 14 -43 19v40q24 5 43 19q17 13 29.5 36.5t12.5 63.5v81q0 64 17 100.5t39.5 55t45 23t34.5 4.5h9v-39h-6q-9 0 -25 -3.5t-31.5 -18t-27.5 -43t-12 -78.5v-93q0 -37 -12.5 -61t-26.5 -39q-18 -17 -40 -27v-2q22 -9 40 -26
q16 -15 27.5 -39t11.5 -62v-106q0 -50 12 -78.5t27.5 -43t31.5 -18t25 -3.5h6v-39q-1 0 -2 -1h-7q-12 0 -34.5 4.5t-45 23t-39.5 55.5t-17 101v94z" />
    <glyph glyph-name="bar" unicode="|" horiz-adv-x="265" 
d="M111 785h43v-940h-43v940z" />
    <glyph glyph-name="braceright" unicode="}" horiz-adv-x="325" 
d="M40 -56h6q9 0 25 3.5t31.5 18t27.5 43t12 78.5v106q0 38 12.5 62.5t27.5 38.5q17 17 39 26v2q-22 10 -39 27q-17 16 -28.5 39.5t-11.5 60.5v93q0 50 -12 78.5t-27.5 43t-31.5 18t-25 3.5h-6v39h9q12 0 35 -4.5t45.5 -23t39 -55t16.5 -100.5v-81q0 -40 13 -63.5t30 -36.5
q18 -14 42 -19v-40q-24 -5 -42 -19q-18 -13 -30.5 -36.5t-12.5 -63.5v-94q0 -64 -16.5 -101t-39 -55.5t-45.5 -23t-35 -4.5h-7q-1 1 -2 1v39z" />
    <glyph glyph-name="asciitilde" unicode="~" horiz-adv-x="592" 
d="M79 213q0 78 33 111t82 33q43 0 67.5 -17t43.5 -38t39.5 -38t55.5 -17q25 0 40 12t22.5 28.5t10 34.5t2.5 31h40q0 -78 -33 -111t-82 -33q-43 0 -67.5 17t-43.5 38t-39.5 38t-55.5 17q-25 0 -40 -12t-22.5 -28.5t-10 -34.5t-2.5 -31h-40z" />
    <glyph glyph-name="uni00A0" unicode="&#xa0;" horiz-adv-x="277" 
 />
    <glyph glyph-name="exclamdown" unicode="&#xa1;" horiz-adv-x="261" 
d="M109 325h43v-525h-43v525zM100 500h59v-61h-59v61z" />
    <glyph glyph-name="cent" unicode="&#xa2;" horiz-adv-x="567" 
d="M274 71q-53 5 -92 28.5t-65 61t-39 86t-13 103.5t13 103.5t39 86t65 61.5t92 28v83h43v-83q66 -6 111 -44t74 -98l-41 -16q-25 52 -64 84t-99 32q-50 0 -85.5 -18.5t-58.5 -51t-33.5 -75.5t-10.5 -92t10.5 -92t33.5 -75.5t58.5 -51t85.5 -18.5q60 0 99 32t64 84l41 -16
q-29 -60 -74 -98.5t-111 -43.5v-84h-43v84z" />
    <glyph glyph-name="sterling" unicode="&#xa3;" horiz-adv-x="585" 
d="M80 373h45v162q0 37 14.5 69.5t41 56.5t62.5 37.5t79 13.5q34 0 61 -8t46 -17q22 -12 40 -26l-29 -33q-15 12 -33 21q-17 9 -38.5 15t-47.5 6q-37 0 -66 -11.5t-48 -30.5t-29 -44t-10 -53v-158h198v-40h-198v-293h351v-40h-459v40h65v293h-45v40z" />
    <glyph glyph-name="yen" unicode="&#xa5;" horiz-adv-x="598" 
d="M115 392h110l-185 308h49l166 -276q8 -13 15.5 -27t13.5 -25q7 -14 14 -27h2q6 13 14 27q6 12 13.5 25.5t15.5 26.5l166 276h49l-185 -308h108v-40h-132l-28 -48v-42h160v-40h-160v-222h-43v222h-163v40h163v42l-29 48h-134v40z" />
    <glyph glyph-name="section" unicode="&#xa7;" horiz-adv-x="390" 
d="M75 536q-1 6 -1.5 12.5t-0.5 12.5q0 32 12 60t33 48t50 31.5t63 11.5q20 0 37 -5t29 -11q15 -8 27 -17l-26 -32q-9 7 -19 12t-22 8.5t-27 3.5q-48 0 -80.5 -30.5t-32.5 -82.5q0 -5 0.5 -10.5t1.5 -10.5l65 -475h-42zM89 3q9 -7 19 -12t22 -8.5t27 -3.5q48 0 80 30.5
t32 82.5v10.5t-1 10.5l-65 475h42l67 -474q1 -7 1.5 -13t0.5 -12q0 -33 -12 -60.5t-33 -47.5t-50 -31.5t-63 -11.5q-20 0 -37 5t-29 11q-15 8 -27 17z" />
    <glyph glyph-name="dieresis" unicode="&#xa8;" horiz-adv-x="509" 
d="M300 861h46v-73h-46v73zM163 861h46v-73h-46v73z" />
    <glyph glyph-name="copyright" unicode="&#xa9;" horiz-adv-x="838" 
d="M65 350q0 76 27.5 142t75.5 115t112 77t137 28q74 0 139 -28t113 -77t76 -115t28 -142t-28 -142t-76 -115t-113 -77t-139 -28q-73 0 -137 28t-112 77t-75.5 115t-27.5 142zM110 350q0 -68 23.5 -126.5t65 -101.5t97.5 -67.5t121 -24.5q66 0 123 24.5t98.5 67.5
t65.5 101.5t24 126.5t-24 126t-65.5 101.5t-98.5 68t-123 24.5q-65 0 -121 -24.5t-97.5 -68t-65 -101.5t-23.5 -126zM214 349q0 39 13.5 77t40.5 68t67.5 48t93.5 18q39 0 69.5 -13.5t51.5 -30.5q24 -19 42 -44l-33 -29q-15 21 -34 37q-18 15 -41 26t-54 11q-43 0 -75 -14.5
t-53.5 -37.5t-32 -53t-10.5 -62q0 -31 10.5 -61t32 -53.5t53.5 -38t75 -14.5q31 0 55 11.5t41 25.5q19 16 33 37l33 -29q-18 -25 -43 -44q-22 -18 -51.5 -31t-68.5 -13q-54 0 -94 18t-67 47t-40.5 67t-13.5 77z" />
    <glyph glyph-name="ordfeminine" unicode="&#xaa;" horiz-adv-x="428" 
d="M201 382q-20 0 -40 5.5t-35.5 17t-25.5 29t-10 41.5q0 41 22.5 63t53.5 33t64 13t54 2h14v4q0 46 -21.5 64.5t-54.5 18.5q-18 0 -33.5 -4.5t-27.5 -9.5q-14 -7 -25 -15l-22 30q13 10 29 18q16 7 35.5 12.5t44.5 5.5q56 0 85 -30t29 -90v-202h-39v51h-2q-9 -16 -23 -28
q-13 -12 -30 -20.5t-42 -8.5zM202 419q23 0 41 11t30 28.5t18.5 39t6.5 42.5v10h-13q-17 0 -43 -1t-51 -8t-42.5 -21.5t-17.5 -40.5q0 -23 17.5 -41.5t53.5 -18.5zM87 300h253v-37h-253v37z" />
    <glyph glyph-name="guillemotleft" unicode="&#xab;" horiz-adv-x="491" 
d="M378 488h53l-164 -206l164 -205h-53l-164 205zM54 282l164 206h53l-164 -206l164 -205h-53z" />
    <glyph glyph-name="logicalnot" unicode="&#xac;" horiz-adv-x="635" 
d="M90 383h456v-219h-42v179h-414v40z" />
    <glyph glyph-name="uni00AD" unicode="&#xad;" horiz-adv-x="432" 
d="M78 303h276v-40h-276v40z" />
    <glyph glyph-name="registered" unicode="&#xae;" horiz-adv-x="838" 
d="M65 350q0 76 27.5 142t75.5 115t112 77t137 28q74 0 139 -28t113 -77t76 -115t28 -142t-28 -142t-76 -115t-113 -77t-139 -28q-73 0 -137 28t-112 77t-75.5 115t-27.5 142zM110 350q0 -68 23.5 -126.5t65 -101.5t97.5 -67.5t121 -24.5q66 0 123 24.5t98.5 67.5
t65.5 101.5t24 126.5t-24 126t-65.5 101.5t-98.5 68t-123 24.5q-65 0 -121 -24.5t-97.5 -68t-65 -101.5t-23.5 -126zM301 550h133q51 0 83.5 -31.5t32.5 -84.5q0 -45 -23 -72t-54 -35v-2q1 -2 3 -5q5 -7 10 -17l79 -153h-49l-85 167h-86v-167h-44v400zM429 355q35 0 55.5 21
t20.5 58q0 36 -20.5 56t-55.5 20h-84v-155h84z" />
    <glyph glyph-name="macron" unicode="&#xaf;" horiz-adv-x="509" 
d="M135 826h239v-40h-239v40z" />
    <glyph glyph-name="degree" unicode="&#xb0;" horiz-adv-x="371" 
d="M185 449q-27 0 -50.5 10t-41.5 28t-28 41.5t-10 50.5t10 51t28 41.5t41.5 28t50.5 10.5t51 -10.5t41.5 -28t28 -41.5t10.5 -51t-10.5 -50.5t-28 -41.5t-41.5 -28t-51 -10zM185 489q38 0 63 26t25 64t-25 64.5t-63 26.5t-62.5 -26.5t-24.5 -64.5t24.5 -64t62.5 -26z" />
    <glyph glyph-name="plusminus" unicode="&#xb1;" horiz-adv-x="686" 
d="M85 303h237v263h43v-263h236v-40h-236v-263h-43v263h-237v40zM581 -113v-40h-476v40h476z" />
    <glyph glyph-name="twosuperior" unicode="&#xb2;" 
d="M55 423q-1 7 -1.5 14t-0.5 13q0 41 16.5 69.5t41 51t53 41t53 37.5t41 41.5t16.5 53.5q0 35 -24.5 61t-66.5 26q-22 0 -39 -8t-29 -17q-15 -11 -26 -25l-24 26q13 17 31 30q16 12 37 21t50 9q32 0 56.5 -10t41 -27t24.5 -39.5t8 -46.5q0 -37 -16 -64t-40.5 -47.5
t-52.5 -38t-52.5 -36.5t-41.5 -42.5t-18 -56.5h229v-36h-266z" />
    <glyph glyph-name="threesuperior" unicode="&#xb3;" 
d="M184 413q-36 0 -62 10t-43 23q-20 14 -33 32l28 26q11 -15 27 -27q15 -12 35 -20t49 -8q18 0 36.5 7.5t33.5 21t24 32t9 40.5q0 23 -9.5 41t-24.5 30t-34 18.5t-39 6.5h-32l-11 24l108 127q4 5 8.5 9.5t8.5 7.5l8 8v2q-5 -1 -11 -1q-6 -1 -12.5 -1.5t-14.5 -0.5h-164v36
h255v-26l-128 -150q20 -1 43 -8.5t42.5 -22.5t32.5 -39.5t13 -60.5q0 -29 -11.5 -54t-31 -43.5t-45.5 -29t-55 -10.5z" />
    <glyph glyph-name="acute" unicode="&#xb4;" horiz-adv-x="509" 
d="M260 861h56l-79 -111h-44z" />
    <glyph glyph-name="mu" unicode="&#xb5;" horiz-adv-x="598" 
d="M93 500h42v-302q0 -33 3.5 -63.5t16 -54t37 -37.5t66.5 -14q47 0 85 19t64.5 50.5t41 72.5t14.5 85v244h42v-500h-42v83q0 9 0.5 16.5t0.5 12.5q0 7 1 12h-2q-17 -38 -45 -68q-26 -28 -64 -48t-96 -20q-37 0 -61.5 8t-38.5 18q-17 11 -27 25h-2q2 -15 3 -28t2 -24.5
t1 -19.5v-167h-42v700z" />
    <glyph glyph-name="mu" unicode="&#x3bc;" horiz-adv-x="598" 
d="M93 500h42v-302q0 -33 3.5 -63.5t16 -54t37 -37.5t66.5 -14q47 0 85 19t64.5 50.5t41 72.5t14.5 85v244h42v-500h-42v83q0 9 0.5 16.5t0.5 12.5q0 7 1 12h-2q-17 -38 -45 -68q-26 -28 -64 -48t-96 -20q-37 0 -61.5 8t-38.5 18q-17 11 -27 25h-2q2 -15 3 -28t2 -24.5
t1 -19.5v-167h-42v700z" />
    <glyph glyph-name="paragraph" unicode="&#xb6;" horiz-adv-x="551" 
d="M294 241q-48 0 -91.5 18t-76.5 49t-52.5 73t-19.5 90t19 90t52 73t76.5 48.5t91.5 17.5h210v-40h-167v-710h-42v291zM398 597h42v-647h-42v647z" />
    <glyph glyph-name="periodcentered" unicode="&#xb7;" horiz-adv-x="273" 
d="M106 318h61v-63h-61v63z" />
    <glyph glyph-name="cedilla" unicode="&#xb8;" horiz-adv-x="509" 
d="M265 13v-8l-12 -65q31 -5 50 -23t19 -45q0 -41 -28 -58.5t-63 -17.5q-10 0 -18 0.5t-14 1.5q-7 1 -12 2v38q5 -1 12 -3q6 -1 13 -1.5t16 -0.5q20 0 37 7.5t17 29.5q0 17 -16 27.5t-45 10.5q-4 0 -8 -1h-4l24 111z" />
    <glyph glyph-name="onesuperior" unicode="&#xb9;" 
d="M77 459h96v325q0 7 1 15v7h-1q-1 -3 -4 -6q-3 -4 -7.5 -9t-11.5 -12l-44 -43l-26 27l93 94h38v-398h93v-36h-227v36z" />
    <glyph glyph-name="ordmasculine" unicode="&#xba;" horiz-adv-x="476" 
d="M237 383q-34 0 -63.5 12.5t-51.5 35t-35 53t-13 65.5q0 34 13 63.5t35 51.5t51.5 34.5t63.5 12.5t63.5 -12.5t51.5 -34.5t35 -51.5t13 -63.5q0 -35 -13 -65.5t-35 -53t-51.5 -35t-63.5 -12.5zM237 420q26 0 48.5 10t39.5 27t26.5 40.5t9.5 51.5q0 27 -9.5 50t-26.5 39.5
t-39.5 26t-48.5 9.5t-48.5 -9.5t-39.5 -26t-26.5 -39.5t-9.5 -50q0 -28 9.5 -51.5t26.5 -40.5t39.5 -27t48.5 -10zM92 300h294v-37h-294v37z" />
    <glyph glyph-name="guillemotright" unicode="&#xbb;" horiz-adv-x="491" 
d="M384 282l-164 206h53l164 -206l-164 -205h-53zM224 282l-164 206h53l164 -206l-164 -205h-53z" />
    <glyph glyph-name="onequarter" unicode="&#xbc;" horiz-adv-x="971" 
d="M831 121h-215v26l222 287h31v-277h68v-36h-68v-121h-38v121zM831 157v147q0 11 0.5 22t1.5 21q0 11 1 22h-2q-5 -8 -11 -16q-5 -8 -11 -16.5t-13 -17.5l-126 -160v-2h160zM133 302h96v325q0 7 1 15v7h-1q-1 -3 -4 -6q-3 -4 -7.5 -9t-11.5 -12l-44 -43l-26 27l93 94h38
v-398h93v-36h-227v36zM321 0l336 700h43l-335 -700h-44z" />
    <glyph glyph-name="onehalf" unicode="&#xbd;" horiz-adv-x="919" 
d="M252 0l336 700h43l-335 -700h-44zM64 302h96v325q0 7 1 15v7h-1q-1 -3 -4 -6q-3 -4 -7.5 -9t-11.5 -12l-44 -43l-26 27l93 94h38v-398h93v-36h-227v36zM577 0q-1 7 -1.5 14t-0.5 13q0 41 16.5 69.5t41 51t53 41t53 37.5t41 41.5t16.5 53.5q0 35 -24.5 61t-66.5 26
q-22 0 -39 -8t-29 -17q-15 -11 -26 -25l-24 26q13 17 31 30q16 12 37 21t50 9q32 0 56.5 -10t41 -27t24.5 -39.5t8 -46.5q0 -37 -16 -64t-40.5 -47.5t-52.5 -38t-52.5 -36.5t-41.5 -42.5t-18 -56.5h229v-36h-266z" />
    <glyph glyph-name="threequarters" unicode="&#xbe;" horiz-adv-x="955" 
d="M191 256q-36 0 -62 10t-43 23q-20 14 -33 32l28 26q11 -15 27 -27q15 -12 35 -20t49 -8q18 0 36.5 7.5t33.5 21t24 32t9 40.5q0 23 -9.5 41t-24.5 30t-34 18.5t-39 6.5h-32l-11 24l108 127q4 5 8.5 9.5t8.5 7.5l8 8v2q-5 -1 -11 -1q-6 -1 -12.5 -1.5t-14.5 -0.5h-164v36
h255v-26l-128 -150q20 -1 43 -8.5t42.5 -22.5t32.5 -39.5t13 -60.5q0 -29 -11.5 -54t-31 -43.5t-45.5 -29t-55 -10.5zM276 0l336 700h43l-335 -700h-44zM786 121h-215v26l222 287h31v-277h68v-36h-68v-121h-38v121zM786 157v147q0 11 0.5 22t1.5 21q0 11 1 22h-2
q-5 -8 -11 -16q-5 -8 -11 -16.5t-13 -17.5l-126 -160v-2h160z" />
    <glyph glyph-name="questiondown" unicode="&#xbf;" horiz-adv-x="429" 
d="M48 -38q0 42 13.5 71.5t33.5 53.5t43.5 44t43.5 42t33.5 48t13.5 62v42h43v-42q0 -41 -13.5 -71t-33 -54t-43 -44.5t-43 -42.5t-33 -48t-13.5 -62q0 -27 10.5 -50.5t30 -41t46 -27.5t59.5 -10q28 0 51 6.5t40 14.5q20 9 36 21l23 -34q-18 -14 -41 -25
q-21 -10 -47.5 -17.5t-60.5 -7.5q-43 0 -78.5 13t-60.5 36t-39 54.5t-14 68.5zM221 500h59v-61h-59v61z" />
    <glyph glyph-name="Agrave" unicode="&#xc0;" horiz-adv-x="606" 
d="M451 242h-297l-90 -242h-46l262 700h46l262 -700h-46zM302 650q-4 -16 -9 -31q-4 -14 -8.5 -28t-8.5 -25l-107 -284h267l-106 284q-4 11 -8.5 25.5t-8.5 27.5q-5 15 -9 31h-2zM202 861h56l67 -111h-44z" />
    <glyph glyph-name="Aacute" unicode="&#xc1;" horiz-adv-x="606" 
d="M451 242h-297l-90 -242h-46l262 700h46l262 -700h-46zM302 650q-4 -16 -9 -31q-4 -14 -8.5 -28t-8.5 -25l-107 -284h267l-106 284q-4 11 -8.5 25.5t-8.5 27.5q-5 15 -9 31h-2zM347 861h56l-79 -111h-44z" />
    <glyph glyph-name="Acircumflex" unicode="&#xc2;" horiz-adv-x="606" 
d="M451 242h-297l-90 -242h-46l262 700h46l262 -700h-46zM302 650q-4 -16 -9 -31q-4 -14 -8.5 -28t-8.5 -25l-107 -284h267l-106 284q-4 11 -8.5 25.5t-8.5 27.5q-5 15 -9 31h-2zM277 861h52l80 -111h-49l-56 80h-2l-56 -80h-49z" />
    <glyph glyph-name="Atilde" unicode="&#xc3;" horiz-adv-x="606" 
d="M451 242h-297l-90 -242h-46l262 700h46l262 -700h-46zM302 650q-4 -16 -9 -31q-4 -14 -8.5 -28t-8.5 -25l-107 -284h267l-106 284q-4 11 -8.5 25.5t-8.5 27.5q-5 15 -9 31h-2zM159 753q0 108 83 108q25 0 41.5 -11.5t29 -25.5t25 -25.5t30.5 -11.5q13 0 21 8t12 19
t5.5 23t1.5 21h40q0 -108 -83 -108q-25 0 -41.5 11.5t-29 25.5t-25 25.5t-30.5 11.5q-13 0 -21 -8t-12 -19t-5.5 -23t-1.5 -21h-40z" />
    <glyph glyph-name="Adieresis" unicode="&#xc4;" horiz-adv-x="606" 
d="M451 242h-297l-90 -242h-46l262 700h46l262 -700h-46zM302 650q-4 -16 -9 -31q-4 -14 -8.5 -28t-8.5 -25l-107 -284h267l-106 284q-4 11 -8.5 25.5t-8.5 27.5q-5 15 -9 31h-2zM349 861h46v-73h-46v73zM212 861h46v-73h-46v73z" />
    <glyph glyph-name="Aring" unicode="&#xc5;" horiz-adv-x="606" 
d="M451 242h-297l-90 -242h-46l262 700h46l262 -700h-46zM302 650q-4 -16 -9 -31q-4 -14 -8.5 -28t-8.5 -25l-107 -284h267l-106 284q-4 11 -8.5 25.5t-8.5 27.5q-5 15 -9 31h-2zM303 740q-29 0 -48 19t-19 48t19 48t48 19t48 -19t19 -48t-19 -48t-48 -19zM303 775
q14 0 23 9t9 23q0 15 -9 24t-23 9t-23 -9t-9 -24q0 -14 9 -23t23 -9z" />
    <glyph glyph-name="AE" unicode="&#xc6;" horiz-adv-x="832" 
d="M303 700h449v-40h-340v-287h279v-40h-279v-293h359v-40h-402v333h-171l-136 -333h-46zM215 373h154v287h-36z" />
    <glyph glyph-name="Ccedilla" unicode="&#xc7;" horiz-adv-x="735" 
d="M62 355q0 76 26.5 141.5t73 113.5t110 75t137.5 27q63 0 109.5 -13.5t77.5 -30.5q37 -19 63 -44l-26 -32q-25 22 -59 40q-31 16 -71 27.5t-93 11.5q-64 0 -119.5 -24t-96.5 -66t-64 -100t-23 -126t23 -127.5t64 -103.5t97 -69.5t122 -25.5q57 0 100.5 15t74.5 33
q35 20 62 47l27 -30q-28 -29 -67 -52q-35 -21 -81.5 -37t-108.5 -17l-9 -48q31 -5 50 -23t19 -45q0 -41 -28 -58.5t-63 -17.5q-10 0 -18 0.5t-14 1.5q-7 1 -12 2v38q5 -1 12 -3q6 -1 13 -1.5t16 -0.5q20 0 37 7.5t17 29.5q0 17 -16 27.5t-45 10.5q-4 0 -8 -1h-4l17 82
q-71 5 -130 35.5t-102 80t-66.5 113.5t-23.5 137z" />
    <glyph glyph-name="Egrave" unicode="&#xc8;" horiz-adv-x="571" 
d="M108 700h383v-40h-340v-287h279v-40h-279v-293h359v-40h-402v700zM211 861h56l67 -111h-44z" />
    <glyph glyph-name="Eacute" unicode="&#xc9;" horiz-adv-x="571" 
d="M108 700h383v-40h-340v-287h279v-40h-279v-293h359v-40h-402v700zM356 861h56l-79 -111h-44z" />
    <glyph glyph-name="Ecircumflex" unicode="&#xca;" horiz-adv-x="571" 
d="M108 700h383v-40h-340v-287h279v-40h-279v-293h359v-40h-402v700zM286 861h52l80 -111h-49l-56 80h-2l-56 -80h-49z" />
    <glyph glyph-name="Edieresis" unicode="&#xcb;" horiz-adv-x="571" 
d="M108 700h383v-40h-340v-287h279v-40h-279v-293h359v-40h-402v700zM358 861h46v-73h-46v73zM221 861h46v-73h-46v73z" />
    <glyph glyph-name="Igrave" unicode="&#xcc;" horiz-adv-x="259" 
d="M108 700h43v-700h-43v700zM29 861h56l67 -111h-44z" />
    <glyph glyph-name="Iacute" unicode="&#xcd;" horiz-adv-x="259" 
d="M108 700h43v-700h-43v700zM174 861h56l-79 -111h-44z" />
    <glyph glyph-name="Icircumflex" unicode="&#xce;" horiz-adv-x="259" 
d="M108 700h43v-700h-43v700zM104 861h52l80 -111h-49l-56 80h-2l-56 -80h-49z" />
    <glyph glyph-name="Idieresis" unicode="&#xcf;" horiz-adv-x="259" 
d="M108 700h43v-700h-43v700zM176 861h46v-73h-46v73zM39 861h46v-73h-46v73z" />
    <glyph glyph-name="Eth" unicode="&#xd0;" horiz-adv-x="753" 
d="M60 373h60v327h220q78 0 142.5 -23.5t110 -68.5t71 -110t25.5 -148q0 -84 -25.5 -149t-71 -109.5t-110 -68t-142.5 -23.5h-220v333h-60v40zM333 40q70 0 127 20t98 59.5t63.5 97.5t22.5 133t-22.5 133t-63.5 97t-98 59.5t-127 20.5h-170v-287h183v-40h-183v-293h170z" />
    <glyph glyph-name="Ntilde" unicode="&#xd1;" horiz-adv-x="752" 
d="M108 700h40l399 -549q9 -12 19 -27t18 -29l20 -32h2q-1 15 -2 31q-2 14 -2.5 29t-0.5 28v549h43v-700h-40l-399 549q-9 12 -19 27t-18 29l-20 32h-2q1 -15 3 -31q1 -14 1.5 -29t0.5 -28v-549h-43v700zM232 753q0 108 83 108q25 0 41.5 -11.5t29 -25.5t25 -25.5
t30.5 -11.5q13 0 21 8t12 19t5.5 23t1.5 21h40q0 -108 -83 -108q-25 0 -41.5 11.5t-29 25.5t-25 25.5t-30.5 11.5q-13 0 -21 -8t-12 -19t-5.5 -23t-1.5 -21h-40z" />
    <glyph glyph-name="Ograve" unicode="&#xd2;" horiz-adv-x="826" 
d="M59 355q0 75 28 140.5t76 113.5t112.5 75.5t137.5 27.5t137.5 -27.5t112.5 -75.5t76 -113.5t28 -140.5q0 -77 -28 -144t-76 -116.5t-112.5 -78t-137.5 -28.5t-137.5 28.5t-112.5 78t-76 116.5t-28 144zM104 355q0 -69 24 -128.5t66 -103.5t98.5 -69t120.5 -25t120.5 25
t98.5 69t66 103.5t24 128.5q0 67 -24 125t-66 100.5t-98.5 66.5t-120.5 24t-120.5 -24t-98.5 -66.5t-66 -100.5t-24 -125zM312 861h56l67 -111h-44z" />
    <glyph glyph-name="Oacute" unicode="&#xd3;" horiz-adv-x="826" 
d="M59 355q0 75 28 140.5t76 113.5t112.5 75.5t137.5 27.5t137.5 -27.5t112.5 -75.5t76 -113.5t28 -140.5q0 -77 -28 -144t-76 -116.5t-112.5 -78t-137.5 -28.5t-137.5 28.5t-112.5 78t-76 116.5t-28 144zM104 355q0 -69 24 -128.5t66 -103.5t98.5 -69t120.5 -25t120.5 25
t98.5 69t66 103.5t24 128.5q0 67 -24 125t-66 100.5t-98.5 66.5t-120.5 24t-120.5 -24t-98.5 -66.5t-66 -100.5t-24 -125zM457 861h56l-79 -111h-44z" />
    <glyph glyph-name="Ocircumflex" unicode="&#xd4;" horiz-adv-x="826" 
d="M59 355q0 75 28 140.5t76 113.5t112.5 75.5t137.5 27.5t137.5 -27.5t112.5 -75.5t76 -113.5t28 -140.5q0 -77 -28 -144t-76 -116.5t-112.5 -78t-137.5 -28.5t-137.5 28.5t-112.5 78t-76 116.5t-28 144zM104 355q0 -69 24 -128.5t66 -103.5t98.5 -69t120.5 -25t120.5 25
t98.5 69t66 103.5t24 128.5q0 67 -24 125t-66 100.5t-98.5 66.5t-120.5 24t-120.5 -24t-98.5 -66.5t-66 -100.5t-24 -125zM387 861h52l80 -111h-49l-56 80h-2l-56 -80h-49z" />
    <glyph glyph-name="Otilde" unicode="&#xd5;" horiz-adv-x="826" 
d="M59 355q0 75 28 140.5t76 113.5t112.5 75.5t137.5 27.5t137.5 -27.5t112.5 -75.5t76 -113.5t28 -140.5q0 -77 -28 -144t-76 -116.5t-112.5 -78t-137.5 -28.5t-137.5 28.5t-112.5 78t-76 116.5t-28 144zM104 355q0 -69 24 -128.5t66 -103.5t98.5 -69t120.5 -25t120.5 25
t98.5 69t66 103.5t24 128.5q0 67 -24 125t-66 100.5t-98.5 66.5t-120.5 24t-120.5 -24t-98.5 -66.5t-66 -100.5t-24 -125zM269 753q0 108 83 108q25 0 41.5 -11.5t29 -25.5t25 -25.5t30.5 -11.5q13 0 21 8t12 19t5.5 23t1.5 21h40q0 -108 -83 -108q-25 0 -41.5 11.5
t-29 25.5t-25 25.5t-30.5 11.5q-13 0 -21 -8t-12 -19t-5.5 -23t-1.5 -21h-40z" />
    <glyph glyph-name="Odieresis" unicode="&#xd6;" horiz-adv-x="826" 
d="M59 355q0 75 28 140.5t76 113.5t112.5 75.5t137.5 27.5t137.5 -27.5t112.5 -75.5t76 -113.5t28 -140.5q0 -77 -28 -144t-76 -116.5t-112.5 -78t-137.5 -28.5t-137.5 28.5t-112.5 78t-76 116.5t-28 144zM104 355q0 -69 24 -128.5t66 -103.5t98.5 -69t120.5 -25t120.5 25
t98.5 69t66 103.5t24 128.5q0 67 -24 125t-66 100.5t-98.5 66.5t-120.5 24t-120.5 -24t-98.5 -66.5t-66 -100.5t-24 -125zM459 861h46v-73h-46v73zM322 861h46v-73h-46v73z" />
    <glyph glyph-name="multiply" unicode="&#xd7;" horiz-adv-x="658" 
d="M302 283l-224 255l28 28l223 -253l223 253l28 -28l-225 -255l225 -255l-28 -28l-223 253l-223 -253l-28 28z" />
    <glyph glyph-name="Oslash" unicode="&#xd8;" horiz-adv-x="831" 
d="M62 355q0 75 28 140.5t76 113.5t112.5 75.5t137.5 27.5q54 0 102 -15t90 -42l49 69l34 -25l-49 -69q59 -49 93.5 -119.5t34.5 -155.5q0 -77 -28 -144t-76 -116.5t-112.5 -78t-137.5 -28.5q-54 0 -102 15t-90 43l-49 -69l-35 24l50 70q-59 51 -93.5 123.5t-34.5 160.5z
M725 355q0 74 -29 136t-79 105l-369 -516q74 -51 168 -51q64 0 120.5 25t98.5 69t66 103.5t24 128.5zM107 355q0 -76 29 -140t79 -109l368 515q-36 24 -78 37t-89 13q-64 0 -120.5 -24t-98.5 -66.5t-66 -100.5t-24 -125z" />
    <glyph glyph-name="Ugrave" unicode="&#xd9;" horiz-adv-x="719" 
d="M98 700h43v-458q0 -49 15.5 -88.5t44 -67.5t69 -42.5t89.5 -14.5q50 0 90 15t69 42.5t44.5 67.5t15.5 90v456h43v-460q0 -58 -19 -104.5t-53.5 -79.5t-82.5 -50.5t-106 -17.5t-106 17.5t-82.5 50.5t-54 79.5t-19.5 104.5v460zM258 861h56l67 -111h-44z" />
    <glyph glyph-name="Uacute" unicode="&#xda;" horiz-adv-x="719" 
d="M98 700h43v-458q0 -49 15.5 -88.5t44 -67.5t69 -42.5t89.5 -14.5q50 0 90 15t69 42.5t44.5 67.5t15.5 90v456h43v-460q0 -58 -19 -104.5t-53.5 -79.5t-82.5 -50.5t-106 -17.5t-106 17.5t-82.5 50.5t-54 79.5t-19.5 104.5v460zM403 861h56l-79 -111h-44z" />
    <glyph glyph-name="Ucircumflex" unicode="&#xdb;" horiz-adv-x="719" 
d="M98 700h43v-458q0 -49 15.5 -88.5t44 -67.5t69 -42.5t89.5 -14.5q50 0 90 15t69 42.5t44.5 67.5t15.5 90v456h43v-460q0 -58 -19 -104.5t-53.5 -79.5t-82.5 -50.5t-106 -17.5t-106 17.5t-82.5 50.5t-54 79.5t-19.5 104.5v460zM333 861h52l80 -111h-49l-56 80h-2l-56 -80
h-49z" />
    <glyph glyph-name="Udieresis" unicode="&#xdc;" horiz-adv-x="719" 
d="M98 700h43v-458q0 -49 15.5 -88.5t44 -67.5t69 -42.5t89.5 -14.5q50 0 90 15t69 42.5t44.5 67.5t15.5 90v456h43v-460q0 -58 -19 -104.5t-53.5 -79.5t-82.5 -50.5t-106 -17.5t-106 17.5t-82.5 50.5t-54 79.5t-19.5 104.5v460zM405 861h46v-73h-46v73zM268 861h46v-73h-46
v73z" />
    <glyph glyph-name="Yacute" unicode="&#xdd;" horiz-adv-x="556" 
d="M257 304l-238 396h49l166 -276q8 -13 15.5 -27t13.5 -25q7 -14 14 -27h2q6 13 14 27q6 12 13.5 25.5t15.5 26.5l166 276h49l-237 -396v-304h-43v304zM322 861h56l-79 -111h-44z" />
    <glyph glyph-name="Thorn" unicode="&#xde;" horiz-adv-x="594" 
d="M108 700h43v-130h187q46 0 85 -14t67.5 -40.5t44.5 -64t16 -85.5t-16 -86t-45 -64.5t-68 -41t-86 -14.5h-185v-160h-43v700zM336 200q77 0 123.5 43.5t46.5 122.5t-46.5 121.5t-123.5 42.5h-185v-330h185z" />
    <glyph glyph-name="germandbls" unicode="&#xdf;" horiz-adv-x="563" 
d="M88 532q0 44 16.5 77.5t43 56.5t60 34.5t68.5 11.5q39 0 69 -12t50.5 -31.5t31 -44t10.5 -50.5q0 -41 -19 -69t-41.5 -50.5t-41.5 -42.5t-19 -44q0 -18 15.5 -34t39 -32.5t51 -33.5t51 -37.5t39 -45.5t15.5 -57q0 -34 -13 -59.5t-34.5 -42t-49 -25t-57.5 -8.5
q-37 0 -65 5.5t-48 12.5q-24 7 -41 17v46q19 -11 43 -20q22 -8 49.5 -14t62.5 -6q21 0 41 5.5t35 17t24 29.5t9 42q0 27 -15.5 47.5t-39 38t-51 34t-51 34t-39 38t-15.5 46.5q0 34 19 58t41.5 46.5t41.5 46.5t19 57q0 17 -7.5 34t-22 31t-37 23t-52.5 9q-27 0 -52.5 -9.5
t-46 -27.5t-33 -44.5t-12.5 -60.5v-529h-42v532z" />
    <glyph glyph-name="agrave" unicode="&#xe0;" horiz-adv-x="513" 
d="M47 133q0 43 17 72t44 48t61 29.5t68.5 15.5t66 6t53.5 1h33v17q0 42 -10 70.5t-28.5 46t-43.5 25t-55 7.5q-33 0 -59 -7.5t-45 -16.5q-22 -11 -39 -24l-24 34q18 15 44 28q23 11 53.5 19t71.5 8q87 0 132 -47.5t45 -141.5v-323h-42v66q0 10 0.5 18.5t1.5 14.5q1 7 2 12
h-2l-9 -19t-29.5 -42.5t-54 -42.5t-82.5 -19q-30 0 -60.5 8.5t-55 26.5t-39.5 45.5t-15 64.5zM91 136q0 -20 8 -39.5t24 -35t40 -25t56 -9.5q41 0 73 19t53.5 49.5t33 68.5t11.5 75v27h-32q-32 0 -77.5 -2t-87.5 -14t-72 -38.5t-30 -75.5zM154 700h56l67 -111h-44z" />
    <glyph glyph-name="aacute" unicode="&#xe1;" horiz-adv-x="513" 
d="M47 133q0 43 17 72t44 48t61 29.5t68.5 15.5t66 6t53.5 1h33v17q0 42 -10 70.5t-28.5 46t-43.5 25t-55 7.5q-33 0 -59 -7.5t-45 -16.5q-22 -11 -39 -24l-24 34q18 15 44 28q23 11 53.5 19t71.5 8q87 0 132 -47.5t45 -141.5v-323h-42v66q0 10 0.5 18.5t1.5 14.5q1 7 2 12
h-2l-9 -19t-29.5 -42.5t-54 -42.5t-82.5 -19q-30 0 -60.5 8.5t-55 26.5t-39.5 45.5t-15 64.5zM91 136q0 -20 8 -39.5t24 -35t40 -25t56 -9.5q41 0 73 19t53.5 49.5t33 68.5t11.5 75v27h-32q-32 0 -77.5 -2t-87.5 -14t-72 -38.5t-30 -75.5zM298 700h56l-79 -111h-44z" />
    <glyph glyph-name="acircumflex" unicode="&#xe2;" horiz-adv-x="513" 
d="M47 133q0 43 17 72t44 48t61 29.5t68.5 15.5t66 6t53.5 1h33v17q0 42 -10 70.5t-28.5 46t-43.5 25t-55 7.5q-33 0 -59 -7.5t-45 -16.5q-22 -11 -39 -24l-24 34q18 15 44 28q23 11 53.5 19t71.5 8q87 0 132 -47.5t45 -141.5v-323h-42v66q0 10 0.5 18.5t1.5 14.5q1 7 2 12
h-2l-9 -19t-29.5 -42.5t-54 -42.5t-82.5 -19q-30 0 -60.5 8.5t-55 26.5t-39.5 45.5t-15 64.5zM91 136q0 -20 8 -39.5t24 -35t40 -25t56 -9.5q41 0 73 19t53.5 49.5t33 68.5t11.5 75v27h-32q-32 0 -77.5 -2t-87.5 -14t-72 -38.5t-30 -75.5zM229 700h52l80 -111h-49l-56 80h-2
l-56 -80h-49z" />
    <glyph glyph-name="atilde" unicode="&#xe3;" horiz-adv-x="513" 
d="M47 133q0 43 17 72t44 48t61 29.5t68.5 15.5t66 6t53.5 1h33v17q0 42 -10 70.5t-28.5 46t-43.5 25t-55 7.5q-33 0 -59 -7.5t-45 -16.5q-22 -11 -39 -24l-24 34q18 15 44 28q23 11 53.5 19t71.5 8q87 0 132 -47.5t45 -141.5v-323h-42v66q0 10 0.5 18.5t1.5 14.5q1 7 2 12
h-2l-9 -19t-29.5 -42.5t-54 -42.5t-82.5 -19q-30 0 -60.5 8.5t-55 26.5t-39.5 45.5t-15 64.5zM91 136q0 -20 8 -39.5t24 -35t40 -25t56 -9.5q41 0 73 19t53.5 49.5t33 68.5t11.5 75v27h-32q-32 0 -77.5 -2t-87.5 -14t-72 -38.5t-30 -75.5zM111 592q0 108 83 108
q25 0 41.5 -11.5t29 -25.5t25 -25.5t30.5 -11.5q13 0 21 8t12 19t5.5 23t1.5 21h40q0 -108 -83 -108q-25 0 -41.5 11.5t-29 25.5t-25 25.5t-30.5 11.5q-13 0 -21 -8t-12 -19t-5.5 -23t-1.5 -21h-40z" />
    <glyph glyph-name="adieresis" unicode="&#xe4;" horiz-adv-x="513" 
d="M47 133q0 43 17 72t44 48t61 29.5t68.5 15.5t66 6t53.5 1h33v17q0 42 -10 70.5t-28.5 46t-43.5 25t-55 7.5q-33 0 -59 -7.5t-45 -16.5q-22 -11 -39 -24l-24 34q18 15 44 28q23 11 53.5 19t71.5 8q87 0 132 -47.5t45 -141.5v-323h-42v66q0 10 0.5 18.5t1.5 14.5q1 7 2 12
h-2l-9 -19t-29.5 -42.5t-54 -42.5t-82.5 -19q-30 0 -60.5 8.5t-55 26.5t-39.5 45.5t-15 64.5zM91 136q0 -20 8 -39.5t24 -35t40 -25t56 -9.5q41 0 73 19t53.5 49.5t33 68.5t11.5 75v27h-32q-32 0 -77.5 -2t-87.5 -14t-72 -38.5t-30 -75.5zM301 700h46v-73h-46v73zM164 700
h46v-73h-46v73z" />
    <glyph glyph-name="aring" unicode="&#xe5;" horiz-adv-x="513" 
d="M47 133q0 43 17 72t44 48t61 29.5t68.5 15.5t66 6t53.5 1h33v17q0 42 -10 70.5t-28.5 46t-43.5 25t-55 7.5q-33 0 -59 -7.5t-45 -16.5q-22 -11 -39 -24l-24 34q18 15 44 28q23 11 53.5 19t71.5 8q87 0 132 -47.5t45 -141.5v-323h-42v66q0 10 0.5 18.5t1.5 14.5q1 7 2 12
h-2l-9 -19t-29.5 -42.5t-54 -42.5t-82.5 -19q-30 0 -60.5 8.5t-55 26.5t-39.5 45.5t-15 64.5zM91 136q0 -20 8 -39.5t24 -35t40 -25t56 -9.5q41 0 73 19t53.5 49.5t33 68.5t11.5 75v27h-32q-32 0 -77.5 -2t-87.5 -14t-72 -38.5t-30 -75.5zM255 579q-29 0 -48 19t-19 48
t19 48t48 19t48 -19t19 -48t-19 -48t-48 -19zM255 614q14 0 23 9t9 23q0 15 -9 24t-23 9t-23 -9t-9 -24q0 -14 9 -23t23 -9z" />
    <glyph glyph-name="ae" unicode="&#xe6;" horiz-adv-x="878" 
d="M48 133q0 62 30.5 95.5t76 49.5t98 19t97.5 3h40v22q0 42 -10 70.5t-29 46t-44.5 25t-57.5 7.5t-57.5 -7.5t-43.5 -16.5q-21 -11 -38 -24l-24 34q18 15 43 28q22 11 52 19t70 8q79 0 119 -32t53 -85h2q31 59 82.5 88t115.5 29q50 0 87.5 -18t63 -48.5t38.5 -71t13 -85.5
q0 -7 -1 -18q0 -5 -1 -10h-391q0 -56 15.5 -99.5t42.5 -73t64.5 -44.5t81.5 -15q36 0 64.5 10t49.5 22q23 13 41 31l23 -35q-21 -19 -48 -34q-25 -15 -57 -25t-73 -10q-78 0 -138 40.5t-87 112.5h-2q-2 -10 -12.5 -35t-32.5 -51.5t-57.5 -46.5t-86.5 -20q-34 0 -65 9
t-55 27.5t-38 45.5t-14 63zM781 300q-2 46 -16 78.5t-36.5 53.5t-50.5 30.5t-58 9.5q-69 0 -120 -42.5t-64 -129.5h345zM92 136q0 -21 8 -40.5t24.5 -35t40.5 -24.5t55 -9q41 0 72.5 19t53.5 49.5t33 68.5t11 75v22h-69q-34 0 -74.5 -3t-74.5 -15.5t-57 -37.5t-23 -69z" />
    <glyph glyph-name="ccedilla" unicode="&#xe7;" horiz-adv-x="552" 
d="M54 249q0 60 21 108.5t56 83t82 53t99 18.5q45 0 78.5 -11t55.5 -24q26 -16 45 -36l-26 -34q-17 18 -40 32q-22 13 -49.5 22.5t-63.5 9.5q-44 0 -83 -15.5t-68 -44.5t-46 -70t-17 -92q0 -50 17 -90.5t46 -69.5t68 -44.5t83 -15.5q42 0 73 11t52 25q24 16 42 36l22 -35
q-20 -21 -47 -38q-25 -16 -58.5 -27.5t-78.5 -12.5l-9 -48q31 -5 50 -23t19 -45q0 -41 -28 -58.5t-63 -17.5q-10 0 -18 0.5t-14 1.5q-7 1 -12 2v38q5 -1 12 -3q6 -1 13 -1.5t16 -0.5q20 0 37 7.5t17 29.5q0 17 -16 27.5t-45 10.5q-4 0 -8 -1h-4l18 83q-48 5 -89.5 25
t-72.5 53.5t-48.5 79.5t-17.5 101z" />
    <glyph glyph-name="egrave" unicode="&#xe8;" horiz-adv-x="553" 
d="M53 249q0 63 20 112t53.5 82.5t77.5 51t92 17.5q51 0 89.5 -18.5t64 -50t38 -73t12.5 -86.5q0 -7 -1 -18q0 -4 -1 -9h-401q0 -54 17 -96.5t46.5 -72t68.5 -44.5t82 -15q36 0 64.5 10t49.5 22q23 13 41 31l23 -35q-21 -19 -48 -34q-25 -15 -57 -25t-73 -10
q-53 0 -100 18.5t-82 52.5t-55.5 82t-20.5 108zM456 296q-2 46 -15.5 79.5t-35.5 55t-50.5 32t-59.5 10.5q-34 0 -66.5 -11t-58.5 -33.5t-44.5 -55.5t-25.5 -77h356zM198 700h56l67 -111h-44z" />
    <glyph glyph-name="eacute" unicode="&#xe9;" horiz-adv-x="553" 
d="M53 249q0 63 20 112t53.5 82.5t77.5 51t92 17.5q51 0 89.5 -18.5t64 -50t38 -73t12.5 -86.5q0 -7 -1 -18q0 -4 -1 -9h-401q0 -54 17 -96.5t46.5 -72t68.5 -44.5t82 -15q36 0 64.5 10t49.5 22q23 13 41 31l23 -35q-21 -19 -48 -34q-25 -15 -57 -25t-73 -10
q-53 0 -100 18.5t-82 52.5t-55.5 82t-20.5 108zM456 296q-2 46 -15.5 79.5t-35.5 55t-50.5 32t-59.5 10.5q-34 0 -66.5 -11t-58.5 -33.5t-44.5 -55.5t-25.5 -77h356zM342 700h56l-79 -111h-44z" />
    <glyph glyph-name="ecircumflex" unicode="&#xea;" horiz-adv-x="553" 
d="M53 249q0 63 20 112t53.5 82.5t77.5 51t92 17.5q51 0 89.5 -18.5t64 -50t38 -73t12.5 -86.5q0 -7 -1 -18q0 -4 -1 -9h-401q0 -54 17 -96.5t46.5 -72t68.5 -44.5t82 -15q36 0 64.5 10t49.5 22q23 13 41 31l23 -35q-21 -19 -48 -34q-25 -15 -57 -25t-73 -10
q-53 0 -100 18.5t-82 52.5t-55.5 82t-20.5 108zM456 296q-2 46 -15.5 79.5t-35.5 55t-50.5 32t-59.5 10.5q-34 0 -66.5 -11t-58.5 -33.5t-44.5 -55.5t-25.5 -77h356zM272 700h52l80 -111h-49l-56 80h-2l-56 -80h-49z" />
    <glyph glyph-name="edieresis" unicode="&#xeb;" horiz-adv-x="553" 
d="M53 249q0 63 20 112t53.5 82.5t77.5 51t92 17.5q51 0 89.5 -18.5t64 -50t38 -73t12.5 -86.5q0 -7 -1 -18q0 -4 -1 -9h-401q0 -54 17 -96.5t46.5 -72t68.5 -44.5t82 -15q36 0 64.5 10t49.5 22q23 13 41 31l23 -35q-21 -19 -48 -34q-25 -15 -57 -25t-73 -10
q-53 0 -100 18.5t-82 52.5t-55.5 82t-20.5 108zM456 296q-2 46 -15.5 79.5t-35.5 55t-50.5 32t-59.5 10.5q-34 0 -66.5 -11t-58.5 -33.5t-44.5 -55.5t-25.5 -77h356zM344 700h46v-73h-46v73zM207 700h46v-73h-46v73z" />
    <glyph glyph-name="igrave" unicode="&#xec;" horiz-adv-x="218" 
d="M88 500h42v-500h-42v500zM9 700h56l67 -111h-44z" />
    <glyph glyph-name="iacute" unicode="&#xed;" horiz-adv-x="218" 
d="M88 500h42v-500h-42v500zM154 700h56l-79 -111h-44z" />
    <glyph glyph-name="icircumflex" unicode="&#xee;" horiz-adv-x="218" 
d="M88 500h42v-500h-42v500zM84 700h52l80 -111h-49l-56 80h-2l-56 -80h-49z" />
    <glyph glyph-name="idieresis" unicode="&#xef;" horiz-adv-x="218" 
d="M88 500h42v-500h-42v500zM156 700h46v-73h-46v73zM19 700h46v-73h-46v73z" />
    <glyph glyph-name="eth" unicode="&#xf0;" horiz-adv-x="589" 
d="M55 230q0 45 15 88t45 76t75.5 53.5t105.5 20.5q42 0 72 -10.5t50 -22.5q24 -15 40 -33h2q-20 61 -54.5 105.5t-82.5 77.5l-172 -80l-17 37l146 68q-34 18 -72.5 32t-80.5 25l12 38q45 -11 93.5 -28.5t94.5 -45.5l123 58l17 -37l-101 -47q33 -25 61.5 -58t49.5 -75
t33 -92t12 -110q0 -50 -14 -100t-44 -90.5t-75.5 -66t-108.5 -25.5q-54 0 -96 21t-70.5 55t-43.5 77.5t-15 88.5zM99 230q0 -38 12.5 -74.5t35.5 -65t57.5 -45.5t77.5 -17q51 0 88 22t61 56t35.5 75.5t11.5 81.5q0 36 -13 66t-37 52t-58 34.5t-75 12.5q-50 0 -87 -17
t-61 -45t-36 -63.5t-12 -72.5z" />
    <glyph glyph-name="ntilde" unicode="&#xf1;" horiz-adv-x="586" 
d="M88 500h42v-88q0 -9 -0.5 -16.5t-1.5 -12.5q-1 -7 -2 -12h2q6 18 22.5 42t43 46t63 37.5t83.5 15.5q49 0 81 -14t50.5 -39.5t26 -61.5t7.5 -80v-317h-42v302q0 33 -3.5 63.5t-16 54t-37 37.5t-66.5 14q-35 0 -67.5 -12t-59.5 -33t-46.5 -50t-28.5 -64q-5 -16 -6.5 -33
t-1.5 -35v-244h-42v500zM164 592q0 108 83 108q25 0 41.5 -11.5t29 -25.5t25 -25.5t30.5 -11.5q13 0 21 8t12 19t5.5 23t1.5 21h40q0 -108 -83 -108q-25 0 -41.5 11.5t-29 25.5t-25 25.5t-30.5 11.5q-13 0 -21 -8t-12 -19t-5.5 -23t-1.5 -21h-40z" />
    <glyph glyph-name="ograve" unicode="&#xf2;" horiz-adv-x="620" 
d="M51 253q0 55 20.5 102t55.5 82t82 55t101 20t101 -20t82 -55t55.5 -82t20.5 -102q0 -56 -20.5 -104.5t-55.5 -84t-82 -56t-101 -20.5t-101 20.5t-82 56t-55.5 84t-20.5 104.5zM95 253q0 -48 17 -89t46 -71t68 -47t84 -17t84 17t68 47t46 71t17 89q0 47 -17 86.5t-46 69
t-68 46t-84 16.5t-84 -16.5t-68 -46t-46 -69t-17 -86.5zM209 700h56l67 -111h-44z" />
    <glyph glyph-name="oacute" unicode="&#xf3;" horiz-adv-x="620" 
d="M51 253q0 55 20.5 102t55.5 82t82 55t101 20t101 -20t82 -55t55.5 -82t20.5 -102q0 -56 -20.5 -104.5t-55.5 -84t-82 -56t-101 -20.5t-101 20.5t-82 56t-55.5 84t-20.5 104.5zM95 253q0 -48 17 -89t46 -71t68 -47t84 -17t84 17t68 47t46 71t17 89q0 47 -17 86.5t-46 69
t-68 46t-84 16.5t-84 -16.5t-68 -46t-46 -69t-17 -86.5zM354 700h56l-79 -111h-44z" />
    <glyph glyph-name="ocircumflex" unicode="&#xf4;" horiz-adv-x="620" 
d="M51 253q0 55 20.5 102t55.5 82t82 55t101 20t101 -20t82 -55t55.5 -82t20.5 -102q0 -56 -20.5 -104.5t-55.5 -84t-82 -56t-101 -20.5t-101 20.5t-82 56t-55.5 84t-20.5 104.5zM95 253q0 -48 17 -89t46 -71t68 -47t84 -17t84 17t68 47t46 71t17 89q0 47 -17 86.5t-46 69
t-68 46t-84 16.5t-84 -16.5t-68 -46t-46 -69t-17 -86.5zM284 700h52l80 -111h-49l-56 80h-2l-56 -80h-49z" />
    <glyph glyph-name="otilde" unicode="&#xf5;" horiz-adv-x="620" 
d="M51 253q0 55 20.5 102t55.5 82t82 55t101 20t101 -20t82 -55t55.5 -82t20.5 -102q0 -56 -20.5 -104.5t-55.5 -84t-82 -56t-101 -20.5t-101 20.5t-82 56t-55.5 84t-20.5 104.5zM95 253q0 -48 17 -89t46 -71t68 -47t84 -17t84 17t68 47t46 71t17 89q0 47 -17 86.5t-46 69
t-68 46t-84 16.5t-84 -16.5t-68 -46t-46 -69t-17 -86.5zM166 592q0 108 83 108q25 0 41.5 -11.5t29 -25.5t25 -25.5t30.5 -11.5q13 0 21 8t12 19t5.5 23t1.5 21h40q0 -108 -83 -108q-25 0 -41.5 11.5t-29 25.5t-25 25.5t-30.5 11.5q-13 0 -21 -8t-12 -19t-5.5 -23t-1.5 -21
h-40z" />
    <glyph glyph-name="odieresis" unicode="&#xf6;" horiz-adv-x="620" 
d="M51 253q0 55 20.5 102t55.5 82t82 55t101 20t101 -20t82 -55t55.5 -82t20.5 -102q0 -56 -20.5 -104.5t-55.5 -84t-82 -56t-101 -20.5t-101 20.5t-82 56t-55.5 84t-20.5 104.5zM95 253q0 -48 17 -89t46 -71t68 -47t84 -17t84 17t68 47t46 71t17 89q0 47 -17 86.5t-46 69
t-68 46t-84 16.5t-84 -16.5t-68 -46t-46 -69t-17 -86.5zM356 700h46v-73h-46v73zM219 700h46v-73h-46v73z" />
    <glyph glyph-name="divide" unicode="&#xf7;" horiz-adv-x="662" 
d="M302 490h57v-59h-57v59zM93 303h476v-40h-476v40zM302 135h57v-59h-57v59z" />
    <glyph glyph-name="oslash" unicode="&#xf8;" horiz-adv-x="622" 
d="M52 253q0 55 20.5 102t55.5 82t82 55t101 20q38 0 73 -10t65 -29l38 53l34 -26l-38 -53q40 -35 63.5 -85t23.5 -109q0 -56 -20.5 -104.5t-55.5 -84t-82 -56t-101 -20.5q-72 0 -130 35l-37 -52l-34 26l36 51q-44 36 -69 89t-25 116zM96 253q0 -53 20 -96.5t54 -74.5
l255 357q-25 15 -53.5 23.5t-60.5 8.5q-45 0 -84 -16.5t-68 -46t-46 -69t-17 -86.5zM526 253q0 48 -18 89t-50 70l-253 -355q48 -28 106 -28q45 0 84 17t68 47t46 71t17 89z" />
    <glyph glyph-name="ugrave" unicode="&#xf9;" horiz-adv-x="581" 
d="M81 500h42v-302q0 -33 3.5 -63.5t16 -54t37 -37.5t66.5 -14q47 0 85 19t64.5 50.5t41 72.5t14.5 85v244h42v-500h-42v88q0 9 0.5 16.5t1.5 12.5q1 7 2 12h-2q-6 -18 -22.5 -42t-42 -46t-61.5 -37.5t-81 -15.5q-92 0 -128.5 50t-36.5 145v317zM187 700h56l67 -111h-44z
" />
    <glyph glyph-name="uacute" unicode="&#xfa;" horiz-adv-x="581" 
d="M81 500h42v-302q0 -33 3.5 -63.5t16 -54t37 -37.5t66.5 -14q47 0 85 19t64.5 50.5t41 72.5t14.5 85v244h42v-500h-42v88q0 9 0.5 16.5t1.5 12.5q1 7 2 12h-2q-6 -18 -22.5 -42t-42 -46t-61.5 -37.5t-81 -15.5q-92 0 -128.5 50t-36.5 145v317zM331 700h56l-79 -111h-44z
" />
    <glyph glyph-name="ucircumflex" unicode="&#xfb;" horiz-adv-x="581" 
d="M81 500h42v-302q0 -33 3.5 -63.5t16 -54t37 -37.5t66.5 -14q47 0 85 19t64.5 50.5t41 72.5t14.5 85v244h42v-500h-42v88q0 9 0.5 16.5t1.5 12.5q1 7 2 12h-2q-6 -18 -22.5 -42t-42 -46t-61.5 -37.5t-81 -15.5q-92 0 -128.5 50t-36.5 145v317zM261 700h52l80 -111h-49
l-56 80h-2l-56 -80h-49z" />
    <glyph glyph-name="udieresis" unicode="&#xfc;" horiz-adv-x="581" 
d="M81 500h42v-302q0 -33 3.5 -63.5t16 -54t37 -37.5t66.5 -14q47 0 85 19t64.5 50.5t41 72.5t14.5 85v244h42v-500h-42v88q0 9 0.5 16.5t1.5 12.5q1 7 2 12h-2q-6 -18 -22.5 -42t-42 -46t-61.5 -37.5t-81 -15.5q-92 0 -128.5 50t-36.5 145v317zM333 700h46v-73h-46v73z
M196 700h46v-73h-46v73z" />
    <glyph glyph-name="yacute" unicode="&#xfd;" horiz-adv-x="489" 
d="M27 -146q8 -7 18 -12q9 -5 20 -8.5t24 -3.5q36 0 59.5 27.5t38.5 62.5l36 83l-207 497h45l165 -399q4 -9 7 -17.5t6 -14.5q3 -8 5 -15h2q2 7 5 15q2 7 5 15t7 17l165 399h45l-257 -617q-17 -39 -48 -66t-79 -27q-18 0 -33 4.5t-25 9.5q-13 6 -23 14zM289 700h56l-79 -111
h-44z" />
    <glyph glyph-name="thorn" unicode="&#xfe;" horiz-adv-x="579" 
d="M88 700h42v-255v-16v-13q-1 -6 -1 -11h2q13 30 37 54q21 21 55 37t86 16q50 0 90 -19t68 -53.5t43 -83t15 -106.5q0 -60 -16.5 -108t-46 -82.5t-70.5 -53t-89 -18.5q-49 0 -82 17t-53 37q-24 24 -38 54h-2q1 -5 1 -12q0 -6 0.5 -14t0.5 -18v-252h-42v900zM129 249
q0 -42 11.5 -81.5t33.5 -70.5t54.5 -50t74.5 -19q37 0 69.5 15t56.5 43.5t38 70t14 93.5q0 51 -13 91.5t-36 69.5t-55 44.5t-70 15.5q-34 0 -66.5 -12.5t-57 -39.5t-39.5 -69t-15 -101z" />
    <glyph glyph-name="ydieresis" unicode="&#xff;" horiz-adv-x="489" 
d="M27 -146q8 -7 18 -12q9 -5 20 -8.5t24 -3.5q36 0 59.5 27.5t38.5 62.5l36 83l-207 497h45l165 -399q4 -9 7 -17.5t6 -14.5q3 -8 5 -15h2q2 7 5 15q2 7 5 15t7 17l165 399h45l-257 -617q-17 -39 -48 -66t-79 -27q-18 0 -33 4.5t-25 9.5q-13 6 -23 14zM291 700h46v-73h-46
v73zM154 700h46v-73h-46v73z" />
    <glyph glyph-name="Amacron" unicode="&#x100;" horiz-adv-x="606" 
d="M451 242h-297l-90 -242h-46l262 700h46l262 -700h-46zM302 650q-4 -16 -9 -31q-4 -14 -8.5 -28t-8.5 -25l-107 -284h267l-106 284q-4 11 -8.5 25.5t-8.5 27.5q-5 15 -9 31h-2zM184 826h239v-40h-239v40z" />
    <glyph glyph-name="amacron" unicode="&#x101;" horiz-adv-x="513" 
d="M47 133q0 43 17 72t44 48t61 29.5t68.5 15.5t66 6t53.5 1h33v17q0 42 -10 70.5t-28.5 46t-43.5 25t-55 7.5q-33 0 -59 -7.5t-45 -16.5q-22 -11 -39 -24l-24 34q18 15 44 28q23 11 53.5 19t71.5 8q87 0 132 -47.5t45 -141.5v-323h-42v66q0 10 0.5 18.5t1.5 14.5q1 7 2 12
h-2l-9 -19t-29.5 -42.5t-54 -42.5t-82.5 -19q-30 0 -60.5 8.5t-55 26.5t-39.5 45.5t-15 64.5zM91 136q0 -20 8 -39.5t24 -35t40 -25t56 -9.5q41 0 73 19t53.5 49.5t33 68.5t11.5 75v27h-32q-32 0 -77.5 -2t-87.5 -14t-72 -38.5t-30 -75.5zM136 665h239v-40h-239v40z" />
    <glyph glyph-name="Abreve" unicode="&#x102;" horiz-adv-x="606" 
d="M451 242h-297l-90 -242h-46l262 700h46l262 -700h-46zM302 650q-4 -16 -9 -31q-4 -14 -8.5 -28t-8.5 -25l-107 -284h267l-106 284q-4 11 -8.5 25.5t-8.5 27.5q-5 15 -9 31h-2zM303 747q-19 0 -37 6t-32.5 18t-23 30.5t-8.5 43.5v16h40v-14q0 -33 18 -47.5t43 -14.5
q24 0 42.5 14.5t18.5 48.5v13h40v-16q0 -25 -8.5 -43.5t-23 -30.5t-32.5 -18t-37 -6z" />
    <glyph glyph-name="abreve" unicode="&#x103;" horiz-adv-x="513" 
d="M47 133q0 43 17 72t44 48t61 29.5t68.5 15.5t66 6t53.5 1h33v17q0 42 -10 70.5t-28.5 46t-43.5 25t-55 7.5q-33 0 -59 -7.5t-45 -16.5q-22 -11 -39 -24l-24 34q18 15 44 28q23 11 53.5 19t71.5 8q87 0 132 -47.5t45 -141.5v-323h-42v66q0 10 0.5 18.5t1.5 14.5q1 7 2 12
h-2l-9 -19t-29.5 -42.5t-54 -42.5t-82.5 -19q-30 0 -60.5 8.5t-55 26.5t-39.5 45.5t-15 64.5zM91 136q0 -20 8 -39.5t24 -35t40 -25t56 -9.5q41 0 73 19t53.5 49.5t33 68.5t11.5 75v27h-32q-32 0 -77.5 -2t-87.5 -14t-72 -38.5t-30 -75.5zM255 586q-19 0 -37 6t-32.5 18
t-23 30.5t-8.5 43.5v16h40v-14q0 -33 18 -47.5t43 -14.5q24 0 42.5 14.5t18.5 48.5v13h40v-16q0 -25 -8.5 -43.5t-23 -30.5t-32.5 -18t-37 -6z" />
    <glyph glyph-name="Aogonek" unicode="&#x104;" horiz-adv-x="606" 
d="M463 -113q0 22 9 41.5t22 34.5t26 25.5t20 15.5l-89 238h-297l-90 -242h-46l262 700h46l262 -700q-9 -6 -22.5 -17.5t-26 -26t-22 -31.5t-9.5 -34q0 -19 10.5 -30t23.5 -17q15 -7 34 -9l-9 -39q-29 3 -52 14q-21 9 -36.5 27t-15.5 50zM302 650q-4 -16 -9 -31
q-4 -14 -8.5 -28t-8.5 -25l-107 -284h267l-106 284q-4 11 -8.5 25.5t-8.5 27.5q-5 15 -9 31h-2z" />
    <glyph glyph-name="aogonek" unicode="&#x105;" horiz-adv-x="513" 
d="M47 133q0 43 17 72t44 48t61 29.5t68.5 15.5t66 6t53.5 1h33v17q0 42 -10 70.5t-28.5 46t-43.5 25t-55 7.5q-33 0 -59 -7.5t-45 -16.5q-22 -11 -39 -24l-24 34q18 15 44 28q23 11 53.5 19t71.5 8q87 0 132 -47.5t45 -141.5v-323q-9 -6 -22.5 -17.5t-26 -26t-22 -31.5
t-9.5 -34q0 -19 10.5 -30t23.5 -17q15 -7 34 -9l-9 -39q-29 3 -52 14q-21 9 -36.5 27t-15.5 50q0 26 12 47.5t27 37.5t28.5 25.5t15.5 10.5v53q0 10 0.5 18.5t0.5 14.5q0 7 1 12h-2l-8.5 -18.5t-29 -40.5t-53.5 -40.5t-82 -18.5q-30 0 -60.5 8.5t-55 26.5t-39.5 45.5
t-15 64.5zM91 136q0 -20 8 -39.5t24 -35t40 -25t56 -9.5q41 0 73 19t53.5 49.5t33 68.5t11.5 75v27h-32q-32 0 -77.5 -2t-87.5 -14t-72 -38.5t-30 -75.5z" />
    <glyph glyph-name="Cacute" unicode="&#x106;" horiz-adv-x="734" 
d="M61 355q0 76 26.5 141.5t73 113.5t110 75t137.5 27q63 0 109.5 -13.5t77.5 -30.5q37 -19 63 -44l-26 -32q-25 22 -59 40q-31 16 -71 27.5t-93 11.5q-64 0 -119.5 -24t-96.5 -66t-64 -100t-23 -126t23 -127.5t64 -103.5t97 -69.5t122 -25.5q57 0 100.5 15t74.5 33
q35 20 62 47l27 -30q-29 -30 -68 -53q-36 -22 -84 -37.5t-112 -15.5q-76 0 -140.5 29t-111.5 78.5t-73 116.5t-26 143zM447 861h56l-79 -111h-44z" />
    <glyph glyph-name="cacute" unicode="&#x107;" horiz-adv-x="551" 
d="M53 249q0 60 21 108.5t56 83t82 53t99 18.5q45 0 78.5 -11t55.5 -24q26 -16 45 -36l-26 -34q-17 18 -40 32q-22 13 -49.5 22.5t-63.5 9.5q-44 0 -83 -15.5t-68 -44.5t-46 -70t-17 -92q0 -50 17 -90.5t46 -69.5t68 -44.5t83 -15.5q42 0 73 11t52 25q24 16 42 36l22 -35
q-20 -22 -48 -39q-25 -16 -59.5 -27.5t-81.5 -11.5q-53 0 -100 18.5t-82 52.5t-55.5 82t-20.5 108zM337 700h56l-79 -111h-44z" />
    <glyph glyph-name="Ccircumflex" unicode="&#x108;" horiz-adv-x="734" 
d="M61 355q0 76 26.5 141.5t73 113.5t110 75t137.5 27q63 0 109.5 -13.5t77.5 -30.5q37 -19 63 -44l-26 -32q-25 22 -59 40q-31 16 -71 27.5t-93 11.5q-64 0 -119.5 -24t-96.5 -66t-64 -100t-23 -126t23 -127.5t64 -103.5t97 -69.5t122 -25.5q57 0 100.5 15t74.5 33
q35 20 62 47l27 -30q-29 -30 -68 -53q-36 -22 -84 -37.5t-112 -15.5q-76 0 -140.5 29t-111.5 78.5t-73 116.5t-26 143zM377 861h52l80 -111h-49l-56 80h-2l-56 -80h-49z" />
    <glyph glyph-name="ccircumflex" unicode="&#x109;" horiz-adv-x="551" 
d="M53 249q0 60 21 108.5t56 83t82 53t99 18.5q45 0 78.5 -11t55.5 -24q26 -16 45 -36l-26 -34q-17 18 -40 32q-22 13 -49.5 22.5t-63.5 9.5q-44 0 -83 -15.5t-68 -44.5t-46 -70t-17 -92q0 -50 17 -90.5t46 -69.5t68 -44.5t83 -15.5q42 0 73 11t52 25q24 16 42 36l22 -35
q-20 -22 -48 -39q-25 -16 -59.5 -27.5t-81.5 -11.5q-53 0 -100 18.5t-82 52.5t-55.5 82t-20.5 108zM267 700h52l80 -111h-49l-56 80h-2l-56 -80h-49z" />
    <glyph glyph-name="Cdotaccent" unicode="&#x10a;" horiz-adv-x="734" 
d="M61 355q0 76 26.5 141.5t73 113.5t110 75t137.5 27q63 0 109.5 -13.5t77.5 -30.5q37 -19 63 -44l-26 -32q-25 22 -59 40q-31 16 -71 27.5t-93 11.5q-64 0 -119.5 -24t-96.5 -66t-64 -100t-23 -126t23 -127.5t64 -103.5t97 -69.5t122 -25.5q57 0 100.5 15t74.5 33
q35 20 62 47l27 -30q-29 -30 -68 -53q-36 -22 -84 -37.5t-112 -15.5q-76 0 -140.5 29t-111.5 78.5t-73 116.5t-26 143zM380 861h46v-73h-46v73z" />
    <glyph glyph-name="cdotaccent" unicode="&#x10b;" horiz-adv-x="551" 
d="M53 249q0 60 21 108.5t56 83t82 53t99 18.5q45 0 78.5 -11t55.5 -24q26 -16 45 -36l-26 -34q-17 18 -40 32q-22 13 -49.5 22.5t-63.5 9.5q-44 0 -83 -15.5t-68 -44.5t-46 -70t-17 -92q0 -50 17 -90.5t46 -69.5t68 -44.5t83 -15.5q42 0 73 11t52 25q24 16 42 36l22 -35
q-20 -22 -48 -39q-25 -16 -59.5 -27.5t-81.5 -11.5q-53 0 -100 18.5t-82 52.5t-55.5 82t-20.5 108zM270 700h46v-73h-46v73z" />
    <glyph glyph-name="Ccaron" unicode="&#x10c;" horiz-adv-x="734" 
d="M61 355q0 76 26.5 141.5t73 113.5t110 75t137.5 27q63 0 109.5 -13.5t77.5 -30.5q37 -19 63 -44l-26 -32q-25 22 -59 40q-31 16 -71 27.5t-93 11.5q-64 0 -119.5 -24t-96.5 -66t-64 -100t-23 -126t23 -127.5t64 -103.5t97 -69.5t122 -25.5q57 0 100.5 15t74.5 33
q35 20 62 47l27 -30q-29 -30 -68 -53q-36 -22 -84 -37.5t-112 -15.5q-76 0 -140.5 29t-111.5 78.5t-73 116.5t-26 143zM297 861h49l56 -80h2l56 80h49l-80 -111h-52z" />
    <glyph glyph-name="ccaron" unicode="&#x10d;" horiz-adv-x="551" 
d="M53 249q0 60 21 108.5t56 83t82 53t99 18.5q45 0 78.5 -11t55.5 -24q26 -16 45 -36l-26 -34q-17 18 -40 32q-22 13 -49.5 22.5t-63.5 9.5q-44 0 -83 -15.5t-68 -44.5t-46 -70t-17 -92q0 -50 17 -90.5t46 -69.5t68 -44.5t83 -15.5q42 0 73 11t52 25q24 16 42 36l22 -35
q-20 -22 -48 -39q-25 -16 -59.5 -27.5t-81.5 -11.5q-53 0 -100 18.5t-82 52.5t-55.5 82t-20.5 108zM187 700h49l56 -80h2l56 80h49l-80 -111h-52z" />
    <glyph glyph-name="Dcaron" unicode="&#x10e;" horiz-adv-x="741" 
d="M108 700h220q78 0 142.5 -23.5t110 -68.5t71 -110t25.5 -148q0 -84 -25.5 -149t-71 -109.5t-110 -68t-142.5 -23.5h-220v700zM321 40q70 0 127 20t98 59.5t63.5 97.5t22.5 133t-22.5 133t-63.5 97t-98 59.5t-127 20.5h-170v-620h170zM236 861h49l56 -80h2l56 80h49
l-80 -111h-52z" />
    <glyph glyph-name="dcaron" unicode="&#x10f;" horiz-adv-x="610" 
d="M55 250q0 60 16.5 108t46.5 82.5t71 53t90 18.5q48 0 80.5 -17.5t53.5 -38.5q24 -25 39 -57h2q-1 5 -2 12q-1 6 -1.5 13t-0.5 16v260h42v-700h-42v63q0 9 0.5 16t1.5 12l2 10h-2q-14 -32 -39 -56q-22 -24 -56 -40.5t-86 -16.5q-50 0 -90 19t-68 53.5t-43 83t-15 106.5z
M99 250q0 -51 13 -91.5t36 -69.5t55 -44.5t70 -15.5q35 0 67 12.5t56.5 39.5t39.5 69t15 101q0 42 -10.5 81.5t-32.5 70t-54.5 49.5t-76.5 19q-37 0 -69.5 -15t-56.5 -43t-38 -69t-14 -94zM607 700q6 -25 6 -47t-5.5 -42.5t-16.5 -44.5h-39q8 22 13 40.5t5 37.5q0 27 -11 56
h48z" />
    <glyph glyph-name="Dcroat" unicode="&#x110;" horiz-adv-x="753" 
d="M60 373h60v327h220q78 0 142.5 -23.5t110 -68.5t71 -110t25.5 -148q0 -84 -25.5 -149t-71 -109.5t-110 -68t-142.5 -23.5h-220v333h-60v40zM333 40q70 0 127 20t98 59.5t63.5 97.5t22.5 133t-22.5 133t-63.5 97t-98 59.5t-127 20.5h-170v-287h183v-40h-183v-293h170z" />
    <glyph glyph-name="dcroat" unicode="&#x111;" horiz-adv-x="580" 
d="M317 609h133v91h42v-91h83v-40h-83v-569h-42v58q0 9 0.5 16t0.5 12t1 10h-2q-14 -30 -38 -54q-22 -22 -55.5 -38t-85.5 -16q-50 0 -90 19t-68 53.5t-43 83t-15 106.5q0 60 16.5 108t46.5 82.5t71 53t90 18.5q48 0 80 -17t53 -37q24 -24 38 -54h2q-1 5 -1 12q0 6 -0.5 13
t-0.5 16v124h-133v40zM99 250q0 -51 13 -91.5t36 -69.5t55 -44.5t70 -15.5q35 0 67 12.5t56.5 39.5t39.5 69t15 101q0 42 -10.5 81.5t-32.5 70.5t-54.5 50t-76.5 19q-37 0 -69.5 -15t-56.5 -43.5t-38 -69.5t-14 -94z" />
    <glyph glyph-name="Emacron" unicode="&#x112;" horiz-adv-x="571" 
d="M108 700h383v-40h-340v-287h279v-40h-279v-293h359v-40h-402v700zM193 826h239v-40h-239v40z" />
    <glyph glyph-name="emacron" unicode="&#x113;" horiz-adv-x="553" 
d="M53 249q0 63 20 112t53.5 82.5t77.5 51t92 17.5q51 0 89.5 -18.5t64 -50t38 -73t12.5 -86.5q0 -7 -1 -18q0 -4 -1 -9h-401q0 -54 17 -96.5t46.5 -72t68.5 -44.5t82 -15q36 0 64.5 10t49.5 22q23 13 41 31l23 -35q-21 -19 -48 -34q-25 -15 -57 -25t-73 -10
q-53 0 -100 18.5t-82 52.5t-55.5 82t-20.5 108zM456 296q-2 46 -15.5 79.5t-35.5 55t-50.5 32t-59.5 10.5q-34 0 -66.5 -11t-58.5 -33.5t-44.5 -55.5t-25.5 -77h356zM179 665h239v-40h-239v40z" />
    <glyph glyph-name="Ebreve" unicode="&#x114;" horiz-adv-x="571" 
d="M108 700h383v-40h-340v-287h279v-40h-279v-293h359v-40h-402v700zM312 747q-19 0 -37 6t-32.5 18t-23 30.5t-8.5 43.5v16h40v-14q0 -33 18 -47.5t43 -14.5q24 0 42.5 14.5t18.5 48.5v13h40v-16q0 -25 -8.5 -43.5t-23 -30.5t-32.5 -18t-37 -6z" />
    <glyph glyph-name="ebreve" unicode="&#x115;" horiz-adv-x="553" 
d="M53 249q0 63 20 112t53.5 82.5t77.5 51t92 17.5q51 0 89.5 -18.5t64 -50t38 -73t12.5 -86.5q0 -7 -1 -18q0 -4 -1 -9h-401q0 -54 17 -96.5t46.5 -72t68.5 -44.5t82 -15q36 0 64.5 10t49.5 22q23 13 41 31l23 -35q-21 -19 -48 -34q-25 -15 -57 -25t-73 -10
q-53 0 -100 18.5t-82 52.5t-55.5 82t-20.5 108zM456 296q-2 46 -15.5 79.5t-35.5 55t-50.5 32t-59.5 10.5q-34 0 -66.5 -11t-58.5 -33.5t-44.5 -55.5t-25.5 -77h356zM298 586q-19 0 -37 6t-32.5 18t-23 30.5t-8.5 43.5v16h40v-14q0 -33 18 -47.5t43 -14.5q24 0 42.5 14.5
t18.5 48.5v13h40v-16q0 -25 -8.5 -43.5t-23 -30.5t-32.5 -18t-37 -6z" />
    <glyph glyph-name="Edotaccent" unicode="&#x116;" horiz-adv-x="571" 
d="M108 700h383v-40h-340v-287h279v-40h-279v-293h359v-40h-402v700zM289 861h46v-73h-46v73z" />
    <glyph glyph-name="edotaccent" unicode="&#x117;" horiz-adv-x="553" 
d="M53 249q0 63 20 112t53.5 82.5t77.5 51t92 17.5q51 0 89.5 -18.5t64 -50t38 -73t12.5 -86.5q0 -7 -1 -18q0 -4 -1 -9h-401q0 -54 17 -96.5t46.5 -72t68.5 -44.5t82 -15q36 0 64.5 10t49.5 22q23 13 41 31l23 -35q-21 -19 -48 -34q-25 -15 -57 -25t-73 -10
q-53 0 -100 18.5t-82 52.5t-55.5 82t-20.5 108zM456 296q-2 46 -15.5 79.5t-35.5 55t-50.5 32t-59.5 10.5q-34 0 -66.5 -11t-58.5 -33.5t-44.5 -55.5t-25.5 -77h356zM275 700h46v-73h-46v73z" />
    <glyph glyph-name="Eogonek" unicode="&#x118;" horiz-adv-x="571" 
d="M108 700h383v-40h-340v-287h279v-40h-279v-293h359v-40q-9 -6 -22.5 -17.5t-26 -26t-22 -31.5t-9.5 -34q0 -19 10.5 -30t23.5 -17q15 -7 34 -9l-9 -39q-29 3 -52 14q-21 9 -36.5 27t-15.5 50q0 20 7.5 37t19 31.5t23.5 25t21 17.5v2h-348v700z" />
    <glyph glyph-name="eogonek" unicode="&#x119;" horiz-adv-x="554" 
d="M53 249q0 63 20 112t53.5 82.5t77.5 51t92 17.5q51 0 89.5 -18.5t64 -50t38 -73t12.5 -86.5q0 -7 -1 -18q0 -4 -1 -9h-401q0 -54 17 -96.5t46.5 -72t68.5 -44.5t82 -15q36 0 64.5 10t49.5 22q23 13 41 31l23 -35q-16 -16 -42.5 -33.5t-51 -37.5t-42.5 -43.5t-18 -51.5
q0 -19 10.5 -30t23.5 -17q15 -7 34 -9l-9 -39q-29 3 -52 14q-21 9 -36.5 27t-15.5 50q0 33 17 58.5t36 43.5v2q-15 -3 -32 -3q-53 0 -100 18.5t-82 52.5t-55.5 82t-20.5 108zM456 296q-2 46 -15.5 79.5t-35.5 55t-50.5 32t-59.5 10.5q-34 0 -66.5 -11t-58.5 -33.5
t-44.5 -55.5t-25.5 -77h356z" />
    <glyph glyph-name="Ecaron" unicode="&#x11a;" horiz-adv-x="571" 
d="M108 700h383v-40h-340v-287h279v-40h-279v-293h359v-40h-402v700zM206 861h49l56 -80h2l56 80h49l-80 -111h-52z" />
    <glyph glyph-name="ecaron" unicode="&#x11b;" horiz-adv-x="553" 
d="M53 249q0 63 20 112t53.5 82.5t77.5 51t92 17.5q51 0 89.5 -18.5t64 -50t38 -73t12.5 -86.5q0 -7 -1 -18q0 -4 -1 -9h-401q0 -54 17 -96.5t46.5 -72t68.5 -44.5t82 -15q36 0 64.5 10t49.5 22q23 13 41 31l23 -35q-21 -19 -48 -34q-25 -15 -57 -25t-73 -10
q-53 0 -100 18.5t-82 52.5t-55.5 82t-20.5 108zM456 296q-2 46 -15.5 79.5t-35.5 55t-50.5 32t-59.5 10.5q-34 0 -66.5 -11t-58.5 -33.5t-44.5 -55.5t-25.5 -77h356zM192 700h49l56 -80h2l56 80h49l-80 -111h-52z" />
    <glyph glyph-name="Gcircumflex" unicode="&#x11c;" horiz-adv-x="757" 
d="M61 350q0 76 26.5 142t73.5 115t111 77t138 28q60 0 105 -12.5t76 -26.5q37 -18 63 -40l-26 -33q-26 20 -59 36q-30 14 -69 24.5t-90 10.5q-66 0 -121.5 -24.5t-96 -68t-63.5 -102t-23 -126.5t22 -127t62 -102t94.5 -67.5t119.5 -24.5q57 0 101 18t75 40q37 25 64 57v135
h-125v40h168v-319h-43v61q0 9 1 21v9h-2q-26 -29 -61 -51q-33 -22 -76.5 -37t-101.5 -15q-73 0 -136 28t-109 77t-72 115t-26 142zM373 861h52l80 -111h-49l-56 80h-2l-56 -80h-49z" />
    <glyph glyph-name="gcircumflex" unicode="&#x11d;" horiz-adv-x="573" 
d="M119 -134q18 -10 40 -18q20 -7 43.5 -12t50.5 -5q40 0 75 10t60.5 31t40 53.5t14.5 77.5v58q0 9 0.5 16.5t1.5 12.5q1 7 2 12h-2q-23 -46 -64 -74t-104 -28q-49 0 -89.5 18.5t-70 52t-46 81.5t-16.5 106q0 59 15.5 106t43.5 80t67.5 50.5t88.5 17.5q54 0 87.5 -15.5
t52.5 -33.5q23 -22 34 -49h2q-1 2 -1 5q-2 7 -2 14v67h42v-497q0 -57 -19 -97.5t-51 -66t-73 -37.5t-86 -12q-42 0 -81 10t-76 29zM280 41q33 0 63 11t52.5 36.5t35.5 67t13 102.5q0 60 -13.5 101t-37 66t-55 35.5t-68.5 10.5q-81 0 -126 -55.5t-45 -157.5q0 -51 13 -91
t37 -68t57.5 -43t73.5 -15zM254 700h52l80 -111h-49l-56 80h-2l-56 -80h-49z" />
    <glyph glyph-name="Gbreve" unicode="&#x11e;" horiz-adv-x="757" 
d="M61 350q0 76 26.5 142t73.5 115t111 77t138 28q60 0 105 -12.5t76 -26.5q37 -18 63 -40l-26 -33q-26 20 -59 36q-30 14 -69 24.5t-90 10.5q-66 0 -121.5 -24.5t-96 -68t-63.5 -102t-23 -126.5t22 -127t62 -102t94.5 -67.5t119.5 -24.5q57 0 101 18t75 40q37 25 64 57v135
h-125v40h168v-319h-43v61q0 9 1 21v9h-2q-26 -29 -61 -51q-33 -22 -76.5 -37t-101.5 -15q-73 0 -136 28t-109 77t-72 115t-26 142zM399 747q-19 0 -37 6t-32.5 18t-23 30.5t-8.5 43.5v16h40v-14q0 -33 18 -47.5t43 -14.5q24 0 42.5 14.5t18.5 48.5v13h40v-16
q0 -25 -8.5 -43.5t-23 -30.5t-32.5 -18t-37 -6z" />
    <glyph glyph-name="gbreve" unicode="&#x11f;" horiz-adv-x="573" 
d="M119 -134q18 -10 40 -18q20 -7 43.5 -12t50.5 -5q40 0 75 10t60.5 31t40 53.5t14.5 77.5v58q0 9 0.5 16.5t1.5 12.5q1 7 2 12h-2q-23 -46 -64 -74t-104 -28q-49 0 -89.5 18.5t-70 52t-46 81.5t-16.5 106q0 59 15.5 106t43.5 80t67.5 50.5t88.5 17.5q54 0 87.5 -15.5
t52.5 -33.5q23 -22 34 -49h2q-1 2 -1 5q-2 7 -2 14v67h42v-497q0 -57 -19 -97.5t-51 -66t-73 -37.5t-86 -12q-42 0 -81 10t-76 29zM280 41q33 0 63 11t52.5 36.5t35.5 67t13 102.5q0 60 -13.5 101t-37 66t-55 35.5t-68.5 10.5q-81 0 -126 -55.5t-45 -157.5q0 -51 13 -91
t37 -68t57.5 -43t73.5 -15zM280 586q-19 0 -37 6t-32.5 18t-23 30.5t-8.5 43.5v16h40v-14q0 -33 18 -47.5t43 -14.5q24 0 42.5 14.5t18.5 48.5v13h40v-16q0 -25 -8.5 -43.5t-23 -30.5t-32.5 -18t-37 -6z" />
    <glyph glyph-name="Gdotaccent" unicode="&#x120;" horiz-adv-x="757" 
d="M61 350q0 76 26.5 142t73.5 115t111 77t138 28q60 0 105 -12.5t76 -26.5q37 -18 63 -40l-26 -33q-26 20 -59 36q-30 14 -69 24.5t-90 10.5q-66 0 -121.5 -24.5t-96 -68t-63.5 -102t-23 -126.5t22 -127t62 -102t94.5 -67.5t119.5 -24.5q57 0 101 18t75 40q37 25 64 57v135
h-125v40h168v-319h-43v61q0 9 1 21v9h-2q-26 -29 -61 -51q-33 -22 -76.5 -37t-101.5 -15q-73 0 -136 28t-109 77t-72 115t-26 142zM376 861h46v-73h-46v73z" />
    <glyph glyph-name="gdotaccent" unicode="&#x121;" horiz-adv-x="573" 
d="M119 -134q18 -10 40 -18q20 -7 43.5 -12t50.5 -5q40 0 75 10t60.5 31t40 53.5t14.5 77.5v58q0 9 0.5 16.5t1.5 12.5q1 7 2 12h-2q-23 -46 -64 -74t-104 -28q-49 0 -89.5 18.5t-70 52t-46 81.5t-16.5 106q0 59 15.5 106t43.5 80t67.5 50.5t88.5 17.5q54 0 87.5 -15.5
t52.5 -33.5q23 -22 34 -49h2q-1 2 -1 5q-2 7 -2 14v67h42v-497q0 -57 -19 -97.5t-51 -66t-73 -37.5t-86 -12q-42 0 -81 10t-76 29zM280 41q33 0 63 11t52.5 36.5t35.5 67t13 102.5q0 60 -13.5 101t-37 66t-55 35.5t-68.5 10.5q-81 0 -126 -55.5t-45 -157.5q0 -51 13 -91
t37 -68t57.5 -43t73.5 -15zM257 700h46v-73h-46v73z" />
    <glyph glyph-name="Gcommaaccent" unicode="&#x122;" horiz-adv-x="757" 
d="M61 350q0 76 26.5 142t73.5 115t111 77t138 28q60 0 105 -12.5t76 -26.5q37 -18 63 -40l-26 -33q-26 20 -59 36q-30 14 -69 24.5t-90 10.5q-66 0 -121.5 -24.5t-96 -68t-63.5 -102t-23 -126.5t22 -127t62 -102t94.5 -67.5t119.5 -24.5q57 0 101 18t75 40q37 25 64 57v135
h-125v40h168v-319h-43v61q0 9 1 21v9h-2q-26 -29 -61 -51q-33 -22 -76.5 -37t-101.5 -15q-73 0 -136 28t-109 77t-72 115t-26 142zM428 -66q6 -26 6 -47q0 -22 -5.5 -42.5t-16.5 -44.5h-39q8 22 13 40.5t5 37.5q0 27 -11 56h48z" />
    <glyph glyph-name="gcommaaccent" unicode="&#x123;" horiz-adv-x="573" 
d="M119 -134q18 -10 40 -18q20 -7 43.5 -12t50.5 -5q40 0 75 10t60.5 31t40 53.5t14.5 77.5v58q0 9 0.5 16.5t1.5 12.5q1 7 2 12h-2q-23 -46 -64 -74t-104 -28q-49 0 -89.5 18.5t-70 52t-46 81.5t-16.5 106q0 59 15.5 106t43.5 80t67.5 50.5t88.5 17.5q54 0 87.5 -15.5
t52.5 -33.5q23 -22 34 -49h2q-1 2 -1 5q-2 7 -2 14v67h42v-497q0 -57 -19 -97.5t-51 -66t-73 -37.5t-86 -12q-42 0 -81 10t-76 29zM280 41q33 0 63 11t52.5 36.5t35.5 67t13 102.5q0 60 -13.5 101t-37 66t-55 35.5t-68.5 10.5q-81 0 -126 -55.5t-45 -157.5q0 -51 13 -91
t37 -68t57.5 -43t73.5 -15zM258 566q-6 26 -6 47q0 22 5.5 42.5t16.5 44.5h39q-8 -22 -13 -40.5t-5 -37.5q0 -27 11 -56h-48z" />
    <glyph glyph-name="Hcircumflex" unicode="&#x124;" horiz-adv-x="746" 
d="M108 700h43v-329h444v329h43v-700h-43v331h-444v-331h-43v700zM347 861h52l80 -111h-49l-56 80h-2l-56 -80h-49z" />
    <glyph glyph-name="hcircumflex" unicode="&#x125;" horiz-adv-x="586" 
d="M88 700h42v-288q0 -9 -0.5 -16.5t-1.5 -12.5q-1 -7 -2 -12h2q6 18 22.5 42t43 46t63 37.5t83.5 15.5q49 0 81 -14t50.5 -39.5t26 -61.5t7.5 -80v-317h-42v302q0 33 -3.5 63.5t-16 54t-37 37.5t-66.5 14q-35 0 -67.5 -12t-59.5 -33t-46.5 -50t-28.5 -64q-5 -16 -6.5 -33
t-1.5 -35v-244h-42v700zM84 861h52l80 -111h-49l-56 80h-2l-56 -80h-49z" />
    <glyph glyph-name="Hbar" unicode="&#x126;" horiz-adv-x="786" 
d="M128 511h-65v40h65v149h43v-149h444v149h43v-149h65v-40h-65v-511h-43v331h-444v-331h-43v511zM615 371v140h-444v-140h444z" />
    <glyph glyph-name="hbar" unicode="&#x127;" horiz-adv-x="586" 
d="M7 609h81v91h42v-91h133v-40h-133v-152q0 -9 -0.5 -16.5t-0.5 -12.5q0 -7 -1 -12h2q6 18 22 41.5t42.5 44.5t62.5 35.5t83 14.5q49 0 81 -14t50.5 -39.5t26 -61.5t7.5 -80v-317h-42v302q0 33 -3.5 63.5t-16 54t-37 37.5t-66.5 14q-35 0 -67.5 -12t-59.5 -33t-46.5 -50
t-28.5 -64q-5 -16 -6.5 -33t-1.5 -35v-244h-42v569h-81v40z" />
    <glyph glyph-name="Itilde" unicode="&#x128;" horiz-adv-x="259" 
d="M108 700h43v-700h-43v700zM-14 753q0 108 83 108q25 0 41.5 -11.5t29 -25.5t25 -25.5t30.5 -11.5q13 0 21 8t12 19t5.5 23t1.5 21h40q0 -108 -83 -108q-25 0 -41.5 11.5t-29 25.5t-25 25.5t-30.5 11.5q-13 0 -21 -8t-12 -19t-5.5 -23t-1.5 -21h-40z" />
    <glyph glyph-name="itilde" unicode="&#x129;" horiz-adv-x="218" 
d="M88 500h42v-500h-42v500zM-34 592q0 108 83 108q25 0 41.5 -11.5t29 -25.5t25 -25.5t30.5 -11.5q13 0 21 8t12 19t5.5 23t1.5 21h40q0 -108 -83 -108q-25 0 -41.5 11.5t-29 25.5t-25 25.5t-30.5 11.5q-13 0 -21 -8t-12 -19t-5.5 -23t-1.5 -21h-40z" />
    <glyph glyph-name="Imacron" unicode="&#x12a;" horiz-adv-x="259" 
d="M108 700h43v-700h-43v700zM11 826h239v-40h-239v40z" />
    <glyph glyph-name="imacron" unicode="&#x12b;" horiz-adv-x="218" 
d="M88 500h42v-500h-42v500zM-9 665h239v-40h-239v40z" />
    <glyph glyph-name="Ibreve" unicode="&#x12c;" horiz-adv-x="259" 
d="M108 700h43v-700h-43v700zM130 747q-19 0 -37 6t-32.5 18t-23 30.5t-8.5 43.5v16h40v-14q0 -33 18 -47.5t43 -14.5q24 0 42.5 14.5t18.5 48.5v13h40v-16q0 -25 -8.5 -43.5t-23 -30.5t-32.5 -18t-37 -6z" />
    <glyph glyph-name="ibreve" unicode="&#x12d;" horiz-adv-x="218" 
d="M88 500h42v-500h-42v500zM110 586q-19 0 -37 6t-32.5 18t-23 30.5t-8.5 43.5v16h40v-14q0 -33 18 -47.5t43 -14.5q24 0 42.5 14.5t18.5 48.5v13h40v-16q0 -25 -8.5 -43.5t-23 -30.5t-32.5 -18t-37 -6z" />
    <glyph glyph-name="Iogonek" unicode="&#x12e;" horiz-adv-x="259" 
d="M36 -113q0 25 10 46t23 37t24.5 25.5t14.5 11.5v693h43v-700q-8 -6 -20 -17.5t-23 -26t-19 -31.5t-8 -34q0 -19 10.5 -30t23.5 -17q15 -7 34 -9l-9 -39q-29 3 -52 14q-21 9 -36.5 27t-15.5 50z" />
    <glyph glyph-name="iogonek" unicode="&#x12f;" horiz-adv-x="218" 
d="M15 -113q0 26 10.5 47.5t24 37.5t25 25.5t13.5 10.5v492h42v-500q-8 -6 -20 -17.5t-23 -26t-19 -31.5t-8 -34q0 -19 10.5 -30t23.5 -17q15 -7 34 -9l-9 -39q-29 3 -52 14q-21 9 -36.5 27t-15.5 50zM84 700h50v-73h-50v73z" />
    <glyph glyph-name="Idotaccent" unicode="&#x130;" horiz-adv-x="259" 
d="M108 700h43v-700h-43v700zM107 861h46v-73h-46v73z" />
    <glyph glyph-name="dotlessi" unicode="&#x131;" horiz-adv-x="218" 
d="M88 500h42v-500h-42v500z" />
    <glyph glyph-name="IJ" unicode="&#x132;" horiz-adv-x="557" 
d="M260 37q26 0 53 6t49.5 25t37 55t14.5 95v482h43v-482q0 -70 -18 -113.5t-46.5 -68t-63.5 -33t-69 -8.5v42zM108 700h43v-700h-43v700z" />
    <glyph glyph-name="ij" unicode="&#x133;" horiz-adv-x="433" 
d="M84 700h50v-73h-50v73zM88 500h42v-500h-42v500zM345 500v-520q0 -62 -17.5 -99t-42.5 -56t-52.5 -24.5t-46.5 -5.5q-9 0 -18 1q-4 0 -7 1v39q3 -1 6 -1q8 -1 16 -1q15 0 35.5 4.5t39.5 19.5t32 44t13 77v521h42zM299 700h50v-73h-50v73z" />
    <glyph glyph-name="Jcircumflex" unicode="&#x134;" horiz-adv-x="513" 
d="M39 213h43v-23q0 -35 7.5 -60.5t20.5 -44.5q21 -30 52.5 -43t63.5 -13q26 0 51.5 8t46 27t33.5 50t13 76v470h-167v40h210v-509q0 -56 -16.5 -95t-43 -63t-60 -34.5t-67.5 -10.5t-67.5 10.5t-60 34.5t-43 63t-16.5 95v22zM282 861h52l80 -111h-49l-56 80h-2l-56 -80h-49z
" />
    <glyph glyph-name="jcircumflex" unicode="&#x135;" horiz-adv-x="218" 
d="M130 500v-520q0 -62 -17.5 -99t-42.5 -56t-52.5 -24.5t-46.5 -5.5q-9 0 -18 1q-4 0 -7 1v39q3 -1 6 -1q8 -1 16 -1q15 0 35.5 4.5t39.5 19.5t32 44t13 77v521h42zM79 700h52l80 -111h-49l-56 80h-2l-56 -80h-49z" />
    <glyph glyph-name="Kcommaaccent" unicode="&#x136;" horiz-adv-x="580" 
d="M108 700h43v-312h130l200 312h52l-215 -330v-2l229 -368h-52l-214 348h-130v-348h-43v700zM325 -66q6 -26 6 -47q0 -22 -5.5 -42.5t-16.5 -44.5h-39q8 22 13 40.5t5 37.5q0 27 -11 56h48z" />
    <glyph glyph-name="kcommaaccent" unicode="&#x137;" horiz-adv-x="480" 
d="M88 700h42v-397h89l162 197h55l-181 -215v-2l198 -283h-53l-181 264h-89v-264h-42v700zM274 -66q6 -26 6 -47q0 -22 -5.5 -42.5t-16.5 -44.5h-39q8 22 13 40.5t5 37.5q0 27 -11 56h48z" />
    <glyph glyph-name="kgreenlandic" unicode="&#x138;" horiz-adv-x="483" 
d="M88 500h42v-213h86l173 213h57l-191 -230v-2l188 -268h-55l-172 250h-86v-250h-42v500z" />
    <glyph glyph-name="Lacute" unicode="&#x139;" horiz-adv-x="509" 
d="M108 700h43v-660h334v-40h-377v700zM174 861h56l-79 -111h-44z" />
    <glyph glyph-name="lacute" unicode="&#x13a;" horiz-adv-x="230" 
d="M83 700h42v-586q0 -26 6 -41.5t15 -23.5t19 -10.5t19 -2.5q5 0 11 1h4v-39q-3 -1 -6 -1q-7 -1 -12 -1q-11 0 -27.5 3t-32.5 14t-27 32t-11 56v599zM150 861h56l-79 -111h-44z" />
    <glyph glyph-name="Lcommaaccent" unicode="&#x13b;" horiz-adv-x="509" 
d="M108 700h43v-660h334v-40h-377v700zM327 -66q6 -26 6 -47q0 -22 -5.5 -42.5t-16.5 -44.5h-39q8 22 13 40.5t5 37.5q0 27 -11 56h48z" />
    <glyph glyph-name="lcommaaccent" unicode="&#x13c;" horiz-adv-x="230" 
d="M83 700h42v-586q0 -26 6 -41.5t15 -23.5t19 -10.5t19 -2.5q5 0 11 1h4v-39q-3 -1 -6 -1q-7 -1 -12 -1q-11 0 -27.5 3t-32.5 14t-27 32t-11 56v599zM160 -66q6 -26 6 -47q0 -22 -5.5 -42.5t-16.5 -44.5h-39q8 22 13 40.5t5 37.5q0 27 -11 56h48z" />
    <glyph glyph-name="Lcaron" unicode="&#x13d;" horiz-adv-x="509" 
d="M108 700h43v-660h334v-40h-377v700zM296 700q6 -25 6 -47t-5.5 -42.5t-16.5 -44.5h-39q8 22 13 40.5t5 37.5q0 27 -11 56h48z" />
    <glyph glyph-name="lcaron" unicode="&#x13e;" horiz-adv-x="260" 
d="M83 700h42v-586q0 -26 6 -41.5t15 -23.5t19 -10.5t19 -2.5q5 0 11 1h4v-39q-3 -1 -6 -1q-7 -1 -12 -1q-11 0 -27.5 3t-32.5 14t-27 32t-11 56v599zM241 700q6 -25 6 -47t-5.5 -42.5t-16.5 -44.5h-39q8 22 13 40.5t5 37.5q0 27 -11 56h48z" />
    <glyph glyph-name="Ldot" unicode="&#x13f;" horiz-adv-x="509" 
d="M108 700h43v-660h334v-40h-377v700zM284 397h61v-63h-61v63z" />
    <glyph glyph-name="ldot" unicode="&#x140;" horiz-adv-x="264" 
d="M83 700h42v-586q0 -26 6 -41.5t15 -23.5t19 -10.5t19 -2.5q5 0 11 1h4v-39q-3 -1 -6 -1q-7 -1 -12 -1q-11 0 -27.5 3t-32.5 14t-27 32t-11 56v599zM190 397h61v-63h-61v63z" />
    <glyph glyph-name="Lslash" unicode="&#x141;" horiz-adv-x="535" 
d="M69 380l65 37v283h43v-258l115 67v-48l-115 -66v-355h334v-40h-377v370l-65 -37v47z" />
    <glyph glyph-name="lslash" unicode="&#x142;" horiz-adv-x="293" 
d="M36 380l89 51v269h42v-244l92 53v-48l-92 -53v-294q0 -26 6 -41.5t15 -23.5t19 -10.5t19 -2.5q5 0 11 1h4v-39q-3 -1 -6 -1q-7 -1 -12 -1q-11 0 -27.5 3t-32.5 14t-27 32t-11 56v283l-89 -51v47z" />
    <glyph glyph-name="Nacute" unicode="&#x143;" horiz-adv-x="752" 
d="M108 700h40l399 -549q9 -12 19 -27t18 -29l20 -32h2q-1 15 -2 31q-2 14 -2.5 29t-0.5 28v549h43v-700h-40l-399 549q-9 12 -19 27t-18 29l-20 32h-2q1 -15 3 -31q1 -14 1.5 -29t0.5 -28v-549h-43v700zM420 861h56l-79 -111h-44z" />
    <glyph glyph-name="nacute" unicode="&#x144;" horiz-adv-x="586" 
d="M88 500h42v-88q0 -9 -0.5 -16.5t-1.5 -12.5q-1 -7 -2 -12h2q6 18 22.5 42t43 46t63 37.5t83.5 15.5q49 0 81 -14t50.5 -39.5t26 -61.5t7.5 -80v-317h-42v302q0 33 -3.5 63.5t-16 54t-37 37.5t-66.5 14q-35 0 -67.5 -12t-59.5 -33t-46.5 -50t-28.5 -64q-5 -16 -6.5 -33
t-1.5 -35v-244h-42v500zM352 700h56l-79 -111h-44z" />
    <glyph glyph-name="Ncommaaccent" unicode="&#x145;" horiz-adv-x="752" 
d="M108 700h40l399 -549q9 -12 19 -27t18 -29l20 -32h2q-1 15 -2 31q-2 14 -2.5 29t-0.5 28v549h43v-700h-40l-399 549q-9 12 -19 27t-18 29l-20 32h-2q1 -15 3 -31q1 -14 1.5 -29t0.5 -28v-549h-43v700zM399 -66q6 -26 6 -47q0 -22 -5.5 -42.5t-16.5 -44.5h-39
q8 22 13 40.5t5 37.5q0 27 -11 56h48z" />
    <glyph glyph-name="ncommaaccent" unicode="&#x146;" horiz-adv-x="586" 
d="M88 500h42v-88q0 -9 -0.5 -16.5t-1.5 -12.5q-1 -7 -2 -12h2q6 18 22.5 42t43 46t63 37.5t83.5 15.5q49 0 81 -14t50.5 -39.5t26 -61.5t7.5 -80v-317h-42v302q0 33 -3.5 63.5t-16 54t-37 37.5t-66.5 14q-35 0 -67.5 -12t-59.5 -33t-46.5 -50t-28.5 -64q-5 -16 -6.5 -33
t-1.5 -35v-244h-42v500zM320 -66q6 -26 6 -47q0 -22 -5.5 -42.5t-16.5 -44.5h-39q8 22 13 40.5t5 37.5q0 27 -11 56h48z" />
    <glyph glyph-name="Ncaron" unicode="&#x147;" horiz-adv-x="752" 
d="M108 700h40l399 -549q9 -12 19 -27t18 -29l20 -32h2q-1 15 -2 31q-2 14 -2.5 29t-0.5 28v549h43v-700h-40l-399 549q-9 12 -19 27t-18 29l-20 32h-2q1 -15 3 -31q1 -14 1.5 -29t0.5 -28v-549h-43v700zM270 861h49l56 -80h2l56 80h49l-80 -111h-52z" />
    <glyph glyph-name="ncaron" unicode="&#x148;" horiz-adv-x="586" 
d="M88 500h42v-88q0 -9 -0.5 -16.5t-1.5 -12.5q-1 -7 -2 -12h2q6 18 22.5 42t43 46t63 37.5t83.5 15.5q49 0 81 -14t50.5 -39.5t26 -61.5t7.5 -80v-317h-42v302q0 33 -3.5 63.5t-16 54t-37 37.5t-66.5 14q-35 0 -67.5 -12t-59.5 -33t-46.5 -50t-28.5 -64q-5 -16 -6.5 -33
t-1.5 -35v-244h-42v500zM202 700h49l56 -80h2l56 80h49l-80 -111h-52z" />
    <glyph glyph-name="napostrophe" unicode="&#x149;" horiz-adv-x="586" 
d="M88 500h42v-88q0 -9 -0.5 -16.5t-1.5 -12.5q-1 -7 -2 -12h2q6 18 22.5 42t43 46t63 37.5t83.5 15.5q49 0 81 -14t50.5 -39.5t26 -61.5t7.5 -80v-317h-42v302q0 33 -3.5 63.5t-16 54t-37 37.5t-66.5 14q-35 0 -67.5 -12t-59.5 -33t-46.5 -50t-28.5 -64q-5 -16 -6.5 -33
t-1.5 -35v-244h-42v500zM80 700q6 -25 6 -47t-5.5 -42.5t-16.5 -44.5h-39q8 22 13 40.5t5 37.5q0 27 -11 56h48z" />
    <glyph glyph-name="Eng" unicode="&#x14a;" horiz-adv-x="752" 
d="M108 700h40l399 -549q9 -12 19 -27t18 -29l20 -32h2q-1 15 -2 31q-2 14 -2.5 29t-0.5 28v549h43v-702q0 -56 -16.5 -95t-43 -63t-60 -34.5t-67.5 -10.5v42q26 0 51.5 8t46 27.5t33.5 51.5t13 80l-396 545q-9 12 -19 27t-18 29l-20 32h-2q1 -15 3 -31q1 -14 1.5 -29
t0.5 -28v-549h-43v700z" />
    <glyph glyph-name="eng" unicode="&#x14b;" horiz-adv-x="586" 
d="M88 500h42v-83q0 -9 -0.5 -16.5t-0.5 -12.5q0 -7 -1 -12h2q6 18 22 41.5t42.5 44.5t62.5 35.5t83 14.5q49 0 81 -14t50.5 -39.5t26 -61.5t7.5 -80v-342q0 -62 -17.5 -99t-42.5 -56t-52.5 -24.5t-46.5 -5.5q-9 0 -18 1q-4 0 -7 1v39q3 -1 6 -1q8 -1 16 -1q15 0 35.5 4.5
t39.5 19.5t32 44t13 77v328q0 33 -3.5 63.5t-16 54t-37 37.5t-66.5 14q-35 0 -67.5 -12t-59.5 -33t-46.5 -50t-28.5 -64q-5 -16 -6.5 -33t-1.5 -35v-244h-42v500z" />
    <glyph glyph-name="Omacron" unicode="&#x14c;" horiz-adv-x="826" 
d="M59 355q0 75 28 140.5t76 113.5t112.5 75.5t137.5 27.5t137.5 -27.5t112.5 -75.5t76 -113.5t28 -140.5q0 -77 -28 -144t-76 -116.5t-112.5 -78t-137.5 -28.5t-137.5 28.5t-112.5 78t-76 116.5t-28 144zM104 355q0 -69 24 -128.5t66 -103.5t98.5 -69t120.5 -25t120.5 25
t98.5 69t66 103.5t24 128.5q0 67 -24 125t-66 100.5t-98.5 66.5t-120.5 24t-120.5 -24t-98.5 -66.5t-66 -100.5t-24 -125zM294 826h239v-40h-239v40z" />
    <glyph glyph-name="omacron" unicode="&#x14d;" horiz-adv-x="620" 
d="M51 253q0 55 20.5 102t55.5 82t82 55t101 20t101 -20t82 -55t55.5 -82t20.5 -102q0 -56 -20.5 -104.5t-55.5 -84t-82 -56t-101 -20.5t-101 20.5t-82 56t-55.5 84t-20.5 104.5zM95 253q0 -48 17 -89t46 -71t68 -47t84 -17t84 17t68 47t46 71t17 89q0 47 -17 86.5t-46 69
t-68 46t-84 16.5t-84 -16.5t-68 -46t-46 -69t-17 -86.5zM191 665h239v-40h-239v40z" />
    <glyph glyph-name="Obreve" unicode="&#x14e;" horiz-adv-x="826" 
d="M59 355q0 75 28 140.5t76 113.5t112.5 75.5t137.5 27.5t137.5 -27.5t112.5 -75.5t76 -113.5t28 -140.5q0 -77 -28 -144t-76 -116.5t-112.5 -78t-137.5 -28.5t-137.5 28.5t-112.5 78t-76 116.5t-28 144zM104 355q0 -69 24 -128.5t66 -103.5t98.5 -69t120.5 -25t120.5 25
t98.5 69t66 103.5t24 128.5q0 67 -24 125t-66 100.5t-98.5 66.5t-120.5 24t-120.5 -24t-98.5 -66.5t-66 -100.5t-24 -125zM413 747q-19 0 -37 6t-32.5 18t-23 30.5t-8.5 43.5v16h40v-14q0 -33 18 -47.5t43 -14.5q24 0 42.5 14.5t18.5 48.5v13h40v-16q0 -25 -8.5 -43.5
t-23 -30.5t-32.5 -18t-37 -6z" />
    <glyph glyph-name="obreve" unicode="&#x14f;" horiz-adv-x="620" 
d="M51 253q0 55 20.5 102t55.5 82t82 55t101 20t101 -20t82 -55t55.5 -82t20.5 -102q0 -56 -20.5 -104.5t-55.5 -84t-82 -56t-101 -20.5t-101 20.5t-82 56t-55.5 84t-20.5 104.5zM95 253q0 -48 17 -89t46 -71t68 -47t84 -17t84 17t68 47t46 71t17 89q0 47 -17 86.5t-46 69
t-68 46t-84 16.5t-84 -16.5t-68 -46t-46 -69t-17 -86.5zM310 586q-19 0 -37 6t-32.5 18t-23 30.5t-8.5 43.5v16h40v-14q0 -33 18 -47.5t43 -14.5q24 0 42.5 14.5t18.5 48.5v13h40v-16q0 -25 -8.5 -43.5t-23 -30.5t-32.5 -18t-37 -6z" />
    <glyph glyph-name="Ohungarumlaut" unicode="&#x150;" horiz-adv-x="826" 
d="M59 355q0 75 28 140.5t76 113.5t112.5 75.5t137.5 27.5t137.5 -27.5t112.5 -75.5t76 -113.5t28 -140.5q0 -77 -28 -144t-76 -116.5t-112.5 -78t-137.5 -28.5t-137.5 28.5t-112.5 78t-76 116.5t-28 144zM104 355q0 -69 24 -128.5t66 -103.5t98.5 -69t120.5 -25t120.5 25
t98.5 69t66 103.5t24 128.5q0 67 -24 125t-66 100.5t-98.5 66.5t-120.5 24t-120.5 -24t-98.5 -66.5t-66 -100.5t-24 -125zM500 861h56l-79 -111h-44zM380 861h50l-65 -111h-47z" />
    <glyph glyph-name="ohungarumlaut" unicode="&#x151;" horiz-adv-x="620" 
d="M51 253q0 55 20.5 102t55.5 82t82 55t101 20t101 -20t82 -55t55.5 -82t20.5 -102q0 -56 -20.5 -104.5t-55.5 -84t-82 -56t-101 -20.5t-101 20.5t-82 56t-55.5 84t-20.5 104.5zM95 253q0 -48 17 -89t46 -71t68 -47t84 -17t84 17t68 47t46 71t17 89q0 47 -17 86.5t-46 69
t-68 46t-84 16.5t-84 -16.5t-68 -46t-46 -69t-17 -86.5zM397 700h56l-79 -111h-44zM277 700h50l-65 -111h-47z" />
    <glyph glyph-name="OE" unicode="&#x152;" horiz-adv-x="947" 
d="M62 350q0 76 26 141.5t72.5 114t111 76.5t142.5 28q13 0 28.5 -1.5t31.5 -3.5t30.5 -3.5t25.5 -1.5h337v-40h-340v-287h279v-40h-279v-293h359v-40h-355q-10 0 -25 -1.5t-31 -3.5t-32 -3.5t-29 -1.5q-78 0 -142.5 27.5t-111 76t-72.5 114.5t-26 142zM107 350
q0 -68 22 -126.5t62 -101t97 -67t126 -24.5q14 0 26.5 1t22.5 3q11 2 21 4v622q-10 2 -21 4q-10 2 -22.5 3t-26.5 1q-69 0 -126 -24.5t-97 -67.5t-62 -101t-22 -126z" />
    <glyph glyph-name="oe" unicode="&#x153;" horiz-adv-x="1025" 
d="M52 249q0 60 21 108.5t56 83t82 53t99 18.5q77 0 140 -40t94 -109h2q29 73 89.5 111t132.5 38q51 0 89.5 -18.5t64 -50t38 -73t12.5 -86.5q0 -7 -1 -18q0 -4 -1 -9h-401q2 -56 19.5 -99t46.5 -71.5t67.5 -43t80.5 -14.5q36 0 64.5 10t49.5 22q23 13 41 31l23 -35
q-21 -19 -48 -34q-25 -15 -57 -25t-73 -10q-79 0 -142.5 39.5t-93.5 110.5h-2q-31 -71 -94 -110.5t-141 -39.5q-52 0 -99 18.5t-82 52.5t-56 82t-21 108zM928 296q-2 46 -15.5 79.5t-35.5 55t-50.5 32t-59.5 10.5q-34 0 -66.5 -11t-58.5 -33.5t-44.5 -55.5t-25.5 -77h356z
M96 249q0 -50 17 -90.5t46 -69.5t68 -44.5t83 -15.5t83 16t68.5 45t46.5 70.5t17 93.5q0 50 -17.5 90t-47 68t-68.5 43.5t-82 15.5q-44 0 -83 -16t-68 -45t-46 -70t-17 -91z" />
    <glyph glyph-name="Racute" unicode="&#x154;" horiz-adv-x="621" 
d="M108 700h205q49 0 77 -5t49 -16q44 -22 70.5 -65t26.5 -103q0 -75 -39 -127t-101 -66v-2q2 -2 5 -6q2 -3 5 -8t6 -11l157 -291h-51l-166 310h-201v-310h-43v700zM341 350q69 0 109.5 44.5t40.5 116.5q0 47 -22 82.5t-60 52.5q-15 7 -35.5 10.5t-62.5 3.5h-160v-310h190z
M342 861h56l-79 -111h-44z" />
    <glyph glyph-name="racute" unicode="&#x155;" horiz-adv-x="338" 
d="M88 500h42v-95q0 -9 -0.5 -16.5t-1.5 -12.5q-1 -7 -2 -12h2q9 29 24.5 54.5t35.5 44.5t45 30t55 11q9 0 20 -1q5 -1 9 -2v-42q-4 1 -7 1q-4 0 -8 0.5t-8 0.5q-29 0 -53 -11.5t-42.5 -31t-32 -44.5t-21.5 -53q-8 -26 -11.5 -53t-3.5 -52v-216h-42v500zM250 700h56
l-79 -111h-44z" />
    <glyph glyph-name="Rcommaaccent" unicode="&#x156;" horiz-adv-x="621" 
d="M108 700h205q49 0 77 -5t49 -16q44 -22 70.5 -65t26.5 -103q0 -75 -39 -127t-101 -66v-2q2 -2 5 -6q2 -3 5 -8t6 -11l157 -291h-51l-166 310h-201v-310h-43v700zM341 350q69 0 109.5 44.5t40.5 116.5q0 47 -22 82.5t-60 52.5q-15 7 -35.5 10.5t-62.5 3.5h-160v-310h190z
M341 -66q6 -26 6 -47q0 -22 -5.5 -42.5t-16.5 -44.5h-39q8 22 13 40.5t5 37.5q0 27 -11 56h48z" />
    <glyph glyph-name="rcommaaccent" unicode="&#x157;" horiz-adv-x="338" 
d="M88 500h42v-95q0 -9 -0.5 -16.5t-1.5 -12.5q-1 -7 -2 -12h2q9 29 24.5 54.5t35.5 44.5t45 30t55 11q9 0 20 -1q5 -1 9 -2v-42q-4 1 -7 1q-4 0 -8 0.5t-8 0.5q-29 0 -53 -11.5t-42.5 -31t-32 -44.5t-21.5 -53q-8 -26 -11.5 -53t-3.5 -52v-216h-42v500zM134 -66
q6 -26 6 -47q0 -22 -5.5 -42.5t-16.5 -44.5h-39q8 22 13 40.5t5 37.5q0 27 -11 56h48z" />
    <glyph glyph-name="Rcaron" unicode="&#x158;" horiz-adv-x="621" 
d="M108 700h205q49 0 77 -5t49 -16q44 -22 70.5 -65t26.5 -103q0 -75 -39 -127t-101 -66v-2q2 -2 5 -6q2 -3 5 -8t6 -11l157 -291h-51l-166 310h-201v-310h-43v700zM341 350q69 0 109.5 44.5t40.5 116.5q0 47 -22 82.5t-60 52.5q-15 7 -35.5 10.5t-62.5 3.5h-160v-310h190z
M192 861h49l56 -80h2l56 80h49l-80 -111h-52z" />
    <glyph glyph-name="rcaron" unicode="&#x159;" horiz-adv-x="338" 
d="M88 500h42v-95q0 -9 -0.5 -16.5t-1.5 -12.5q-1 -7 -2 -12h2q9 29 24.5 54.5t35.5 44.5t45 30t55 11q9 0 20 -1q5 -1 9 -2v-42q-4 1 -7 1q-4 0 -8 0.5t-8 0.5q-29 0 -53 -11.5t-42.5 -31t-32 -44.5t-21.5 -53q-8 -26 -11.5 -53t-3.5 -52v-216h-42v500zM100 700h49l56 -80
h2l56 80h49l-80 -111h-52z" />
    <glyph glyph-name="Sacute" unicode="&#x15a;" horiz-adv-x="530" 
d="M85 108q22 -22 50 -39q26 -16 59.5 -27.5t77.5 -11.5q33 0 61.5 10t49.5 28t33 43.5t12 56.5q0 50 -26.5 81t-66.5 53t-86 40t-86 42t-66.5 58t-26.5 89q0 35 15 67.5t42.5 58t66 40.5t86.5 15q43 0 76 -10t56 -22q26 -15 46 -33l-24 -37q-18 17 -42 30q-21 12 -48.5 21
t-62.5 9q-39 0 -70 -12t-52 -31.5t-32.5 -44t-11.5 -50.5q0 -46 26.5 -74.5t66.5 -49.5t86 -38.5t86 -42.5t66.5 -62t26.5 -95q0 -38 -14 -71t-40.5 -58t-64 -39t-84.5 -14q-52 0 -91.5 13.5t-67.5 30.5q-32 19 -55 43zM312 861h56l-79 -111h-44z" />
    <glyph glyph-name="sacute" unicode="&#x15b;" horiz-adv-x="436" 
d="M72 92q17 -18 40 -31q22 -13 50 -22.5t65 -9.5q23 0 44 6t36.5 18t25 29.5t9.5 40.5q0 32 -20.5 51.5t-51 34.5t-66 27.5t-66 30.5t-51 43.5t-20.5 66.5q0 33 13 58.5t35 42.5t51 25.5t61 8.5q38 0 66 -8.5t46 -18.5q22 -12 36 -27l-25 -34q-13 13 -31 24q-17 9 -40 16
t-55 7q-21 0 -41.5 -5t-36.5 -16t-25.5 -28.5t-9.5 -41.5q0 -32 20.5 -52.5t51 -35t66 -27.5t66 -30.5t51 -43.5t20.5 -68q0 -30 -12 -55t-33.5 -42.5t-50.5 -27.5t-64 -10q-46 0 -79.5 11t-56.5 25q-26 16 -45 36zM268 700h56l-79 -111h-44z" />
    <glyph glyph-name="Scircumflex" unicode="&#x15c;" horiz-adv-x="530" 
d="M85 108q22 -22 50 -39q26 -16 59.5 -27.5t77.5 -11.5q33 0 61.5 10t49.5 28t33 43.5t12 56.5q0 50 -26.5 81t-66.5 53t-86 40t-86 42t-66.5 58t-26.5 89q0 35 15 67.5t42.5 58t66 40.5t86.5 15q43 0 76 -10t56 -22q26 -15 46 -33l-24 -37q-18 17 -42 30q-21 12 -48.5 21
t-62.5 9q-39 0 -70 -12t-52 -31.5t-32.5 -44t-11.5 -50.5q0 -46 26.5 -74.5t66.5 -49.5t86 -38.5t86 -42.5t66.5 -62t26.5 -95q0 -38 -14 -71t-40.5 -58t-64 -39t-84.5 -14q-52 0 -91.5 13.5t-67.5 30.5q-32 19 -55 43zM243 861h52l80 -111h-49l-56 80h-2l-56 -80h-49z" />
    <glyph glyph-name="scircumflex" unicode="&#x15d;" horiz-adv-x="436" 
d="M72 92q17 -18 40 -31q22 -13 50 -22.5t65 -9.5q23 0 44 6t36.5 18t25 29.5t9.5 40.5q0 32 -20.5 51.5t-51 34.5t-66 27.5t-66 30.5t-51 43.5t-20.5 66.5q0 33 13 58.5t35 42.5t51 25.5t61 8.5q38 0 66 -8.5t46 -18.5q22 -12 36 -27l-25 -34q-13 13 -31 24q-17 9 -40 16
t-55 7q-21 0 -41.5 -5t-36.5 -16t-25.5 -28.5t-9.5 -41.5q0 -32 20.5 -52.5t51 -35t66 -27.5t66 -30.5t51 -43.5t20.5 -68q0 -30 -12 -55t-33.5 -42.5t-50.5 -27.5t-64 -10q-46 0 -79.5 11t-56.5 25q-26 16 -45 36zM199 700h52l80 -111h-49l-56 80h-2l-56 -80h-49z" />
    <glyph glyph-name="Scedilla" unicode="&#x15e;" horiz-adv-x="530" 
d="M85 108q22 -22 50 -39q26 -16 59.5 -27.5t77.5 -11.5q33 0 61.5 10t49.5 28t33 43.5t12 56.5q0 50 -26.5 81t-66.5 53t-86 40t-86 42t-66.5 58t-26.5 89q0 35 15 67.5t42.5 58t66 40.5t86.5 15q43 0 76 -10t56 -22q26 -15 46 -33l-24 -37q-18 17 -42 30q-21 12 -48.5 21
t-62.5 9q-39 0 -70 -12t-52 -31.5t-32.5 -44t-11.5 -50.5q0 -46 26.5 -74.5t66.5 -49.5t86 -38.5t86 -42.5t66.5 -62t26.5 -95q0 -36 -13 -68t-37.5 -56.5t-59 -39.5t-78.5 -17l-9 -49q31 -5 50 -23t19 -45q0 -41 -28 -58.5t-63 -17.5q-10 0 -18 0.5t-14 1.5q-7 1 -12 2v38
q5 -1 12 -3q6 -1 13 -1.5t16 -0.5q20 0 37 7.5t17 29.5q0 17 -16 27.5t-45 10.5q-4 0 -8 -1h-4l17 82q-47 3 -83 17t-60 29q-29 18 -50 40z" />
    <glyph glyph-name="scedilla" unicode="&#x15f;" horiz-adv-x="436" 
d="M72 92q17 -18 40 -31q22 -13 50 -22.5t65 -9.5q23 0 44 6t36.5 18t25 29.5t9.5 40.5q0 32 -20.5 51.5t-51 34.5t-66 27.5t-66 30.5t-51 43.5t-20.5 66.5q0 33 13 58.5t35 42.5t51 25.5t61 8.5q38 0 66 -8.5t46 -18.5q22 -12 36 -27l-25 -34q-13 13 -31 24q-17 9 -40 16
t-55 7q-21 0 -41.5 -5t-36.5 -16t-25.5 -28.5t-9.5 -41.5q0 -32 20.5 -52.5t51 -35t66 -27.5t66 -30.5t51 -43.5t20.5 -68q0 -28 -11 -52t-30.5 -41.5t-46.5 -28t-59 -12.5l-9 -49q31 -5 50 -23t19 -45q0 -41 -28 -58.5t-63 -17.5q-10 0 -18 0.5t-14 1.5q-7 1 -12 2v38
q5 -1 12 -3q6 -1 13 -1.5t16 -0.5q20 0 37 7.5t17 29.5q0 17 -16 27.5t-45 10.5q-4 0 -8 -1h-4l17 82q-40 3 -69.5 14.5t-49.5 24.5q-23 14 -39 32z" />
    <glyph glyph-name="Scaron" unicode="&#x160;" horiz-adv-x="530" 
d="M85 108q22 -22 50 -39q26 -16 59.5 -27.5t77.5 -11.5q33 0 61.5 10t49.5 28t33 43.5t12 56.5q0 50 -26.5 81t-66.5 53t-86 40t-86 42t-66.5 58t-26.5 89q0 35 15 67.5t42.5 58t66 40.5t86.5 15q43 0 76 -10t56 -22q26 -15 46 -33l-24 -37q-18 17 -42 30q-21 12 -48.5 21
t-62.5 9q-39 0 -70 -12t-52 -31.5t-32.5 -44t-11.5 -50.5q0 -46 26.5 -74.5t66.5 -49.5t86 -38.5t86 -42.5t66.5 -62t26.5 -95q0 -38 -14 -71t-40.5 -58t-64 -39t-84.5 -14q-52 0 -91.5 13.5t-67.5 30.5q-32 19 -55 43zM163 861h49l56 -80h2l56 80h49l-80 -111h-52z" />
    <glyph glyph-name="scaron" unicode="&#x161;" horiz-adv-x="436" 
d="M72 92q17 -18 40 -31q22 -13 50 -22.5t65 -9.5q23 0 44 6t36.5 18t25 29.5t9.5 40.5q0 32 -20.5 51.5t-51 34.5t-66 27.5t-66 30.5t-51 43.5t-20.5 66.5q0 33 13 58.5t35 42.5t51 25.5t61 8.5q38 0 66 -8.5t46 -18.5q22 -12 36 -27l-25 -34q-13 13 -31 24q-17 9 -40 16
t-55 7q-21 0 -41.5 -5t-36.5 -16t-25.5 -28.5t-9.5 -41.5q0 -32 20.5 -52.5t51 -35t66 -27.5t66 -30.5t51 -43.5t20.5 -68q0 -30 -12 -55t-33.5 -42.5t-50.5 -27.5t-64 -10q-46 0 -79.5 11t-56.5 25q-26 16 -45 36zM119 700h49l56 -80h2l56 80h49l-80 -111h-52z" />
    <glyph glyph-name="Tcommaaccent" unicode="&#x162;" horiz-adv-x="581" 
d="M269 660h-261v40h565v-40h-261v-660h-5l-11 -60q31 -5 50 -23t19 -45q0 -41 -28 -58.5t-63 -17.5q-10 0 -18 0.5t-14 1.5q-7 1 -12 2v38q5 -1 12 -3q6 -1 13 -1.5t16 -0.5q20 0 37 7.5t17 29.5q0 17 -16 27.5t-45 10.5q-4 0 -8 -1h-4l20 93h-3v660z" />
    <glyph glyph-name="tcommaaccent" unicode="&#x163;" horiz-adv-x="315" 
d="M105 459h-66v38h66v142h42v-142h131v-38h-131v-275q0 -49 13 -78.5t31.5 -45.5t39 -20.5t35.5 -4.5q9 0 17 1q3 0 6 1v-39q-3 -1 -7 -1q-3 0 -7.5 -0.5t-10.5 -0.5q-11 0 -25.5 1.5t-29.5 5.5l-11 -63q31 -5 50 -23t19 -45q0 -41 -28 -58.5t-63 -17.5q-10 0 -18 0.5
t-14 1.5q-7 1 -12 2v38q5 -1 12 -3q6 -1 13 -1.5t16 -0.5q20 0 37 7.5t17 29.5q0 17 -16 27.5t-45 10.5q-4 0 -8 -1h-4l24 110q-29 17 -51 55t-22 109v278z" />
    <glyph glyph-name="Tcaron" unicode="&#x164;" horiz-adv-x="581" 
d="M269 660h-261v40h565v-40h-261v-660h-43v660zM184 861h49l56 -80h2l56 80h49l-80 -111h-52z" />
    <glyph glyph-name="tcaron" unicode="&#x165;" horiz-adv-x="314" 
d="M104 459h-66v38h66v142h42v-142h131v-38h-131v-275q0 -49 13 -78.5t31.5 -45.5t39 -20.5t35.5 -4.5q9 0 17 1q3 0 6 1v-39q-3 -1 -7 -1q-3 0 -7.5 -0.5t-10.5 -0.5q-19 0 -46.5 5.5t-52.5 24.5t-42.5 56t-17.5 99v278zM267 700q6 -25 6 -47t-5.5 -42.5t-16.5 -44.5h-39
q8 22 13 40.5t5 37.5q0 27 -11 56h48z" />
    <glyph glyph-name="Tbar" unicode="&#x166;" horiz-adv-x="604" 
d="M114 377h166v283h-261v40h565v-40h-261v-283h170v-40h-170v-337h-43v337h-166v40z" />
    <glyph glyph-name="tbar" unicode="&#x167;" horiz-adv-x="339" 
d="M48 335h66v124h-66v38h66v142h42v-142h131v-38h-131v-124h131v-40h-131v-111q0 -49 13 -78.5t31.5 -45.5t39 -20.5t35.5 -4.5q9 0 17 1q3 0 6 1v-39q-3 -1 -7 -1q-3 0 -7.5 -0.5t-10.5 -0.5q-19 0 -46.5 5.5t-52.5 24.5t-42.5 56t-17.5 99v114h-66v40z" />
    <glyph glyph-name="Utilde" unicode="&#x168;" horiz-adv-x="719" 
d="M98 700h43v-458q0 -49 15.5 -88.5t44 -67.5t69 -42.5t89.5 -14.5q50 0 90 15t69 42.5t44.5 67.5t15.5 90v456h43v-460q0 -58 -19 -104.5t-53.5 -79.5t-82.5 -50.5t-106 -17.5t-106 17.5t-82.5 50.5t-54 79.5t-19.5 104.5v460zM215 753q0 108 83 108q25 0 41.5 -11.5
t29 -25.5t25 -25.5t30.5 -11.5q13 0 21 8t12 19t5.5 23t1.5 21h40q0 -108 -83 -108q-25 0 -41.5 11.5t-29 25.5t-25 25.5t-30.5 11.5q-13 0 -21 -8t-12 -19t-5.5 -23t-1.5 -21h-40z" />
    <glyph glyph-name="utilde" unicode="&#x169;" horiz-adv-x="581" 
d="M81 500h42v-302q0 -33 3.5 -63.5t16 -54t37 -37.5t66.5 -14q47 0 85 19t64.5 50.5t41 72.5t14.5 85v244h42v-500h-42v88q0 9 0.5 16.5t1.5 12.5q1 7 2 12h-2q-6 -18 -22.5 -42t-42 -46t-61.5 -37.5t-81 -15.5q-92 0 -128.5 50t-36.5 145v317zM143 592q0 108 83 108
q25 0 41.5 -11.5t29 -25.5t25 -25.5t30.5 -11.5q13 0 21 8t12 19t5.5 23t1.5 21h40q0 -108 -83 -108q-25 0 -41.5 11.5t-29 25.5t-25 25.5t-30.5 11.5q-13 0 -21 -8t-12 -19t-5.5 -23t-1.5 -21h-40z" />
    <glyph glyph-name="Umacron" unicode="&#x16a;" horiz-adv-x="719" 
d="M98 700h43v-458q0 -49 15.5 -88.5t44 -67.5t69 -42.5t89.5 -14.5q50 0 90 15t69 42.5t44.5 67.5t15.5 90v456h43v-460q0 -58 -19 -104.5t-53.5 -79.5t-82.5 -50.5t-106 -17.5t-106 17.5t-82.5 50.5t-54 79.5t-19.5 104.5v460zM240 826h239v-40h-239v40z" />
    <glyph glyph-name="umacron" unicode="&#x16b;" horiz-adv-x="581" 
d="M81 500h42v-302q0 -33 3.5 -63.5t16 -54t37 -37.5t66.5 -14q47 0 85 19t64.5 50.5t41 72.5t14.5 85v244h42v-500h-42v88q0 9 0.5 16.5t1.5 12.5q1 7 2 12h-2q-6 -18 -22.5 -42t-42 -46t-61.5 -37.5t-81 -15.5q-92 0 -128.5 50t-36.5 145v317zM168 665h239v-40h-239v40z
" />
    <glyph glyph-name="Ubreve" unicode="&#x16c;" horiz-adv-x="719" 
d="M98 700h43v-458q0 -49 15.5 -88.5t44 -67.5t69 -42.5t89.5 -14.5q50 0 90 15t69 42.5t44.5 67.5t15.5 90v456h43v-460q0 -58 -19 -104.5t-53.5 -79.5t-82.5 -50.5t-106 -17.5t-106 17.5t-82.5 50.5t-54 79.5t-19.5 104.5v460zM359 747q-19 0 -37 6t-32.5 18t-23 30.5
t-8.5 43.5v16h40v-14q0 -33 18 -47.5t43 -14.5q24 0 42.5 14.5t18.5 48.5v13h40v-16q0 -25 -8.5 -43.5t-23 -30.5t-32.5 -18t-37 -6z" />
    <glyph glyph-name="ubreve" unicode="&#x16d;" horiz-adv-x="581" 
d="M81 500h42v-302q0 -33 3.5 -63.5t16 -54t37 -37.5t66.5 -14q47 0 85 19t64.5 50.5t41 72.5t14.5 85v244h42v-500h-42v88q0 9 0.5 16.5t1.5 12.5q1 7 2 12h-2q-6 -18 -22.5 -42t-42 -46t-61.5 -37.5t-81 -15.5q-92 0 -128.5 50t-36.5 145v317zM287 586q-19 0 -37 6
t-32.5 18t-23 30.5t-8.5 43.5v16h40v-14q0 -33 18 -47.5t43 -14.5q24 0 42.5 14.5t18.5 48.5v13h40v-16q0 -25 -8.5 -43.5t-23 -30.5t-32.5 -18t-37 -6z" />
    <glyph glyph-name="Uring" unicode="&#x16e;" horiz-adv-x="719" 
d="M98 700h43v-458q0 -49 15.5 -88.5t44 -67.5t69 -42.5t89.5 -14.5q50 0 90 15t69 42.5t44.5 67.5t15.5 90v456h43v-460q0 -58 -19 -104.5t-53.5 -79.5t-82.5 -50.5t-106 -17.5t-106 17.5t-82.5 50.5t-54 79.5t-19.5 104.5v460zM359 740q-29 0 -48 19t-19 48t19 48t48 19
t48 -19t19 -48t-19 -48t-48 -19zM359 775q14 0 23 9t9 23q0 15 -9 24t-23 9t-23 -9t-9 -24q0 -14 9 -23t23 -9z" />
    <glyph glyph-name="uring" unicode="&#x16f;" horiz-adv-x="581" 
d="M81 500h42v-302q0 -33 3.5 -63.5t16 -54t37 -37.5t66.5 -14q47 0 85 19t64.5 50.5t41 72.5t14.5 85v244h42v-500h-42v88q0 9 0.5 16.5t1.5 12.5q1 7 2 12h-2q-6 -18 -22.5 -42t-42 -46t-61.5 -37.5t-81 -15.5q-92 0 -128.5 50t-36.5 145v317zM287 579q-29 0 -48 19
t-19 48t19 48t48 19t48 -19t19 -48t-19 -48t-48 -19zM287 614q14 0 23 9t9 23q0 15 -9 24t-23 9t-23 -9t-9 -24q0 -14 9 -23t23 -9z" />
    <glyph glyph-name="Uhungarumlaut" unicode="&#x170;" horiz-adv-x="719" 
d="M98 700h43v-458q0 -49 15.5 -88.5t44 -67.5t69 -42.5t89.5 -14.5q50 0 90 15t69 42.5t44.5 67.5t15.5 90v456h43v-460q0 -58 -19 -104.5t-53.5 -79.5t-82.5 -50.5t-106 -17.5t-106 17.5t-82.5 50.5t-54 79.5t-19.5 104.5v460zM446 861h56l-79 -111h-44zM326 861h50
l-65 -111h-47z" />
    <glyph glyph-name="uhungarumlaut" unicode="&#x171;" horiz-adv-x="581" 
d="M81 500h42v-302q0 -33 3.5 -63.5t16 -54t37 -37.5t66.5 -14q47 0 85 19t64.5 50.5t41 72.5t14.5 85v244h42v-500h-42v88q0 9 0.5 16.5t1.5 12.5q1 7 2 12h-2q-6 -18 -22.5 -42t-42 -46t-61.5 -37.5t-81 -15.5q-92 0 -128.5 50t-36.5 145v317zM374 700h56l-79 -111h-44z
M254 700h50l-65 -111h-47z" />
    <glyph glyph-name="Uogonek" unicode="&#x172;" horiz-adv-x="720" 
d="M334 -113q0 32 16.5 57.5t34.5 42.5v2q-5 0 -9 -1h-8.5h-7.5q-58 0 -106 17.5t-82.5 50.5t-54 79.5t-19.5 104.5v460h43v-458q0 -49 15.5 -88.5t44 -67.5t69 -42.5t89.5 -14.5q50 0 90 15t69 42.5t44.5 67.5t15.5 90v456h43v-460q0 -47 -11.5 -82.5t-30 -62t-42 -46
t-47.5 -34.5q-21 -13 -41 -27t-35.5 -29t-25 -31.5t-9.5 -36.5q0 -19 10.5 -30t23.5 -17q15 -7 34 -9l-9 -39q-29 3 -52 14q-21 9 -36.5 27t-15.5 50z" />
    <glyph glyph-name="uogonek" unicode="&#x173;" horiz-adv-x="581" 
d="M81 500h42v-302q0 -33 3.5 -63.5t16 -54t37 -37.5t66.5 -14q47 0 85 19t64.5 50.5t41 72.5t14.5 85v244h42v-500q-9 -6 -22.5 -17.5t-26 -26t-22 -31.5t-9.5 -34q0 -19 10.5 -30t23.5 -17q15 -7 34 -9l-9 -39q-29 3 -52 14q-21 9 -36.5 27t-15.5 50q0 26 12 47.5t27 37.5
t28.5 25.5t15.5 10.5v75q0 9 0.5 16.5t0.5 12.5q0 7 1 12h-2q-6 -18 -22 -41.5t-41.5 -44.5t-61 -35.5t-80.5 -14.5q-92 0 -128.5 50t-36.5 145v317z" />
    <glyph glyph-name="Wcircumflex" unicode="&#x174;" horiz-adv-x="919" 
d="M456 639q-4 -19 -9 -39q-4 -18 -8.5 -36.5t-9.5 -35.5l-148 -528h-54l-184 700h45l148 -570q3 -13 6.5 -26t5.5 -24q3 -13 5 -25h2l2 7t4.5 17.5t5.5 24t7 26.5l160 570h48l160 -570q4 -13 7 -26.5t5.5 -24t4.5 -17.5l2 -7h2q2 12 5 25q3 11 6 24l6 26l153 570h45
l-189 -700h-54l-148 528q-5 17 -10 36.5t-8 35.5q-5 20 -9 39h-2h-2zM443 861h52l80 -111h-49l-56 80h-2l-56 -80h-49z" />
    <glyph glyph-name="wcircumflex" unicode="&#x175;" horiz-adv-x="797" 
d="M21 500h45l136 -392q3 -9 6 -18.5t6 -17.5q2 -9 5 -18h2l6 18q2 8 5 17.5t6 18.5l137 390h47l137 -390q3 -9 6 -18.5t6 -17.5q2 -9 5 -18h2q2 8 5 18q3 8 6 17.5t6 18.5l136 392h45l-176 -500h-45l-139 388q-3 9 -6.5 18.5t-5.5 17.5q-3 9 -5 18h-2q-2 -9 -5 -18
q-3 -8 -6 -17.5t-6 -18.5l-138 -388h-45zM372 700h52l80 -111h-49l-56 80h-2l-56 -80h-49z" />
    <glyph glyph-name="Ycircumflex" unicode="&#x176;" horiz-adv-x="556" 
d="M257 304l-238 396h49l166 -276q8 -13 15.5 -27t13.5 -25q7 -14 14 -27h2q6 13 14 27q6 12 13.5 25.5t15.5 26.5l166 276h49l-237 -396v-304h-43v304zM252 861h52l80 -111h-49l-56 80h-2l-56 -80h-49z" />
    <glyph glyph-name="ycircumflex" unicode="&#x177;" horiz-adv-x="489" 
d="M27 -146q8 -7 18 -12q9 -5 20 -8.5t24 -3.5q36 0 59.5 27.5t38.5 62.5l36 83l-207 497h45l165 -399q4 -9 7 -17.5t6 -14.5q3 -8 5 -15h2q2 7 5 15q2 7 5 15t7 17l165 399h45l-257 -617q-17 -39 -48 -66t-79 -27q-18 0 -33 4.5t-25 9.5q-13 6 -23 14zM220 700h52l80 -111
h-49l-56 80h-2l-56 -80h-49z" />
    <glyph glyph-name="Ydieresis" unicode="&#x178;" horiz-adv-x="556" 
d="M257 304l-238 396h49l166 -276q8 -13 15.5 -27t13.5 -25q7 -14 14 -27h2q6 13 14 27q6 12 13.5 25.5t15.5 26.5l166 276h49l-237 -396v-304h-43v304zM318 861h46v-73h-46v73zM181 861h46v-73h-46v73z" />
    <glyph glyph-name="Zacute" unicode="&#x179;" horiz-adv-x="586" 
d="M44 34l385 562q9 14 17.5 25.5t15.5 20.5q8 10 15 18v2q-5 -1 -12 -1t-16.5 -0.5t-22.5 -0.5h-361v40h464v-34l-385 -562q-9 -14 -17.5 -25.5t-15.5 -19.5q-8 -11 -15 -19v-2q5 1 12 1t16.5 0.5t22.5 0.5h385v-40h-488v34zM347 861h56l-79 -111h-44z" />
    <glyph glyph-name="zacute" unicode="&#x17a;" horiz-adv-x="501" 
d="M44 34l303 381q7 9 14 17t12 15q7 7 13 14v2q-6 -1 -13 -1t-16.5 -0.5t-21.5 -0.5h-278v39h386v-34l-304 -381q-7 -9 -14 -17t-13 -15q-7 -7 -13 -14v-2q6 1 14 1q7 0 16.5 0.5t21.5 0.5h303v-39h-410v34zM292 700h56l-79 -111h-44z" />
    <glyph glyph-name="Zdotaccent" unicode="&#x17b;" horiz-adv-x="586" 
d="M44 34l385 562q9 14 17.5 25.5t15.5 20.5q8 10 15 18v2q-5 -1 -12 -1t-16.5 -0.5t-22.5 -0.5h-361v40h464v-34l-385 -562q-9 -14 -17.5 -25.5t-15.5 -19.5q-8 -11 -15 -19v-2q5 1 12 1t16.5 0.5t22.5 0.5h385v-40h-488v34zM280 861h46v-73h-46v73z" />
    <glyph glyph-name="zdotaccent" unicode="&#x17c;" horiz-adv-x="501" 
d="M44 34l303 381q7 9 14 17t12 15q7 7 13 14v2q-6 -1 -13 -1t-16.5 -0.5t-21.5 -0.5h-278v39h386v-34l-304 -381q-7 -9 -14 -17t-13 -15q-7 -7 -13 -14v-2q6 1 14 1q7 0 16.5 0.5t21.5 0.5h303v-39h-410v34zM226 700h46v-73h-46v73z" />
    <glyph glyph-name="Zcaron" unicode="&#x17d;" horiz-adv-x="586" 
d="M44 34l385 562q9 14 17.5 25.5t15.5 20.5q8 10 15 18v2q-5 -1 -12 -1t-16.5 -0.5t-22.5 -0.5h-361v40h464v-34l-385 -562q-9 -14 -17.5 -25.5t-15.5 -19.5q-8 -11 -15 -19v-2q5 1 12 1t16.5 0.5t22.5 0.5h385v-40h-488v34zM197 861h49l56 -80h2l56 80h49l-80 -111h-52z
" />
    <glyph glyph-name="zcaron" unicode="&#x17e;" horiz-adv-x="501" 
d="M44 34l303 381q7 9 14 17t12 15q7 7 13 14v2q-6 -1 -13 -1t-16.5 -0.5t-21.5 -0.5h-278v39h386v-34l-304 -381q-7 -9 -14 -17t-13 -15q-7 -7 -13 -14v-2q6 1 14 1q7 0 16.5 0.5t21.5 0.5h303v-39h-410v34zM143 700h49l56 -80h2l56 80h49l-80 -111h-52z" />
    <glyph glyph-name="longs" unicode="&#x17f;" horiz-adv-x="239" 
d="M109 459h-63v38h63v23q0 62 17.5 98.5t42.5 56t52 25t46 5.5q10 0 19 -1q4 0 7 -1v-39q-3 1 -6 1q-9 1 -17 1q-15 0 -35.5 -4.5t-39 -19.5t-31.5 -44t-13 -77v-521h-42v459z" />
    <glyph glyph-name="florin" unicode="&#x192;" horiz-adv-x="568" 
d="M40 -57q8 -1 18 -3q9 -1 20 -1.5t24 -0.5q15 0 35.5 4.5t40 19.5t35 44t19.5 77l26 295h-96v38h99l10 111q5 62 26.5 98.5t48.5 56t54.5 25t46.5 5.5q16 0 30.5 -1t25.5 -2q13 -2 25 -4v-39q-12 2 -26 4q-12 1 -26.5 2t-29.5 1t-36 -4.5t-40.5 -19.5t-34.5 -44t-20 -77
l-11 -112h133v-38h-136l-26 -294q-6 -62 -26.5 -99t-47 -56t-54 -24.5t-46.5 -5.5q-14 0 -25 1t-19 1q-10 2 -17 3v39z" />
    <glyph glyph-name="Scommaaccent" unicode="&#x218;" horiz-adv-x="530" 
d="M85 108q22 -22 50 -39q26 -16 59.5 -27.5t77.5 -11.5q33 0 61.5 10t49.5 28t33 43.5t12 56.5q0 50 -26.5 81t-66.5 53t-86 40t-86 42t-66.5 58t-26.5 89q0 35 15 67.5t42.5 58t66 40.5t86.5 15q43 0 76 -10t56 -22q26 -15 46 -33l-24 -37q-18 17 -42 30q-21 12 -48.5 21
t-62.5 9q-39 0 -70 -12t-52 -31.5t-32.5 -44t-11.5 -50.5q0 -46 26.5 -74.5t66.5 -49.5t86 -38.5t86 -42.5t66.5 -62t26.5 -95q0 -38 -14 -71t-40.5 -58t-64 -39t-84.5 -14q-52 0 -91.5 13.5t-67.5 30.5q-32 19 -55 43zM290 -66q6 -26 6 -47q0 -22 -5.5 -42.5t-16.5 -44.5
h-39q8 22 13 40.5t5 37.5q0 27 -11 56h48z" />
    <glyph glyph-name="scommaaccent" unicode="&#x219;" horiz-adv-x="436" 
d="M72 92q17 -18 40 -31q22 -13 50 -22.5t65 -9.5q23 0 44 6t36.5 18t25 29.5t9.5 40.5q0 32 -20.5 51.5t-51 34.5t-66 27.5t-66 30.5t-51 43.5t-20.5 66.5q0 33 13 58.5t35 42.5t51 25.5t61 8.5q38 0 66 -8.5t46 -18.5q22 -12 36 -27l-25 -34q-13 13 -31 24q-17 9 -40 16
t-55 7q-21 0 -41.5 -5t-36.5 -16t-25.5 -28.5t-9.5 -41.5q0 -32 20.5 -52.5t51 -35t66 -27.5t66 -30.5t51 -43.5t20.5 -68q0 -30 -12 -55t-33.5 -42.5t-50.5 -27.5t-64 -10q-46 0 -79.5 11t-56.5 25q-26 16 -45 36zM247 -66q6 -26 6 -47q0 -22 -5.5 -42.5t-16.5 -44.5h-39
q8 22 13 40.5t5 37.5q0 27 -11 56h48z" />
    <glyph glyph-name="uni021A" unicode="&#x21a;" horiz-adv-x="581" 
d="M269 660h-261v40h565v-40h-261v-660h-43v660zM315 -66q6 -26 6 -47q0 -22 -5.5 -42.5t-16.5 -44.5h-39q8 22 13 40.5t5 37.5q0 27 -11 56h48z" />
    <glyph glyph-name="uni021B" unicode="&#x21b;" horiz-adv-x="314" 
d="M104 459h-66v38h66v142h42v-142h131v-38h-131v-275q0 -49 13 -78.5t31.5 -45.5t39 -20.5t35.5 -4.5q9 0 17 1q3 0 6 1v-39q-3 -1 -7 -1q-3 0 -7.5 -0.5t-10.5 -0.5q-19 0 -46.5 5.5t-52.5 24.5t-42.5 56t-17.5 99v278zM232 -66q6 -26 6 -47q0 -22 -5.5 -42.5t-16.5 -44.5
h-39q8 22 13 40.5t5 37.5q0 27 -11 56h48z" />
    <glyph glyph-name="circumflex" unicode="&#x2c6;" horiz-adv-x="508" 
d="M228 861h52l80 -111h-49l-56 80h-2l-56 -80h-49z" />
    <glyph glyph-name="caron" unicode="&#x2c7;" horiz-adv-x="508" 
d="M148 861h49l56 -80h2l56 80h49l-80 -111h-52z" />
    <glyph glyph-name="breve" unicode="&#x2d8;" horiz-adv-x="510" 
d="M255 747q-19 0 -37 6t-32.5 18t-23 30.5t-8.5 43.5v16h40v-14q0 -33 18 -47.5t43 -14.5q24 0 42.5 14.5t18.5 48.5v13h40v-16q0 -25 -8.5 -43.5t-23 -30.5t-32.5 -18t-37 -6z" />
    <glyph glyph-name="dotaccent" unicode="&#x2d9;" horiz-adv-x="510" 
d="M232 861h46v-73h-46v73z" />
    <glyph glyph-name="ring" unicode="&#x2da;" horiz-adv-x="510" 
d="M255 740q-29 0 -48 19t-19 48t19 48t48 19t48 -19t19 -48t-19 -48t-48 -19zM255 775q14 0 23 9t9 23q0 15 -9 24t-23 9t-23 -9t-9 -24q0 -14 9 -23t23 -9z" />
    <glyph glyph-name="ogonek" unicode="&#x2db;" horiz-adv-x="509" 
d="M187 -113q0 30 15 54.5t33 41.5q21 21 48 37l39 -13q-25 -17 -45 -36q-18 -18 -31.5 -38t-13.5 -42q0 -19 10.5 -30t23.5 -17q15 -7 34 -9l-9 -39q-29 3 -52 14q-21 9 -36.5 27t-15.5 50z" />
    <glyph glyph-name="tilde" unicode="&#x2dc;" horiz-adv-x="509" 
d="M110 753q0 108 83 108q25 0 41.5 -11.5t29 -25.5t25 -25.5t30.5 -11.5q13 0 21 8t12 19t5.5 23t1.5 21h40q0 -108 -83 -108q-25 0 -41.5 11.5t-29 25.5t-25 25.5t-30.5 11.5q-13 0 -21 -8t-12 -19t-5.5 -23t-1.5 -21h-40z" />
    <glyph glyph-name="hungarumlaut" unicode="&#x2dd;" horiz-adv-x="509" 
d="M318 861h56l-79 -111h-44zM198 861h50l-65 -111h-47z" />
    <glyph glyph-name="uni1E9E" unicode="&#x1e9e;" horiz-adv-x="663" 
d="M100 525q0 36 13.5 68t37.5 56t56 37.5t68 13.5h299v-30l-173 -242q-7 -9 -12 -16t-8 -11q-4 -6 -7 -9v-2h36q40 0 75 -15.5t61.5 -41.5t41.5 -61.5t15 -75.5t-15 -75.5t-41.5 -62.5t-61.5 -42.5t-75 -15.5h-171v40h169q33 0 60.5 12.5t47.5 33.5t31 49.5t11 60.5t-11 60
t-31 49t-47 33t-59 12h-93v32l156 220q12 17 20 28t14 18t10 12v2q-2 -1 -7 -1t-13 -0.5t-22 -0.5h-194q-30 0 -55.5 -10.5t-44 -29t-28.5 -43t-10 -52.5v-525h-43v525z" />
    <glyph glyph-name="thinspace" unicode="&#x2009;" horiz-adv-x="10" 
 />
    <glyph glyph-name="endash" unicode="&#x2013;" horiz-adv-x="556" 
d="M40 303h476v-40h-476v40z" />
    <glyph glyph-name="emdash" unicode="&#x2014;" horiz-adv-x="756" 
d="M40 303h676v-40h-676v40z" />
    <glyph glyph-name="quoteleft" unicode="&#x2018;" horiz-adv-x="200" 
d="M108 708h39l-35 -151h-52z" />
    <glyph glyph-name="quoteright" unicode="&#x2019;" horiz-adv-x="197" 
d="M98 708h52l-48 -151h-39z" />
    <glyph glyph-name="quotesinglbase" unicode="&#x201a;" horiz-adv-x="235" 
d="M95 61h52l-48 -151h-39z" />
    <glyph glyph-name="quotedblleft" unicode="&#x201c;" horiz-adv-x="300" 
d="M208 708h39l-35 -151h-52zM108 708h39l-35 -151h-52z" />
    <glyph glyph-name="quotedblright" unicode="&#x201d;" horiz-adv-x="297" 
d="M198 708h52l-48 -151h-39zM98 708h52l-48 -151h-39z" />
    <glyph glyph-name="quotedblbase" unicode="&#x201e;" horiz-adv-x="335" 
d="M195 61h52l-48 -151h-39zM95 61h52l-48 -151h-39z" />
    <glyph glyph-name="dagger" unicode="&#x2020;" horiz-adv-x="372" 
d="M163 460h-114v40h114v200h42v-200h119v-40h-119v-510h-42v510z" />
    <glyph glyph-name="daggerdbl" unicode="&#x2021;" horiz-adv-x="409" 
d="M67 226h114v234h-114v40h114v200h42v-200h119v-40h-119v-234h119v-40h-119v-236h-42v236h-114v40z" />
    <glyph glyph-name="bullet" unicode="&#x2022;" horiz-adv-x="390" 
d="M195 159q-27 0 -51 10.5t-42 28.5t-28.5 42t-10.5 51t10.5 51t28.5 42t42 28.5t51 10.5t51 -10.5t42 -28.5t28.5 -42t10.5 -51t-10.5 -51t-28.5 -42t-42 -28.5t-51 -10.5z" />
    <glyph glyph-name="ellipsis" unicode="&#x2026;" horiz-adv-x="663" 
d="M88 63h61v-63h-61v63zM301 63h61v-63h-61v63zM514 63h61v-63h-61v63z" />
    <glyph glyph-name="perthousand" unicode="&#x2030;" horiz-adv-x="1017" 
d="M193 451q-27 0 -50.5 10t-41.5 28t-28 41.5t-10 50.5t10 51t28 41.5t41.5 28t50.5 10.5t51 -10.5t41.5 -28t28 -41.5t10.5 -51t-10.5 -50.5t-28 -41.5t-41.5 -28t-51 -10zM592 700h52l-531 -700h-52zM193 491q38 0 63 26t25 64t-25 64.5t-63 26.5t-62.5 -26.5
t-24.5 -64.5t24.5 -64t62.5 -26zM699 118q0 27 10 51t28 41.5t41.5 28t50.5 10.5t51 -10.5t41.5 -28t28 -41.5t10.5 -51t-10.5 -50.5t-28 -41.5t-41.5 -28t-51 -10t-50.5 10t-41.5 28t-28 41.5t-10 50.5zM379 118q0 27 10 51t28 41.5t41.5 28t50.5 10.5t51 -10.5t41.5 -28
t28 -41.5t10.5 -51t-10.5 -50.5t-28 -41.5t-41.5 -28t-51 -10t-50.5 10t-41.5 28t-28 41.5t-10 50.5zM742 118q0 -38 24.5 -64t62.5 -26t63 26t25 64t-25 64.5t-63 26.5t-62.5 -26.5t-24.5 -64.5zM422 118q0 -38 24.5 -64t62.5 -26t63 26t25 64t-25 64.5t-63 26.5
t-62.5 -26.5t-24.5 -64.5z" />
    <glyph glyph-name="guilsinglleft" unicode="&#x2039;" horiz-adv-x="331" 
d="M54 282l164 206h53l-164 -206l164 -205h-53z" />
    <glyph glyph-name="guilsinglright" unicode="&#x203a;" horiz-adv-x="331" 
d="M224 282l-164 206h53l164 -206l-164 -205h-53z" />
    <glyph glyph-name="fraction" unicode="&#x2044;" horiz-adv-x="149" 
d="M-115 0l336 700h43l-335 -700h-44z" />
    <glyph glyph-name="zerosuperior" unicode="&#x2070;" 
d="M188 413q-42 0 -70.5 17.5t-45.5 48t-24.5 72t-7.5 89.5t7.5 89.5t24.5 72t45.5 48t70.5 17.5t70.5 -17.5t45.5 -48t24.5 -72t7.5 -89.5t-7.5 -89.5t-24.5 -72t-45.5 -48t-70.5 -17.5zM188 449q32 0 52.5 14.5t33.5 40.5t18 61t5 75t-5 75t-18 60.5t-33.5 40.5t-52.5 15
t-53 -15t-33.5 -40.5t-17.5 -60.5t-5 -75t5 -75t17.5 -61t33.5 -40.5t53 -14.5z" />
    <glyph glyph-name="foursuperior" unicode="&#x2074;" 
d="M241 544h-215v26l222 287h31v-277h68v-36h-68v-121h-38v121zM241 580v147q0 11 0.5 22t1.5 21q0 11 1 22h-2q-5 -8 -11 -16q-5 -8 -11 -16.5t-13 -17.5l-126 -160v-2h160z" />
    <glyph glyph-name="fivesuperior" unicode="&#x2075;" 
d="M178 413q-33 0 -57 11t-40 24q-19 15 -32 35l32 21q10 -15 24 -27q13 -12 30.5 -20t42.5 -8q23 0 43.5 8.5t35.5 23t24 34t9 42.5q0 22 -9 41.5t-24 34.5t-35.5 23.5t-43.5 8.5q-18 0 -32.5 -4t-25.5 -9q-13 -6 -23 -14l-26 10l26 209h206v-36h-174l-10 -91
q-1 -10 -2.5 -18t-2.5 -14t-2 -11h2q8 4 18 7q9 3 21 5t26 2q32 0 59.5 -11.5t47.5 -31t31.5 -45.5t11.5 -56t-12 -56.5t-32.5 -46t-48 -30.5t-58.5 -11z" />
    <glyph glyph-name="sixsuperior" unicode="&#x2076;" 
d="M198 413q-36 0 -64.5 15.5t-48 42.5t-29.5 63.5t-10 77.5t10 86t32.5 82.5t57.5 62t86 24.5q17 0 32 -3t27 -7q13 -4 24 -10l-19 -32q-9 4 -19 8q-10 3 -21.5 5.5t-24.5 2.5q-32 0 -57 -15t-43 -40t-29.5 -57t-15.5 -66h2q17 21 49 34.5t61 13.5q60 0 99 -38t39 -102
q0 -37 -11 -64.5t-30 -46t-44 -28t-53 -9.5zM198 449q48 0 73.5 32.5t25.5 79.5q0 48 -28 76t-72 28q-22 0 -42 -7t-35 -18.5t-24 -25t-9 -27.5q0 -21 7.5 -45.5t22 -45t35 -34t46.5 -13.5z" />
    <glyph glyph-name="sevensuperior" unicode="&#x2077;" 
d="M245 756q7 13 13.5 25t11.5 21q6 10 12 19v2q-6 -1 -14 -1t-18 -0.5t-23 -0.5h-178v36h279v-26l-214 -408h-43z" />
    <glyph glyph-name="eightsuperior" unicode="&#x2078;" 
d="M41 546q0 26 9.5 46t22.5 35t26 25t19 14q-24 15 -39.5 37t-15.5 55q0 27 11 47.5t29.5 34t42 20.5t47.5 7t47.5 -7t42 -21t30 -35t11.5 -49q0 -24 -8 -44.5t-18.5 -36t-20 -26t-13.5 -13.5q29 -17 48 -39.5t19 -59.5q0 -25 -11 -47.5t-30 -39t-45.5 -26.5t-56.5 -10
q-27 0 -53.5 8.5t-47.5 25.5t-33.5 41.5t-12.5 57.5zM292 535q0 24 -13.5 40t-34.5 28.5t-46.5 23t-49.5 22.5q-8 -5 -20 -14t-22.5 -22t-18 -29.5t-7.5 -37.5q0 -23 9 -41t24 -30.5t34.5 -19t40.5 -6.5q19 0 37.5 6.5t33.5 18t24 27t9 34.5zM102 758q0 -22 12 -37.5
t30.5 -27.5t42 -21.5t46.5 -20.5q5 5 14 14.5t17.5 23t14.5 30.5t6 36t-8 33.5t-21 24t-30 14t-34 4.5q-35 0 -62.5 -18t-27.5 -55z" />
    <glyph glyph-name="ninesuperior" unicode="&#x2079;" 
d="M40 719q0 37 11 64.5t30 46t44 28t53 9.5q36 0 64.5 -15.5t48 -42.5t29.5 -63.5t10 -77.5t-10 -86t-32.5 -82.5t-57.5 -62t-86 -24.5q-17 0 -32 3t-27 7q-13 4 -24 10l19 32q9 -4 19 -8q10 -3 21.5 -5.5t24.5 -2.5q32 0 57 15t43 40t29.5 57t15.5 66h-2
q-17 -21 -49 -34.5t-61 -13.5q-60 0 -99 38t-39 102zM79 719q0 -48 28 -76t72 -28q22 0 42 7t35 18.5t24 25.5t9 27q0 21 -7.5 45.5t-22 45t-35 34t-46.5 13.5q-48 0 -73.5 -32.5t-25.5 -79.5z" />
    <glyph glyph-name="zeroinferior" unicode="&#x2080;" 
d="M188 -167q-42 0 -70.5 17.5t-45.5 48t-24.5 72t-7.5 89.5t7.5 89.5t24.5 72t45.5 48t70.5 17.5t70.5 -17.5t45.5 -48t24.5 -72t7.5 -89.5t-7.5 -89.5t-24.5 -72t-45.5 -48t-70.5 -17.5zM188 -131q32 0 52.5 14.5t33.5 40.5t18 61t5 75t-5 75t-18 60.5t-33.5 40.5
t-52.5 15t-53 -15t-33.5 -40.5t-17.5 -60.5t-5 -75t5 -75t17.5 -61t33.5 -40.5t53 -14.5z" />
    <glyph glyph-name="oneinferior" unicode="&#x2081;" 
d="M77 -121h96v325q0 7 1 15v7h-1q-1 -3 -4 -6q-3 -4 -7.5 -9t-11.5 -12l-44 -43l-26 27l93 94h38v-398h93v-36h-227v36z" />
    <glyph glyph-name="twoinferior" unicode="&#x2082;" 
d="M55 -157q-1 7 -1.5 14t-0.5 13q0 40 16.5 69t41 51.5t53 41t53 37.5t41 41.5t16.5 53.5q0 35 -24.5 61t-66.5 26q-22 0 -39 -8t-29 -17q-15 -11 -26 -25l-24 26q13 17 31 30q16 12 37 21t50 9q32 0 56.5 -10t41 -27t24.5 -39.5t8 -46.5q0 -37 -16 -64t-40.5 -47.5
t-52.5 -38t-52.5 -36.5t-41.5 -42.5t-18 -56.5h229v-36h-266z" />
    <glyph glyph-name="threeinferior" unicode="&#x2083;" 
d="M184 -168q-36 0 -62 10t-43 22q-20 15 -33 33l28 26q11 -15 27 -28q15 -11 35 -19t49 -8q18 0 36.5 7.5t33.5 21t24 32t9 40.5q0 23 -9.5 41t-24.5 30t-34 18.5t-39 6.5h-32l-11 24l108 127q4 5 8.5 9.5t8.5 7.5l8 8v2q-5 -1 -11 -1q-6 -1 -12.5 -1.5t-14.5 -0.5h-164v36
h255v-26l-128 -150q20 -1 43 -8.5t42.5 -22.5t32.5 -39.5t13 -60.5q0 -29 -11.5 -54t-31 -43.5t-45.5 -29t-55 -10.5z" />
    <glyph glyph-name="fourinferior" unicode="&#x2084;" 
d="M241 -36h-215v26l222 287h31v-277h68v-36h-68v-121h-38v121zM241 0v147q0 11 0.5 22t1.5 21q0 11 1 22h-2q-5 -8 -11 -16q-5 -8 -11 -16.5t-13 -17.5l-126 -160v-2h160z" />
    <glyph glyph-name="fiveinferior" unicode="&#x2085;" 
d="M178 -167q-33 0 -57 11t-40 24q-19 15 -32 35l32 21q10 -15 24 -28q13 -11 30.5 -19t42.5 -8q23 0 43.5 8.5t35.5 23t24 34t9 42.5q0 22 -9 41.5t-24 34.5t-35.5 23.5t-43.5 8.5q-18 0 -32.5 -4t-25.5 -9q-13 -6 -23 -14l-26 10l26 209h206v-36h-174l-10 -91
q-1 -10 -2.5 -18t-2.5 -14t-2 -11h2q8 4 18 7q9 3 21 5t26 2q32 0 59.5 -11.5t47.5 -31t31.5 -45.5t11.5 -56t-12 -56.5t-32.5 -46t-48 -30.5t-58.5 -11z" />
    <glyph glyph-name="sixinferior" unicode="&#x2086;" 
d="M198 -167q-36 0 -64.5 15.5t-48 42.5t-29.5 63.5t-10 77.5t10 86t32.5 82.5t57.5 62t86 24.5q17 0 32 -3t27 -7q13 -4 24 -10l-19 -32q-9 4 -19 8q-10 3 -21.5 5.5t-24.5 2.5q-32 0 -57 -15t-43 -40t-29.5 -57t-15.5 -66h2q17 21 49 34.5t61 13.5q60 0 99 -38t39 -102
q0 -37 -11 -64.5t-30 -46t-44 -28t-53 -9.5zM198 -131q48 0 73.5 32.5t25.5 79.5q0 48 -28 76t-72 28q-22 0 -42 -7t-35 -18.5t-24 -25t-9 -27.5q0 -21 7.5 -45.5t22 -45t35 -34t46.5 -13.5z" />
    <glyph glyph-name="seveninferior" unicode="&#x2087;" 
d="M245 175q7 13 13.5 25t11.5 21q6 10 12 19v2q-6 -1 -14 -1t-18 -0.5t-23 -0.5h-178v36h279v-26l-214 -408h-43z" />
    <glyph glyph-name="eightinferior" unicode="&#x2088;" 
d="M41 -33q0 25 9.5 45.5t22.5 35.5t26 25t19 14q-24 15 -39.5 37t-15.5 55q0 27 11 47.5t29.5 34t42 20.5t47.5 7t47.5 -7t42 -21t30 -35t11.5 -49q0 -24 -8 -44.5t-18.5 -36t-20 -26t-13.5 -13.5q29 -17 48 -39.5t19 -59.5q0 -25 -11 -47.5t-30 -39t-45.5 -26.5t-56.5 -10
q-27 0 -53.5 8.5t-47.5 25.5t-33.5 41.5t-12.5 57.5zM292 -44q0 24 -13.5 40t-34.5 28.5t-46.5 23t-49.5 22.5q-8 -5 -20 -14t-22.5 -22t-18 -29.5t-7.5 -37.5q0 -23 9 -41t24 -30.5t34.5 -19t40.5 -6.5q19 0 37.5 6.5t33.5 18t24 27t9 34.5zM102 179q0 -22 12 -37.5
t30.5 -27.5t42 -21.5t46.5 -20.5q5 5 14 14.5t17.5 23t14.5 30.5t6 36t-8 33.5t-21 24t-30 14t-34 4.5q-35 0 -62.5 -18t-27.5 -55z" />
    <glyph glyph-name="nineinferior" unicode="&#x2089;" 
d="M40 139q0 37 11 64.5t30 46t44 28t53 9.5q36 0 64.5 -15.5t48 -42.5t29.5 -63.5t10 -77.5t-10 -86t-32.5 -82.5t-57.5 -62t-86 -24.5q-17 0 -32 3t-27 7q-13 4 -24 10l19 32q9 -4 19 -8q10 -3 21.5 -5.5t24.5 -2.5q32 0 57 15t43 40t29.5 57t15.5 66h-2
q-17 -21 -49 -34.5t-61 -13.5q-60 0 -99 38t-39 102zM79 139q0 -48 28 -76t72 -28q22 0 42 7t35 18.5t24 25.5t9 27q0 21 -7.5 45.5t-22 45t-35 34t-46.5 13.5q-48 0 -73.5 -32.5t-25.5 -79.5z" />
    <glyph glyph-name="Euro" unicode="&#x20ac;" horiz-adv-x="589" 
d="M45 313h54q-2 14 -2 42t3 47h-55v40h62q14 59 44.5 108.5t74 85.5t98 56t116.5 20q20 0 36 -1.5t28 -3.5q14 -3 25 -6l-10 -42q-11 3 -23 6q-12 2 -26 3.5t-30 1.5q-54 0 -100.5 -16.5t-83.5 -46.5t-63.5 -72t-39.5 -93h328l-8 -40h-328q-4 -20 -4 -44t2 -45h314l-7 -40
h-301q11 -54 37 -98.5t64 -76.5t86.5 -50t103.5 -18q19 0 35 2t28 5q14 2 25 6l12 -41q-13 -4 -29 -7q-14 -3 -31.5 -5t-39.5 -2q-64 0 -120 21t-100 59t-74 90.5t-42 114.5h-59v40z" />
    <glyph glyph-name="trademark" unicode="&#x2122;" horiz-adv-x="922" 
d="M464 700h35l126 -270q3 -8 6 -15t4 -12q2 -7 4 -13h2q2 6 4 13q2 6 4.5 12.5t5.5 14.5l126 270h35l35 -436h-38l-28 328q-1 9 0 20q0 4 1 8h-2l-127 -274h-34l-127 274h-2q1 -4 1 -8v-9v-11l-28 -328h-38zM188 662h-160v38h360v-38h-161v-398h-39v398z" />
    <glyph glyph-name="minus" unicode="&#x2212;" horiz-adv-x="600" 
d="M52 303h496v-40h-496v40z" />
    <glyph glyph-name="infinity" unicode="&#x221e;" horiz-adv-x="491" 
d="M246 184q-34 0 -64 13t-52.5 35.5t-35.5 52.5t-13 64t13 64t35.5 52t52.5 35t64 13t64 -13t52 -35t35 -52t13 -64t-13 -64t-35 -52.5t-52 -35.5t-64 -13z" />
    <glyph glyph-name="approxequal" unicode="&#x2248;" horiz-adv-x="600" 
d="M60 351q23 23 60 44.5t81 21.5q35 0 60.5 -11t47 -24t42.5 -24t48 -11q33 0 64 17.5t52 38.5l25 -30q-23 -23 -60 -44.5t-81 -21.5q-35 0 -60.5 11t-47 24t-42.5 24t-48 11q-33 0 -64 -17.5t-52 -38.5zM60 191q23 23 60 44.5t81 21.5q35 0 60.5 -11t47 -24t42.5 -24
t48 -11q33 0 64 17.5t52 38.5l25 -30q-23 -23 -60 -44.5t-81 -21.5q-35 0 -60.5 11t-47 24t-42.5 24t-48 11q-33 0 -64 -17.5t-52 -38.5z" />
    <glyph glyph-name="notequal" unicode="&#x2260;" horiz-adv-x="600" 
d="M198 183h-126v40h156l91 120h-247v40h277l90 119l33 -25l-71 -94h127v-40h-157l-91 -120h248v-40h-278l-87 -116l-33 25z" />
    <glyph glyph-name="lessequal" unicode="&#x2264;" horiz-adv-x="600" 
d="M72 301l439 197v-48l-377 -166v-2l377 -166v-48l-439 197v36zM511 -113v-40h-439v40h439z" />
    <glyph glyph-name="greaterequal" unicode="&#x2265;" horiz-adv-x="600" 
d="M90 116l377 166v2l-377 166v48l439 -197v-36l-439 -197v48zM528 -113v-40h-439v40h439z" />
    <glyph glyph-name="Euro.osf" horiz-adv-x="621" 
d="M65 248h65q-3 21 -3 42v15.5t1 15.5h-63v40h70q10 45 33.5 85.5t61.5 71t90 49t119 18.5q19 0 35.5 -2t29.5 -4q14 -3 27 -6l-11 -41q-12 3 -25 6q-12 2 -26.5 3.5t-29.5 1.5q-55 0 -98.5 -14.5t-75.5 -39.5t-52.5 -58t-31.5 -70h301l-9 -40h-300q-2 -9 -2 -18v-18
q0 -7 0.5 -13.5t0.5 -11.5q0 -6 1 -12h288l-9 -40h-270q11 -37 32 -69.5t53 -56.5t75 -38t97 -14q19 0 35 2t28 5q14 2 25 6l12 -41q-13 -4 -29 -7q-14 -3 -31.5 -5t-39.5 -2q-64 0 -114.5 17.5t-88.5 47.5t-62.5 70t-36.5 85h-72v40z" />
    <glyph glyph-name="apple" horiz-adv-x="1130" 
d="M168 147l-126 72v278l126 71v151l265 142l134 -71l132 71l265 -142v-151l124 -71v-278l-124 -72v-152l-265 -141l-132 71l-134 -71l-265 141v152zM446 -96l121 66l118 -66l238 126v139l114 64v249l-114 66v136l-238 126l-118 -64l-121 64l-238 -126v-136l-114 -66v-249
l114 -64v-139zM242 185l-99 60v225l99 58v123l215 114l110 -59l107 59l214 -114v-123l100 -58v-225l-100 -60v-121l-214 -114l-107 58l-110 -58l-215 114v121zM490 91v228h228v40h-228v192h199q17 0 23 -6.5t6 -22.5v-42h42v54q0 29 -13 43t-45 14h-320v-40h65v-460h43z" />
    <glyph glyph-name="at.case" horiz-adv-x="805" 
d="M85 350q0 76 27.5 142.5t74.5 116t110 78t134 28.5q65 0 109 -15t71.5 -40t39.5 -57t12 -65v-344h70v-40h-265q-40 0 -75 15.5t-61.5 41.5t-41.5 61.5t-15 75.5t15 75.5t41.5 62.5t61.5 42.5t75 15.5h150q-1 25 -11 48.5t-31 42t-55 29.5t-84 11q-65 0 -121 -25.5
t-97.5 -69.5t-65 -103t-23.5 -127t23.5 -127t65 -102.5t97.5 -68.5t121 -25v-42q-73 0 -137 28.5t-112 78t-75.5 116t-27.5 142.5zM320 348q0 -32 12 -60t32.5 -49t48.5 -33t60 -12h145v310h-143q-33 0 -61 -12.5t-49 -33.5t-33 -49.5t-12 -60.5z" />
    <glyph glyph-name="braceleft.case" horiz-adv-x="365" 
d="M160 212q0 40 -13 63.5t-29 36.5q-19 14 -43 19v40q24 5 43 19q17 13 29.5 36.5t12.5 63.5v81q0 64 17 100.5t39.5 55t45 23t34.5 4.5h9v-39h-6q-9 0 -25 -3.5t-31.5 -18t-27.5 -43t-12 -78.5v-93q0 -37 -12.5 -61t-26.5 -39q-18 -17 -40 -27v-2q22 -9 40 -26
q16 -15 27.5 -39t11.5 -62v-106q0 -50 12 -78.5t27.5 -43t31.5 -18t25 -3.5h6v-39q-1 0 -2 -1h-7q-12 0 -34.5 4.5t-45 23t-39.5 55.5t-17 101v94z" />
    <glyph glyph-name="braceright.case" horiz-adv-x="365" 
d="M60 -26h6q9 0 25 3.5t31.5 18t27.5 43t12 78.5v106q0 38 12.5 62.5t27.5 38.5q17 17 39 26v2q-22 10 -39 27q-17 16 -28.5 39.5t-11.5 60.5v93q0 50 -12 78.5t-27.5 43t-31.5 18t-25 3.5h-6v39h9q12 0 35 -4.5t45.5 -23t39 -55t16.5 -100.5v-81q0 -40 13 -63.5t30 -36.5
q18 -14 42 -19v-40q-24 -5 -42 -19q-18 -13 -30.5 -36.5t-12.5 -63.5v-94q0 -64 -16.5 -101t-39 -55.5t-45.5 -23t-35 -4.5h-7q-1 1 -2 1v39z" />
    <glyph glyph-name="bracketleft.case" horiz-adv-x="306" 
d="M131 755h108v-40h-65v-740h65v-40h-108v820z" />
    <glyph glyph-name="bracketright.case" horiz-adv-x="306" 
d="M175 -65h-108v40h65v740h-65v40h108v-820z" />
    <glyph glyph-name="bullet.case" horiz-adv-x="428" 
d="M214 219q-27 0 -51 10.5t-42 28.5t-28.5 42t-10.5 51t10.5 51t28.5 42t42 28.5t51 10.5t51 -10.5t42 -28.5t28.5 -42t10.5 -51t-10.5 -51t-28.5 -42t-42 -28.5t-51 -10.5z" />
    <glyph glyph-name="cent.osf" horiz-adv-x="575" 
d="M64 298q0 51 17 93t47 73t70 50t86 23v87h43v-86q42 -2 73.5 -14.5t52.5 -26.5q25 -16 43 -36l-22 -35q-17 20 -41 36q-22 15 -51.5 25.5t-69.5 10.5q-42 0 -79 -14t-64.5 -40.5t-44 -63.5t-16.5 -82t16.5 -82t44 -63.5t64.5 -40.5t79 -14q40 0 70.5 11t50.5 25
q24 16 41 36l22 -35q-18 -20 -43 -37q-23 -15 -53.5 -27t-72.5 -14v-82h-43v83q-46 5 -86 23.5t-70 49.5t-47 73.5t-17 93.5z" />
    <glyph glyph-name="commaaccent" horiz-adv-x="335" 
d="M190 -66q6 -26 6 -47q0 -22 -5.5 -42.5t-16.5 -44.5h-39q8 22 13 40.5t5 37.5q0 27 -11 56h48z" />
    <glyph glyph-name="dollar.osf" horiz-adv-x="513" 
d="M90 115q20 -24 47 -43q24 -18 56 -30.5t75 -12.5q27 0 51.5 7.5t43.5 21.5t30 35t11 49q0 37 -23.5 60t-58.5 39.5t-76.5 31.5t-76.5 34.5t-58.5 48.5t-23.5 75q0 36 13 63t34.5 46.5t51 30t62.5 13.5v84h43v-84q37 -3 63.5 -12.5t43.5 -20.5q21 -12 35 -27l-27 -33
q-15 15 -36 27q-19 10 -45 18t-61 8q-25 0 -49 -6t-43 -19t-30 -34t-11 -50q0 -37 23.5 -60.5t58.5 -40.5t76.5 -31.5t76.5 -34.5t58.5 -49.5t23.5 -76.5q0 -33 -12.5 -60.5t-35 -47.5t-53.5 -32t-68 -13v-93h-43v94q-45 5 -78 20.5t-56 32.5q-26 19 -45 43z" />
    <glyph glyph-name="eight.denominator" 
d="M41 123q0 26 9.5 46t22.5 35t26 25t19 14q-24 15 -39.5 37t-15.5 55q0 27 11 47.5t29.5 34t42 20.5t47.5 7t47.5 -7t42 -21t30 -35t11.5 -49q0 -24 -8 -44.5t-18.5 -36t-20 -26t-13.5 -13.5q29 -17 48 -39.5t19 -59.5q0 -25 -11 -47.5t-30 -39t-45.5 -26.5t-56.5 -10
q-27 0 -53.5 8.5t-47.5 25.5t-33.5 41.5t-12.5 57.5zM292 112q0 24 -13.5 40t-34.5 28.5t-46.5 23t-49.5 22.5q-8 -5 -20 -14t-22.5 -22t-18 -29.5t-7.5 -37.5q0 -23 9 -41t24 -30.5t34.5 -19t40.5 -6.5q19 0 37.5 6.5t33.5 18t24 27t9 34.5zM102 335q0 -22 12 -37.5
t30.5 -27.5t42 -21.5t46.5 -20.5q5 5 14 14.5t17.5 23t14.5 30.5t6 36t-8 33.5t-21 24t-30 14t-34 4.5q-35 0 -62.5 -18t-27.5 -55z" />
    <glyph glyph-name="eight.numerator" 
d="M41 388q0 26 9.5 46t22.5 35t26 25t19 14q-24 15 -39.5 37t-15.5 55q0 27 11 47.5t29.5 34t42 20.5t47.5 7t47.5 -7t42 -21t30 -35t11.5 -49q0 -24 -8 -44.5t-18.5 -36t-20 -26t-13.5 -13.5q29 -17 48 -39.5t19 -59.5q0 -25 -11 -47.5t-30 -39t-45.5 -26.5t-56.5 -10
q-27 0 -53.5 8.5t-47.5 25.5t-33.5 41.5t-12.5 57.5zM292 377q0 24 -13.5 40t-34.5 28.5t-46.5 23t-49.5 22.5q-8 -5 -20 -14t-22.5 -22t-18 -29.5t-7.5 -37.5q0 -23 9 -41t24 -30.5t34.5 -19t40.5 -6.5q19 0 37.5 6.5t33.5 18t24 27t9 34.5zM102 600q0 -22 12 -37.5
t30.5 -27.5t42 -21.5t46.5 -20.5q5 5 14 14.5t17.5 23t14.5 30.5t6 36t-8 33.5t-21 24t-30 14t-34 4.5q-35 0 -62.5 -18t-27.5 -55z" />
    <glyph glyph-name="eight.p_osf" horiz-adv-x="577" 
d="M63 187q0 41 17 73.5t38.5 56t42 37t27.5 17.5q-41 23 -67 55.5t-26 81.5q0 31 13 60t38 51.5t62.5 36t86.5 13.5q48 0 85.5 -12.5t64 -34.5t40.5 -52.5t14 -66.5q0 -39 -14 -71.5t-31.5 -57t-33 -39t-17.5 -16.5q45 -24 76 -57.5t31 -86.5q0 -39 -17 -73t-47 -59.5
t-70.5 -40t-86.5 -14.5q-43 0 -83.5 13t-72 38t-51 62.5t-19.5 85.5zM466 174q0 37 -22 62t-56.5 44.5t-77 35.5t-82.5 34q-7 -4 -27 -16t-41 -32.5t-37 -49t-16 -65.5t15.5 -66.5t41 -50t58.5 -31t67 -10.5q33 0 65 10.5t56.5 29.5t40 46t15.5 59zM139 508
q0 -36 20.5 -60.5t53 -43.5t72.5 -34.5t79 -32.5q4 3 19 17t31 35.5t28.5 50.5t12.5 63q0 29 -12 52.5t-33.5 39.5t-50.5 24.5t-64 8.5q-72 0 -114 -34.5t-42 -85.5z" />
    <glyph glyph-name="eight.t_osf" horiz-adv-x="556" 
d="M53 187q0 41 17 73.5t38.5 56t42 37t27.5 17.5q-41 23 -67 55.5t-26 81.5q0 31 13 60t38 51.5t62.5 36t86.5 13.5q48 0 85.5 -12.5t64 -34.5t40.5 -52.5t14 -66.5q0 -39 -14 -71.5t-31.5 -57t-33 -39t-17.5 -16.5q45 -24 76 -57.5t31 -86.5q0 -39 -17 -73t-47 -59.5
t-70.5 -40t-86.5 -14.5q-43 0 -83.5 13t-72 38t-51 62.5t-19.5 85.5zM456 174q0 37 -22 62t-56.5 44.5t-77 35.5t-82.5 34q-7 -4 -27 -16t-41 -32.5t-37 -49t-16 -65.5t15.5 -66.5t41 -50t58.5 -31t67 -10.5q33 0 65 10.5t56.5 29.5t40 46t15.5 59zM129 508
q0 -36 20.5 -60.5t53 -43.5t72.5 -34.5t79 -32.5q4 3 19 17t31 35.5t28.5 50.5t12.5 63q0 29 -12 52.5t-33.5 39.5t-50.5 24.5t-64 8.5q-72 0 -114 -34.5t-42 -85.5z" />
    <glyph glyph-name="eight.tnum" horiz-adv-x="556" 
d="M46 200q0 48 19.5 85t43.5 62q27 29 62 51q-40 24 -65.5 58t-25.5 85q0 33 13 64t39 54.5t64.5 38t89.5 14.5q49 0 87.5 -13t65.5 -36.5t41 -56t14 -71.5q0 -40 -13.5 -75.5t-30.5 -61.5t-32 -42t-18 -19q45 -25 74 -60t29 -90q0 -41 -17.5 -77.5t-48 -63.5t-71.5 -42.5
t-88 -15.5q-43 0 -85 13.5t-74.5 40.5t-52.5 66.5t-20 91.5zM458 186q0 39 -23 66t-59 48t-79.5 38t-84.5 37q-5 -3 -24.5 -15.5t-41 -34.5t-38.5 -53.5t-17 -71.5t16 -71.5t42.5 -53.5t60 -33.5t68.5 -11.5q33 0 65.5 11.5t58 32t41 49.5t15.5 63zM125 541
q0 -39 21.5 -65.5t55.5 -46.5t76 -36.5t82 -35.5q5 4 19 19t30 38.5t28 54t12 66.5q0 31 -12 56t-34 42.5t-51.5 27t-65.5 9.5q-38 0 -68 -10t-50.5 -27.5t-31.5 -41t-11 -50.5z" />
    <glyph glyph-name="emdash.case" horiz-adv-x="796" 
d="M60 363h676v-40h-676v40z" />
    <glyph glyph-name="endash.case" horiz-adv-x="596" 
d="M60 363h476v-40h-476v40z" />
    <glyph glyph-name="exclamdown.case" horiz-adv-x="327" 
d="M142 525h43v-525h-43v525zM133 700h59v-61h-59v61z" />
    <glyph glyph-name="five.denominator" 
d="M178 -10q-33 0 -57 11t-40 24q-19 15 -32 35l32 21q10 -15 24 -27q13 -12 30.5 -20t42.5 -8q23 0 43.5 8.5t35.5 23t24 34t9 42.5q0 22 -9 41.5t-24 34.5t-35.5 23.5t-43.5 8.5q-18 0 -32.5 -4t-25.5 -9q-13 -6 -23 -14l-26 10l26 209h206v-36h-174l-10 -91
q-1 -10 -2.5 -18t-2.5 -14t-2 -11h2q8 4 18 7q9 3 21 5t26 2q32 0 59.5 -11.5t47.5 -31t31.5 -45.5t11.5 -56t-12 -56.5t-32.5 -46t-48 -30.5t-58.5 -11z" />
    <glyph glyph-name="five.numerator" 
d="M178 256q-33 0 -57 11t-40 24q-19 15 -32 35l32 21q10 -15 24 -27q13 -12 30.5 -20t42.5 -8q23 0 43.5 8.5t35.5 23t24 34t9 42.5q0 22 -9 41.5t-24 34.5t-35.5 23.5t-43.5 8.5q-18 0 -32.5 -4t-25.5 -9q-13 -6 -23 -14l-26 10l26 209h206v-36h-174l-10 -91
q-1 -10 -2.5 -18t-2.5 -14t-2 -11h2q8 4 18 7q9 3 21 5t26 2q32 0 59.5 -11.5t47.5 -31t31.5 -45.5t11.5 -56t-12 -56.5t-32.5 -46t-48 -30.5t-58.5 -11z" />
    <glyph glyph-name="five.p_osf" horiz-adv-x="518" 
d="M72 0q16 -21 38 -38q21 -16 49.5 -27t68.5 -11q36 0 70.5 11t61.5 32.5t43 53t16 73.5q0 41 -16 72t-42 51.5t-59.5 31t-68.5 10.5q-29 0 -53.5 -6t-42.5 -13q-22 -8 -39 -19l-31 10l40 309h314v-39h-277l-24 -189q-1 -9 -2.5 -16.5l-2.5 -12.5q-1 -6 -2 -11h2
q15 8 35 14q17 6 39 10t49 4q42 0 82.5 -12.5t72 -38t51 -64t19.5 -90.5q0 -49 -18.5 -88.5t-50 -67t-74.5 -42t-91 -14.5q-50 0 -86 14.5t-60 31.5q-27 21 -46 47z" />
    <glyph glyph-name="five.t_osf" horiz-adv-x="556" 
d="M99 0q16 -21 38 -38q21 -16 49.5 -27t68.5 -11q36 0 70.5 11t61.5 32.5t43 53t16 73.5q0 41 -16 72t-42 51.5t-59.5 31t-68.5 10.5q-29 0 -53.5 -6t-42.5 -13q-22 -8 -39 -19l-31 10l40 309h314v-39h-277l-24 -189q-1 -9 -2.5 -16.5l-2.5 -12.5q-1 -6 -2 -11h2
q15 8 35 14q17 6 39 10t49 4q42 0 82.5 -12.5t72 -38t51 -64t19.5 -90.5q0 -49 -18.5 -88.5t-50 -67t-74.5 -42t-91 -14.5q-50 0 -86 14.5t-60 31.5q-27 21 -46 47z" />
    <glyph glyph-name="five.tnum" horiz-adv-x="556" 
d="M97 116q15 -24 38 -43q21 -18 51 -30.5t73 -12.5q41 0 76.5 14t61.5 38.5t41 58t15 72.5q0 40 -15 74t-41 58.5t-61.5 38.5t-76.5 14q-30 0 -55 -6.5t-43 -14.5q-21 -9 -38 -21l-32 11l40 333h325v-40h-287l-25 -209q-1 -10 -2.5 -18t-2.5 -14t-2 -11h2q15 9 33 16
q17 7 38.5 11.5t48.5 4.5q50 0 94 -17.5t76 -48.5t50.5 -72.5t18.5 -88.5t-19 -88t-51 -71.5t-75.5 -48t-93.5 -17.5q-51 0 -88 15.5t-61 35.5q-29 22 -48 50z" />
    <glyph glyph-name="florin.osf" horiz-adv-x="568" 
d="M40 -84q8 -1 18 -3q9 -1 20 -1.5t24 -0.5q15 0 36 4.5t40.5 19.5t35 44t19.5 77l24 275h-96v38h99l10 115q5 62 26 98.5t48 56t54.5 25t46.5 5.5q16 0 30.5 -1t25.5 -2q13 -2 25 -4v-39q-12 2 -26 4q-12 1 -26.5 2t-29.5 1t-36 -4.5t-40.5 -19.5t-34.5 -44t-20 -77
l-11 -116h133v-38h-136l-24 -274q-6 -62 -26.5 -99t-47 -56t-54 -24.5t-46.5 -5.5q-14 0 -25 1t-19 1q-10 2 -17 3v39z" />
    <glyph glyph-name="four.denominator" 
d="M241 121h-215v26l222 287h31v-277h68v-36h-68v-121h-38v121zM241 157v147q0 11 0.5 22t1.5 21q0 11 1 22h-2q-5 -8 -11 -16q-5 -8 -11 -16.5t-13 -17.5l-126 -160v-2h160z" />
    <glyph glyph-name="four.numerator" 
d="M241 387h-215v26l222 287h31v-277h68v-36h-68v-121h-38v121zM241 423v147q0 11 0.5 22t1.5 21q0 11 1 22h-2q-5 -8 -11 -16q-5 -8 -11 -16.5t-13 -17.5l-126 -160v-2h160z" />
    <glyph glyph-name="four.p_osf" horiz-adv-x="574" 
d="M33 70l348 470h38v-460h113v-39h-113v-157h-42v157h-344v29zM377 80v329q0 11 0.5 22t1.5 20q0 11 1 21h-2q-5 -9 -11 -18q-5 -9 -11 -18.5t-13 -18.5l-252 -337h286z" />
    <glyph glyph-name="four.t_osf" horiz-adv-x="556" 
d="M34 70l348 470h38v-460h113v-39h-113v-157h-42v157h-344v29zM378 80v329q0 11 0.5 22t1.5 20q0 11 1 21h-2q-5 -9 -11 -18q-5 -9 -11 -18.5t-13 -18.5l-252 -337h286z" />
    <glyph glyph-name="four.tnum" horiz-adv-x="556" 
d="M27 230l363 470h40v-460h104v-40h-104v-200h-43v200h-360v30zM387 240v328q0 11 0.5 22t1.5 20q0 11 1 21h-2q-5 -7 -11 -15q-5 -8 -11 -16t-13 -17l-266 -341v-2h300z" />
    <glyph glyph-name="guillemotleft.case" horiz-adv-x="528" 
d="M233 342l164 206h53l-164 -206l164 -205h-53zM73 342l164 206h53l-164 -206l164 -205h-53z" />
    <glyph glyph-name="guillemotright.case" horiz-adv-x="528" 
d="M402 342l-164 206h53l164 -206l-164 -205h-53zM242 342l-164 206h53l164 -206l-164 -205h-53z" />
    <glyph glyph-name="guilsinglleft.case" horiz-adv-x="368" 
d="M73 342l164 206h53l-164 -206l164 -205h-53z" />
    <glyph glyph-name="guilsinglright.case" horiz-adv-x="368" 
d="M242 342l-164 206h53l164 -206l-164 -205h-53z" />
    <glyph glyph-name="hyphen.case" horiz-adv-x="396" 
d="M60 369h276v-40h-276v40z" />
    <glyph glyph-name="nine.denominator" 
d="M40 296q0 37 11 64.5t30 46t44 28t53 9.5q36 0 64.5 -15.5t48 -42.5t29.5 -63.5t10 -77.5t-10 -86t-32.5 -82.5t-57.5 -62t-86 -24.5q-17 0 -32 3t-27 7q-13 4 -24 10l19 32q9 -4 19 -8q10 -3 21.5 -5.5t24.5 -2.5q32 0 57 15t43 40t29.5 57t15.5 66h-2
q-17 -21 -49 -34.5t-61 -13.5q-60 0 -99 38t-39 102zM79 296q0 -48 28 -76t72 -28q22 0 42 7t35 18.5t24 25.5t9 27q0 21 -7.5 45.5t-22 45t-35 34t-46.5 13.5q-48 0 -73.5 -32.5t-25.5 -79.5z" />
    <glyph glyph-name="nine.numerator" 
d="M40 562q0 37 11 64.5t30 46t44 28t53 9.5q36 0 64.5 -15.5t48 -42.5t29.5 -63.5t10 -77.5t-10 -86t-32.5 -82.5t-57.5 -62t-86 -24.5q-17 0 -32 3t-27 7q-13 4 -24 10l19 32q9 -4 19 -8q10 -3 21.5 -5.5t24.5 -2.5q32 0 57 15t43 40t29.5 57t15.5 66h-2
q-17 -21 -49 -34.5t-61 -13.5q-60 0 -99 38t-39 102zM79 562q0 -48 28 -76t72 -28q22 0 42 7t35 18.5t24 25.5t9 27q0 21 -7.5 45.5t-22 45t-35 34t-46.5 13.5q-48 0 -73.5 -32.5t-25.5 -79.5z" />
    <glyph glyph-name="nine.p_osf" horiz-adv-x="582" 
d="M109 -64q13 -6 29 -12q15 -4 33 -7.5t41 -3.5q61 0 107 27t77.5 71t49 99t21.5 112h-2q-30 -48 -83.5 -72t-115.5 -24q-46 0 -85.5 14.5t-68 41.5t-45 65t-16.5 86q0 54 17.5 94.5t47 68.5t68.5 42t82 14q58 0 103 -23.5t76.5 -64t48 -95t16.5 -115.5t-16.5 -128.5
t-52.5 -124t-93 -93t-138 -36.5q-27 0 -49.5 4t-38.5 9q-19 6 -34 13zM268 167q41 0 76 12t61.5 31t41.5 42.5t15 45.5q0 34 -13.5 71.5t-39 69t-61.5 52t-81 20.5q-41 0 -73 -13.5t-54 -37t-33.5 -56t-11.5 -71.5t12.5 -69.5t35.5 -52t55 -33t70 -11.5z" />
    <glyph glyph-name="nine.t_osf" horiz-adv-x="556" 
d="M106 -64q13 -6 29 -12q15 -4 33 -7.5t41 -3.5q61 0 107 27t77.5 71t49 99t21.5 112h-2q-30 -48 -83.5 -72t-115.5 -24q-46 0 -85.5 14.5t-68 41.5t-45 65t-16.5 86q0 54 17.5 94.5t47 68.5t68.5 42t82 14q58 0 103 -23.5t76.5 -64t48 -95t16.5 -115.5t-16.5 -128.5
t-52.5 -124t-93 -93t-138 -36.5q-27 0 -49.5 4t-38.5 9q-19 6 -34 13zM265 167q41 0 76 12t61.5 31t41.5 42.5t15 45.5q0 34 -13.5 71.5t-39 69t-61.5 52t-81 20.5q-41 0 -73 -13.5t-54 -37t-33.5 -56t-11.5 -71.5t12.5 -69.5t35.5 -52t55 -33t70 -11.5z" />
    <glyph glyph-name="nine.tnum" horiz-adv-x="556" 
d="M205 -12q-27 0 -49.5 4.5t-38.5 9.5q-19 6 -34 14l21 39q13 -7 29 -12q15 -6 33 -9.5t41 -3.5q61 0 107 28.5t77.5 74.5t48.5 103.5t21 115.5h-2q-29 -45 -82.5 -70.5t-115.5 -25.5q-46 0 -85.5 15.5t-68 45t-45 70.5t-16.5 92q0 57 17.5 100.5t47 73t68.5 44.5t82 15
q58 0 103.5 -26t77 -70.5t48 -104t16.5 -126.5q0 -64 -16.5 -134t-53 -128.5t-93.5 -96.5t-138 -38zM263 298q41 0 76 13t61.5 33t41.5 44.5t15 48.5q0 36 -13.5 77t-39 75.5t-61.5 57.5t-81 23q-40 0 -72 -14t-54 -39.5t-33.5 -60.5t-11.5 -77t12.5 -75.5t35.5 -57
t54.5 -36t69.5 -12.5z" />
    <glyph glyph-name="one.denominator" 
d="M77 36h96v325q0 7 1 15v7h-1q-1 -3 -4 -6q-3 -4 -7.5 -9t-11.5 -12l-44 -43l-26 27l93 94h38v-398h93v-36h-227v36z" />
    <glyph glyph-name="one.numerator" 
d="M77 302h96v325q0 7 1 15v7h-1q-1 -3 -4 -6q-3 -4 -7.5 -9t-11.5 -12l-44 -43l-26 27l93 94h38v-398h93v-36h-227v36z" />
    <glyph glyph-name="one.p_osf" horiz-adv-x="442" 
d="M70 39h159v409v19t1 15v14h-2q-5 -4 -11 -8q-5 -4 -12 -8.5t-16 -9.5l-117 -71l-20 31l177 110h42v-501h140v-39h-341v39z" />
    <glyph glyph-name="one.t_osf" horiz-adv-x="556" 
d="M137 39h159v409v19t1 15v14h-2q-5 -4 -11 -8q-5 -4 -12 -8.5t-16 -9.5l-117 -71l-20 31l177 110h42v-501h140v-39h-341v39z" />
    <glyph glyph-name="one.tnum" horiz-adv-x="556" 
d="M110 40h159v570v13t1 11v11h-2q-2 -4 -7 -10t-12 -14t-18 -19l-83 -83l-30 29l151 152h43v-660h155v-40h-357v40z" />
    <glyph glyph-name="parenleft.case" horiz-adv-x="316" 
d="M212 -65q-51 90 -80.5 201t-29.5 229q0 109 28.5 205.5t81.5 184.5h44q-54 -91 -83.5 -188t-29.5 -203q0 -112 28 -220.5t85 -208.5h-44z" />
    <glyph glyph-name="parenright.case" horiz-adv-x="316" 
d="M60 -65q57 100 85 208.5t28 220.5q0 106 -29.5 203t-83.5 188h44q53 -88 81.5 -184.5t28.5 -205.5q0 -118 -29.5 -229t-80.5 -201h-44z" />
    <glyph glyph-name="periodcentered.case" horiz-adv-x="307" 
d="M125 376h57v-59h-57v59z" />
    <glyph glyph-name="questiondown.case" horiz-adv-x="491" 
d="M82 160q0 42 13.5 71.5t33.5 53.5t43.5 44t43.5 42t33.5 48t13.5 62v44h43v-44q0 -39 -13.5 -69t-33 -54.5t-43 -46t-43 -44t-33 -48.5t-13.5 -60q0 -27 10.5 -50.5t30 -41t46 -27.5t59.5 -10q28 0 51 6.5t40 14.5q20 9 36 21l23 -34q-18 -14 -41 -25
q-21 -10 -47.5 -17.5t-60.5 -7.5q-43 0 -78.5 13t-60.5 36t-39 54.5t-14 68.5zM255 700h59v-61h-59v61z" />
    <glyph glyph-name="seven.denominator" 
d="M245 333q7 13 13.5 25t11.5 21q6 10 12 19v2q-6 -1 -14 -1t-18 -0.5t-23 -0.5h-178v36h279v-26l-214 -408h-43z" />
    <glyph glyph-name="seven.numerator" 
d="M245 599q7 13 13.5 25t11.5 21q6 10 12 19v2q-6 -1 -14 -1t-18 -0.5t-23 -0.5h-178v36h279v-26l-214 -408h-43z" />
    <glyph glyph-name="seven.p_osf" horiz-adv-x="492" 
d="M380 441q6 12 12 23t11 19q6 10 11 18v2q-6 -1 -14 -1t-18 -0.5t-23 -0.5h-325v39h429v-28l-317 -628h-46z" />
    <glyph glyph-name="seven.t_osf" horiz-adv-x="556" 
d="M411 441q6 12 12 23t11 19q6 10 11 18v2q-6 -1 -14 -1t-18 -0.5t-23 -0.5h-325v39h429v-28l-317 -628h-46z" />
    <glyph glyph-name="seven.tnum" horiz-adv-x="556" 
d="M424 595q6 13 12.5 25t12.5 21q6 10 12 19v2q-6 -1 -14 -1t-18 -0.5t-23 -0.5h-340v40h443v-30l-332 -670h-45z" />
    <glyph glyph-name="six.denominator" 
d="M198 -10q-36 0 -64.5 15.5t-48 42.5t-29.5 63.5t-10 77.5t10 86t32.5 82.5t57.5 62t86 24.5q17 0 32 -3t27 -7q13 -4 24 -10l-19 -32q-9 4 -19 8q-10 3 -21.5 5.5t-24.5 2.5q-32 0 -57 -15t-43 -40t-29.5 -57t-15.5 -66h2q17 21 49 34.5t61 13.5q60 0 99 -38t39 -102
q0 -37 -11 -64.5t-30 -46t-44 -28t-53 -9.5zM198 26q48 0 73.5 32.5t25.5 79.5q0 48 -28 76t-72 28q-22 0 -42 -7t-35 -18.5t-24 -25t-9 -27.5q0 -21 7.5 -45.5t22 -45t35 -34t46.5 -13.5z" />
    <glyph glyph-name="six.numerator" 
d="M198 256q-36 0 -64.5 15.5t-48 42.5t-29.5 63.5t-10 77.5t10 86t32.5 82.5t57.5 62t86 24.5q17 0 32 -3t27 -7q13 -4 24 -10l-19 -32q-9 4 -19 8q-10 3 -21.5 5.5t-24.5 2.5q-32 0 -57 -15t-43 -40t-29.5 -57t-15.5 -66h2q17 21 49 34.5t61 13.5q60 0 99 -38t39 -102
q0 -37 -11 -64.5t-30 -46t-44 -28t-53 -9.5zM198 292q48 0 73.5 32.5t25.5 79.5q0 48 -28 76t-72 28q-22 0 -42 -7t-35 -18.5t-24 -25t-9 -27.5q0 -21 7.5 -45.5t22 -45t35 -34t46.5 -13.5z" />
    <glyph glyph-name="six.p_osf" horiz-adv-x="582" 
d="M72 286q0 62 16.5 129t52.5 123.5t93 93t138 36.5q27 0 49.5 -4t38.5 -9q19 -6 34 -13l-21 -38q-13 6 -29 12q-15 4 -33 7.5t-41 3.5q-61 0 -107 -27t-77.5 -71t-49 -99t-21.5 -112h2q30 48 83.5 72t115.5 24q46 0 85.5 -14.5t68 -41.5t45 -65t16.5 -86
q0 -54 -17.5 -94.5t-47 -68.5t-68.5 -42t-82 -14q-58 0 -103 23.5t-76.5 64t-48 95t-16.5 115.5zM120 242q0 -34 13.5 -71.5t39 -69t61.5 -52t81 -20.5q41 0 73 13.5t54 37t33.5 56t11.5 71.5t-12.5 69.5t-35.5 52t-55 33t-70 11.5q-40 0 -75.5 -12t-62 -31t-41.5 -42.5
t-15 -45.5z" />
    <glyph glyph-name="six.t_osf" horiz-adv-x="556" 
d="M49 286q0 62 16.5 129t52.5 123.5t93 93t138 36.5q27 0 49.5 -4t38.5 -9q19 -6 34 -13l-21 -38q-13 6 -29 12q-15 4 -33 7.5t-41 3.5q-61 0 -107 -27t-77.5 -71t-49 -99t-21.5 -112h2q30 48 83.5 72t115.5 24q46 0 85.5 -14.5t68 -41.5t45 -65t16.5 -86
q0 -54 -17.5 -94.5t-47 -68.5t-68.5 -42t-82 -14q-58 0 -103 23.5t-76.5 64t-48 95t-16.5 115.5zM97 242q0 -34 13.5 -71.5t39 -69t61.5 -52t81 -20.5q41 0 73 13.5t54 37t33.5 56t11.5 71.5t-12.5 69.5t-35.5 52t-55 33t-70 11.5q-40 0 -75.5 -12t-62 -31t-41.5 -42.5
t-15 -45.5z" />
    <glyph glyph-name="six.tnum" horiz-adv-x="556" 
d="M296 -12q-58 0 -103.5 26t-77 70.5t-48 104t-16.5 126.5q0 64 16.5 134t53 128.5t93.5 96.5t138 38q27 0 49.5 -4.5t38.5 -9.5q19 -6 34 -14l-21 -39q-13 7 -29 13q-15 5 -33 8.5t-41 3.5q-61 0 -107 -28.5t-77.5 -74.5t-48.5 -103.5t-21 -115.5h2q29 45 82.5 70.5
t115.5 25.5q46 0 85.5 -15.5t68 -45t45 -70.5t16.5 -92q0 -57 -17.5 -100.5t-47 -73t-68.5 -44.5t-82 -15zM295 30q41 0 72.5 14t53.5 39.5t33.5 60.5t11.5 77t-12.5 75.5t-35.5 57t-54.5 36t-69.5 12.5q-40 0 -75.5 -13t-62 -33t-41.5 -44.5t-15 -48.5q0 -36 13.5 -77
t39 -75.5t61.5 -57.5t81 -23z" />
    <glyph glyph-name="sterling.osf" horiz-adv-x="604" 
d="M62 39h66v209h-46v39h46v121q0 37 15 69.5t41.5 56.5t63.5 37.5t81 13.5q36 0 64.5 -8t49.5 -17q24 -12 43 -26l-29 -33q-16 12 -36 22q-18 8 -41 14.5t-52 6.5q-39 0 -68.5 -11.5t-49.5 -31t-30 -44.5t-10 -53v-117h243v-39h-243v-209h351v-39h-459v39z" />
    <glyph glyph-name="three.denominator" 
d="M184 -10q-36 0 -62 10t-43 23q-20 14 -33 32l28 26q11 -15 27 -27q15 -12 35 -20t49 -8q18 0 36.5 7.5t33.5 21t24 32t9 40.5q0 23 -9.5 41t-24.5 30t-34 18.5t-39 6.5h-32l-11 24l108 127q4 5 8.5 9.5t8.5 7.5l8 8v2q-5 -1 -11 -1q-6 -1 -12.5 -1.5t-14.5 -0.5h-164v36
h255v-26l-128 -150q20 -1 43 -8.5t42.5 -22.5t32.5 -39.5t13 -60.5q0 -29 -11.5 -54t-31 -43.5t-45.5 -29t-55 -10.5z" />
    <glyph glyph-name="three.numerator" 
d="M184 256q-36 0 -62 10t-43 23q-20 14 -33 32l28 26q11 -15 27 -27q15 -12 35 -20t49 -8q18 0 36.5 7.5t33.5 21t24 32t9 40.5q0 23 -9.5 41t-24.5 30t-34 18.5t-39 6.5h-32l-11 24l108 127q4 5 8.5 9.5t8.5 7.5l8 8v2q-5 -1 -11 -1q-6 -1 -12.5 -1.5t-14.5 -0.5h-164v36
h255v-26l-128 -150q20 -1 43 -8.5t42.5 -22.5t32.5 -39.5t13 -60.5q0 -29 -11.5 -54t-31 -43.5t-45.5 -29t-55 -10.5z" />
    <glyph glyph-name="three.p_osf" horiz-adv-x="474" 
d="M24 -8q18 -22 43 -40q23 -16 54 -27.5t73 -11.5q33 0 64 11t55.5 31.5t39.5 50.5t15 67q0 39 -16 68t-42 47.5t-60 28t-70 9.5h-47l-12 32l192 213l11.5 11.5l9.5 9.5q5 5 10 9v2q-6 -1 -14 -1q-7 0 -17 -0.5t-23 -0.5h-255v39h372v-28l-226 -245q32 0 72 -8t75 -29
t59.5 -59t24.5 -98q0 -46 -18 -83t-48 -63.5t-70 -40.5t-84 -14q-49 0 -86 14t-63 31q-29 21 -51 46z" />
    <glyph glyph-name="three.t_osf" horiz-adv-x="556" 
d="M90 -8q18 -22 43 -40q23 -16 54 -27.5t73 -11.5q33 0 64 11t55.5 31.5t39.5 50.5t15 67q0 39 -16 68t-42 47.5t-60 28t-70 9.5h-47l-12 32l192 213l11.5 11.5l9.5 9.5q5 5 10 9v2q-6 -1 -14 -1q-7 0 -17 -0.5t-23 -0.5h-255v39h372v-28l-226 -245q32 0 72 -8t75 -29
t59.5 -59t24.5 -98q0 -46 -18 -83t-48 -63.5t-70 -40.5t-84 -14q-49 0 -86 14t-63 31q-29 21 -51 46z" />
    <glyph glyph-name="three.tnum" horiz-adv-x="556" 
d="M87 117q22 -24 51 -43q26 -18 60 -31t77 -13q33 0 64.5 12.5t56 35t39.5 54t15 70.5q0 41 -16 72t-42 52t-59.5 32t-69.5 11h-48l-12 30l196 229q6 7 11.5 12.5t9.5 10.5q5 5 10 9v2q-6 -1 -14 -1q-7 0 -17 -0.5t-23 -0.5h-287v40h401v-30l-226 -261q32 0 72 -9t75 -32.5
t59.5 -63.5t24.5 -102q0 -45 -17.5 -84t-48 -68t-71 -45.5t-85.5 -16.5q-50 0 -90 15t-69 34q-33 21 -59 48z" />
    <glyph glyph-name="two.denominator" 
d="M55 0q-1 7 -1.5 14t-0.5 13q0 41 16.5 69.5t41 51t53 41t53 37.5t41 41.5t16.5 53.5q0 35 -24.5 61t-66.5 26q-22 0 -39 -8t-29 -17q-15 -11 -26 -25l-24 26q13 17 31 30q16 12 37 21t50 9q32 0 56.5 -10t41 -27t24.5 -39.5t8 -46.5q0 -37 -16 -64t-40.5 -47.5t-52.5 -38
t-52.5 -36.5t-41.5 -42.5t-18 -56.5h229v-36h-266z" />
    <glyph glyph-name="two.numerator" 
d="M55 266q-1 7 -1.5 14t-0.5 13q0 41 16.5 69.5t41 51t53 41t53 37.5t41 41.5t16.5 53.5q0 35 -24.5 61t-66.5 26q-22 0 -39 -8t-29 -17q-15 -11 -26 -25l-24 26q13 17 31 30q16 12 37 21t50 9q32 0 56.5 -10t41 -27t24.5 -39.5t8 -46.5q0 -37 -16 -64t-40.5 -47.5
t-52.5 -38t-52.5 -36.5t-41.5 -42.5t-18 -56.5h229v-36h-266z" />
    <glyph glyph-name="two.p_osf" horiz-adv-x="520" 
d="M62 32q90 61 153.5 109.5t104 89.5t59 78t18.5 75q0 33 -12 57t-32.5 39.5t-48 23t-58.5 7.5q-35 0 -65 -12.5t-52 -26.5q-25 -18 -46 -40l-27 30q23 25 52 45q27 18 62 31.5t80 13.5q51 0 87.5 -15.5t59.5 -39t33.5 -52.5t10.5 -56q0 -43 -17.5 -84t-54.5 -82.5
t-94.5 -86.5t-138.5 -97v-2q6 1 14 1q7 0 17 0.5t23 0.5h277v-39h-405v32z" />
    <glyph glyph-name="two.t_osf" horiz-adv-x="556" 
d="M89 32q90 61 153.5 109.5t104 89.5t59 78t18.5 75q0 33 -12 57t-32.5 39.5t-48 23t-58.5 7.5q-35 0 -65 -12.5t-52 -26.5q-25 -18 -46 -40l-27 30q23 25 52 45q27 18 62 31.5t80 13.5q51 0 87.5 -15.5t59.5 -39t33.5 -52.5t10.5 -56q0 -43 -17.5 -84t-54.5 -82.5
t-94.5 -86.5t-138.5 -97v-2q6 1 14 1q7 0 17 0.5t23 0.5h277v-39h-405v32z" />
    <glyph glyph-name="two.tnum" horiz-adv-x="556" 
d="M76 0q-3 20 -3 37q0 61 27.5 105.5t69 80.5t90 67t90 64.5t69 73t27.5 92.5q0 32 -11.5 59t-32.5 47.5t-51 32t-68 11.5q-42 0 -73.5 -15.5t-53.5 -34.5q-25 -22 -43 -50l-32 22q20 34 49 60q27 24 64 42t90 18q52 0 90.5 -16t64.5 -42.5t39 -61t13 -72.5
q0 -60 -27.5 -104t-69 -80t-89.5 -66.5t-89.5 -64t-69 -73t-27.5 -92.5h383v-40h-426z" />
    <glyph glyph-name="yen.osf" horiz-adv-x="579" 
d="M101 317h114l-159 258h49l141 -232q8 -12 15.5 -25.5t13.5 -24.5l14 -26h2q6 12 14 25q6 12 13.5 25t15.5 26l141 232h49l-158 -258h111v-40h-136l-29 -48v-32h165v-40h-165v-157h-43v157h-168v40h168v32l-30 48h-138v40z" />
    <glyph glyph-name="zero.denominator" 
d="M188 -10q-42 0 -70.5 17.5t-45.5 48t-24.5 72t-7.5 89.5t7.5 89.5t24.5 72t45.5 48t70.5 17.5t70.5 -17.5t45.5 -48t24.5 -72t7.5 -89.5t-7.5 -89.5t-24.5 -72t-45.5 -48t-70.5 -17.5zM188 26q32 0 52.5 14.5t33.5 40.5t18 61t5 75t-5 75t-18 60.5t-33.5 40.5t-52.5 15
t-53 -15t-33.5 -40.5t-17.5 -60.5t-5 -75t5 -75t17.5 -61t33.5 -40.5t53 -14.5z" />
    <glyph glyph-name="zero.numerator" 
d="M188 256q-42 0 -70.5 17.5t-45.5 48t-24.5 72t-7.5 89.5t7.5 89.5t24.5 72t45.5 48t70.5 17.5t70.5 -17.5t45.5 -48t24.5 -72t7.5 -89.5t-7.5 -89.5t-24.5 -72t-45.5 -48t-70.5 -17.5zM188 292q32 0 52.5 14.5t33.5 40.5t18 61t5 75t-5 75t-18 60.5t-33.5 40.5t-52.5 15
t-53 -15t-33.5 -40.5t-17.5 -60.5t-5 -75t5 -75t17.5 -61t33.5 -40.5t53 -14.5z" />
    <glyph glyph-name="zero.p_osf" horiz-adv-x="586" 
d="M63 268q0 53 14.5 104t43 91t72 64.5t100.5 24.5t100.5 -24.5t72 -64.5t43 -91t14.5 -104q0 -52 -14.5 -102.5t-43 -90t-71.5 -63.5t-101 -24t-101 24t-71.5 63.5t-43 90t-14.5 102.5zM107 270q0 -45 11.5 -88.5t35 -77t58.5 -54.5t81 -21q47 0 81.5 21t58 54.5t35 77
t11.5 88.5t-11.5 88.5t-35 77t-58 54.5t-81.5 21q-46 0 -81 -21t-58.5 -54.5t-35 -77t-11.5 -88.5z" />
    <glyph glyph-name="zero.t_osf" horiz-adv-x="556" 
d="M49 268q0 53 14.5 104t43 91t72 64.5t100.5 24.5t100.5 -24.5t72 -64.5t43 -91t14.5 -104q0 -52 -14.5 -102.5t-43 -90t-71.5 -63.5t-101 -24t-101 24t-71.5 63.5t-43 90t-14.5 102.5zM93 270q0 -45 11.5 -88.5t35 -77t58.5 -54.5t81 -21q47 0 81.5 21t58 54.5t35 77
t11.5 88.5t-11.5 88.5t-35 77t-58 54.5t-81.5 21q-46 0 -81 -21t-58.5 -54.5t-35 -77t-11.5 -88.5z" />
    <glyph glyph-name="zero.tnum" horiz-adv-x="556" 
d="M279 -12q-67 0 -112 28t-72.5 77t-39.5 115t-12 142t12 142t39.5 115t72.5 77t112 28t112 -28t72.5 -77t39.5 -115t12 -142t-12 -142t-39.5 -115t-72.5 -77t-112 -28zM279 30q56 0 93 24.5t58.5 67.5t30.5 101.5t9 126.5t-9 126t-30.5 101.5t-58.5 68t-93 24.5t-93 -24.5
t-58.5 -68t-30.5 -101.5t-9 -126t9 -126.5t30.5 -101.5t58.5 -67.5t93 -24.5z" />
    </font>
</defs>
</svg>
