<svg width="23" height="23" viewBox="0 0 23 23" fill="none" xmlns="http://www.w3.org/2000/svg">
<path d="M2.72926 22.55C2.08467 22.55 1.54368 22.3313 1.10629 21.8939C0.668893 21.4565 0.450195 20.9155 0.450195 20.2709C0.450195 19.6264 0.668893 19.0854 1.10629 18.648C1.54368 18.2106 2.08467 17.9919 2.72926 17.9919C3.37384 17.9919 3.91483 18.2106 4.35223 18.648C4.78962 19.0854 5.00832 19.6264 5.00832 20.2709C5.00832 20.9155 4.78962 21.4565 4.35223 21.8939C3.91483 22.3313 3.37384 22.55 2.72926 22.55ZM11.5002 22.55C10.8556 22.55 10.3146 22.3313 9.87723 21.8939C9.43983 21.4565 9.22113 20.9155 9.22113 20.2709C9.22113 19.6264 9.43983 19.0854 9.87723 18.648C10.3146 18.2106 10.8556 17.9919 11.5002 17.9919C12.1448 17.9919 12.6858 18.2106 13.1232 18.648C13.5606 19.0854 13.7793 19.6264 13.7793 20.2709C13.7793 20.9155 13.5606 21.4565 13.1232 21.8939C12.6858 22.3313 12.1448 22.55 11.5002 22.55ZM20.2711 22.55C19.6266 22.55 19.0856 22.3313 18.6482 21.8939C18.2108 21.4565 17.9921 20.9155 17.9921 20.2709C17.9921 19.6264 18.2108 19.0854 18.6482 18.648C19.0856 18.2106 19.6266 17.9919 20.2711 17.9919C20.9157 17.9919 21.4567 18.2106 21.8941 18.648C22.3315 19.0854 22.5502 19.6264 22.5502 20.2709C22.5502 20.9155 22.3315 21.4565 21.8941 21.8939C21.4567 22.3313 20.9157 22.55 20.2711 22.55ZM2.72926 13.7791C2.08467 13.7791 1.54368 13.5604 1.10629 13.123C0.668893 12.6856 0.450195 12.1446 0.450195 11.5C0.450195 10.8554 0.668893 10.3144 1.10629 9.87703C1.54368 9.43963 2.08467 9.22093 2.72926 9.22093C3.37384 9.22093 3.91483 9.43963 4.35223 9.87703C4.78962 10.3144 5.00832 10.8554 5.00832 11.5C5.00832 12.1446 4.78962 12.6856 4.35223 13.123C3.91483 13.5604 3.37384 13.7791 2.72926 13.7791ZM11.5002 13.7791C10.8556 13.7791 10.3146 13.5604 9.87723 13.123C9.43983 12.6856 9.22113 12.1446 9.22113 11.5C9.22113 10.8554 9.43983 10.3144 9.87723 9.87703C10.3146 9.43963 10.8556 9.22093 11.5002 9.22093C12.1448 9.22093 12.6858 9.43963 13.1232 9.87703C13.5606 10.3144 13.7793 10.8554 13.7793 11.5C13.7793 12.1446 13.5606 12.6856 13.1232 13.123C12.6858 13.5604 12.1448 13.7791 11.5002 13.7791ZM20.2711 13.7791C19.6266 13.7791 19.0856 13.5604 18.6482 13.123C18.2108 12.6856 17.9921 12.1446 17.9921 11.5C17.9921 10.8554 18.2108 10.3144 18.6482 9.87703C19.0856 9.43963 19.6266 9.22093 20.2711 9.22093C20.9157 9.22093 21.4567 9.43963 21.8941 9.87703C22.3315 10.3144 22.5502 10.8554 22.5502 11.5C22.5502 12.1446 22.3315 12.6856 21.8941 13.123C21.4567 13.5604 20.9157 13.7791 20.2711 13.7791ZM2.72926 5.00812C2.08467 5.00812 1.54368 4.78942 1.10629 4.35203C0.668893 3.91463 0.450195 3.37364 0.450195 2.72906C0.450195 2.08448 0.668893 1.54349 1.10629 1.10609C1.54368 0.668695 2.08467 0.449997 2.72926 0.449997C3.37384 0.449997 3.91483 0.668695 4.35223 1.10609C4.78962 1.54349 5.00832 2.08448 5.00832 2.72906C5.00832 3.37364 4.78962 3.91463 4.35223 4.35203C3.91483 4.78942 3.37384 5.00812 2.72926 5.00812ZM11.5002 5.00812C10.8556 5.00812 10.3146 4.78942 9.87723 4.35203C9.43983 3.91463 9.22113 3.37364 9.22113 2.72906C9.22113 2.08448 9.43983 1.54349 9.87723 1.10609C10.3146 0.668695 10.8556 0.449997 11.5002 0.449997C12.1448 0.449997 12.6858 0.668695 13.1232 1.10609C13.5606 1.54349 13.7793 2.08448 13.7793 2.72906C13.7793 3.37364 13.5606 3.91463 13.1232 4.35203C12.6858 4.78942 12.1448 5.00812 11.5002 5.00812ZM20.2711 5.00812C19.6266 5.00812 19.0856 4.78942 18.6482 4.35203C18.2108 3.91463 17.9921 3.37364 17.9921 2.72906C17.9921 2.08448 18.2108 1.54349 18.6482 1.10609C19.0856 0.668695 19.6266 0.449997 20.2711 0.449997C20.9157 0.449997 21.4567 0.668695 21.8941 1.10609C22.3315 1.54349 22.5502 2.08448 22.5502 2.72906C22.5502 3.37364 22.3315 3.91463 21.8941 4.35203C21.4567 4.78942 20.9157 5.00812 20.2711 5.00812Z" fill="black"/>
</svg>
