<svg width="14" height="10" viewBox="0 0 14 10" fill="none" xmlns="http://www.w3.org/2000/svg">
<mask id="path-1-inside-1_272_2703" fill="white">
<path d="M4.8172 10L0 5.23404L0.924731 4.31915L4.8172 8.17021L13.0753 0L14 0.914894L4.8172 10Z"/>
</mask>
<path d="M4.8172 10L0 5.23404L0.924731 4.31915L4.8172 8.17021L13.0753 0L14 0.914894L4.8172 10Z" fill="white"/>
<path d="M4.8172 10L-0.106004 14.9761L4.8172 19.847L9.74041 14.9761L4.8172 10ZM0 5.23404L-4.92321 0.257896L-9.95286 5.23404L-4.92321 10.2102L0 5.23404ZM0.924731 4.31915L5.84794 -0.656996L0.924733 -5.52783L-3.99848 -0.656997L0.924731 4.31915ZM4.8172 8.17021L-0.106004 13.1464L4.8172 18.0172L9.74041 13.1464L4.8172 8.17021ZM13.0753 0L17.9985 -4.97615L13.0753 -9.84698L8.15206 -4.97615L13.0753 0ZM14 0.914894L18.9232 5.89104L23.9529 0.914893L18.9232 -4.06125L14 0.914894ZM9.74041 5.02385L4.92321 0.257897L-4.92321 10.2102L-0.106004 14.9761L9.74041 5.02385ZM4.92321 10.2102L5.84794 9.2953L-3.99848 -0.656997L-4.92321 0.257896L4.92321 10.2102ZM-3.99848 9.29529L-0.106004 13.1464L9.74041 3.19407L5.84794 -0.656996L-3.99848 9.29529ZM9.74041 13.1464L17.9985 4.97615L8.15206 -4.97615L-0.106004 3.19407L9.74041 13.1464ZM8.15206 4.97615L9.07679 5.89104L18.9232 -4.06125L17.9985 -4.97615L8.15206 4.97615ZM9.07679 -4.06125L-0.106004 5.02385L9.74041 14.9761L18.9232 5.89104L9.07679 -4.06125Z" fill="white" mask="url(#path-1-inside-1_272_2703)"/>
</svg>
