<svg width="31" height="30" viewBox="0 0 31 30" fill="none" xmlns="http://www.w3.org/2000/svg">
<path d="M15.5 0L17.4446 3.11811L20.2898 0.734152L21.1436 4.28119L24.6107 2.86475L24.29 6.49351L28.0398 6.18322L26.5761 9.53849L30.2414 10.3647L27.778 13.1181L31 15L27.778 16.8819L30.2414 19.6353L26.5761 20.4615L28.0398 23.8168L24.29 23.5065L24.6107 27.1353L21.1436 25.7188L20.2898 29.2658L17.4446 26.8819L15.5 30L13.5554 26.8819L10.7102 29.2658L9.85644 25.7188L6.38933 27.1353L6.70996 23.5065L2.96024 23.8168L4.4239 20.4615L0.758624 19.6353L3.22205 16.8819L0 15L3.22205 13.1181L0.758624 10.3647L4.4239 9.53849L2.96024 6.18322L6.70996 6.49351L6.38933 2.86475L9.85644 4.28119L10.7102 0.734152L13.5554 3.11811L15.5 0Z" fill="#00A843"/>
<mask id="path-2-inside-1_233_3354" fill="white">
<path d="M13.8172 20L9 15.234L9.92473 14.3191L13.8172 18.1702L22.0753 10L23 10.9149L13.8172 20Z"/>
</mask>
<path d="M13.8172 20L9 15.234L9.92473 14.3191L13.8172 18.1702L22.0753 10L23 10.9149L13.8172 20Z" fill="white"/>
<path d="M13.8172 20L8.894 24.9761L13.8172 29.847L18.7404 24.9761L13.8172 20ZM9 15.234L4.07679 10.2579L-0.952862 15.234L4.07679 20.2102L9 15.234ZM9.92473 14.3191L14.8479 9.343L9.92473 4.47217L5.00152 9.343L9.92473 14.3191ZM13.8172 18.1702L8.894 23.1464L13.8172 28.0172L18.7404 23.1464L13.8172 18.1702ZM22.0753 10L26.9985 5.02385L22.0753 0.153022L17.1521 5.02385L22.0753 10ZM23 10.9149L27.9232 15.891L32.9529 10.9149L27.9232 5.93875L23 10.9149ZM18.7404 15.0239L13.9232 10.2579L4.07679 20.2102L8.894 24.9761L18.7404 15.0239ZM13.9232 20.2102L14.8479 19.2953L5.00152 9.343L4.07679 10.2579L13.9232 20.2102ZM5.00152 19.2953L8.894 23.1464L18.7404 13.1941L14.8479 9.343L5.00152 19.2953ZM18.7404 23.1464L26.9985 14.9761L17.1521 5.02385L8.894 13.1941L18.7404 23.1464ZM17.1521 14.9761L18.0768 15.891L27.9232 5.93875L26.9985 5.02385L17.1521 14.9761ZM18.0768 5.93875L8.894 15.0239L18.7404 24.9761L27.9232 15.891L18.0768 5.93875Z" fill="white" mask="url(#path-2-inside-1_233_3354)"/>
</svg>
