<svg width="18" height="20" viewBox="0 0 18 20" fill="none" xmlns="http://www.w3.org/2000/svg">
<path d="M2.84063 20C2.37188 20 1.97344 19.838 1.64531 19.5139C1.31719 19.1898 1.15313 18.7963 1.15313 18.3333V2.5H0V0.833333H5.2875V0H12.7125V0.833333H18V2.5H16.8469V18.3333C16.8469 18.7778 16.6781 19.1667 16.3406 19.5C16.0031 19.8333 15.6094 20 15.1594 20H2.84063ZM15.1594 2.5H2.84063V18.3333H15.1594V2.5ZM5.82188 15.9444H7.50938V4.86111H5.82188V15.9444ZM10.4906 15.9444H12.1781V4.86111H10.4906V15.9444ZM2.84063 2.5V18.3333V2.5Z" fill="white"/>
</svg>
