<svg width="9" height="15" viewBox="0 0 9 15" fill="none" xmlns="http://www.w3.org/2000/svg">
<path d="M3.48065 7.46901L8.58103 2.42906C8.84938 2.16231 9 1.80147 9 1.42534C9 1.04921 8.84938 0.688372 8.58103 0.421621C8.44709 0.288178 8.28774 0.182262 8.11217 0.109981C7.93659 0.0377014 7.74827 0.000488281 7.55807 0.000488281C7.36787 0.000488281 7.17955 0.0377014 7.00398 0.109981C6.82841 0.182262 6.66905 0.288178 6.53511 0.421621L0.426182 6.45817C0.291139 6.59053 0.183954 6.74799 0.110807 6.92148C0.03766 7.09498 0 7.28106 0 7.46901C0 7.65696 0.03766 7.84305 0.110807 8.01654C0.183954 8.19003 0.291139 8.3475 0.426182 8.47985L6.53511 14.5876C6.66974 14.7195 6.8294 14.8239 7.00495 14.8948C7.18049 14.9656 7.36846 15.0015 7.55807 15.0005C7.74769 15.0015 7.93566 14.9656 8.1112 14.8948C8.28674 14.8239 8.4464 14.7195 8.58103 14.5876C8.84938 14.3208 9 13.96 9 13.5839C9 13.2077 8.84938 12.8469 8.58103 12.5801L3.48065 7.46901Z" fill="#143358"/>
</svg>
