<svg width="14" height="14" viewBox="0 0 14 14" fill="none" xmlns="http://www.w3.org/2000/svg">
<path d="M1.16667 14C0.855556 14 0.583333 13.8833 0.35 13.65C0.116667 13.4167 0 13.1444 0 12.8333V1.16667C0 0.855556 0.116667 0.583333 0.35 0.35C0.583333 0.116667 0.855556 0 1.16667 0H12.8333C13.1444 0 13.4167 0.116667 13.65 0.35C13.8833 0.583333 14 0.855556 14 1.16667V12.8333C14 13.1444 13.8833 13.4167 13.65 13.65C13.4167 13.8833 13.1444 14 12.8333 14H1.16667ZM1.16667 12.8333H12.8333V1.16667H1.16667V12.8333ZM2.25556 10.9472H11.7639L8.90556 7.13611L6.33889 10.4611L4.53056 7.99167L2.25556 10.9472ZM1.16667 12.8333V1.16667V12.8333Z" fill="#494949"/>
</svg>
