<svg width="23" height="23" viewBox="0 0 23 23" fill="none" xmlns="http://www.w3.org/2000/svg">
<path d="M2.72901 22.55C2.08443 22.55 1.54344 22.3313 1.10604 21.8939C0.668649 21.4565 0.449951 20.9155 0.449951 20.2709C0.449951 19.6264 0.668649 19.0854 1.10604 18.648C1.54344 18.2106 2.08443 17.9919 2.72901 17.9919C3.3736 17.9919 3.91459 18.2106 4.35198 18.648C4.78938 19.0854 5.00808 19.6264 5.00808 20.2709C5.00808 20.9155 4.78938 21.4565 4.35198 21.8939C3.91459 22.3313 3.3736 22.55 2.72901 22.55ZM11.5 22.55C10.8554 22.55 10.3144 22.3313 9.87698 21.8939C9.43959 21.4565 9.22089 20.9155 9.22089 20.2709C9.22089 19.6264 9.43959 19.0854 9.87698 18.648C10.3144 18.2106 10.8554 17.9919 11.5 17.9919C12.1445 17.9919 12.6855 18.2106 13.1229 18.648C13.5603 19.0854 13.779 19.6264 13.779 20.2709C13.779 20.9155 13.5603 21.4565 13.1229 21.8939C12.6855 22.3313 12.1445 22.55 11.5 22.55ZM20.2709 22.55C19.6263 22.55 19.0853 22.3313 18.6479 21.8939C18.2105 21.4565 17.9918 20.9155 17.9918 20.2709C17.9918 19.6264 18.2105 19.0854 18.6479 18.648C19.0853 18.2106 19.6263 17.9919 20.2709 17.9919C20.9155 17.9919 21.4565 18.2106 21.8939 18.648C22.3313 19.0854 22.55 19.6264 22.55 20.2709C22.55 20.9155 22.3313 21.4565 21.8939 21.8939C21.4565 22.3313 20.9155 22.55 20.2709 22.55ZM2.72901 13.7791C2.08443 13.7791 1.54344 13.5604 1.10604 13.123C0.668649 12.6856 0.449951 12.1446 0.449951 11.5C0.449951 10.8554 0.668649 10.3144 1.10604 9.87703C1.54344 9.43964 2.08443 9.22094 2.72901 9.22094C3.3736 9.22094 3.91459 9.43964 4.35198 9.87703C4.78938 10.3144 5.00808 10.8554 5.00808 11.5C5.00808 12.1446 4.78938 12.6856 4.35198 13.123C3.91459 13.5604 3.3736 13.7791 2.72901 13.7791ZM11.5 13.7791C10.8554 13.7791 10.3144 13.5604 9.87698 13.123C9.43959 12.6856 9.22089 12.1446 9.22089 11.5C9.22089 10.8554 9.43959 10.3144 9.87698 9.87703C10.3144 9.43964 10.8554 9.22094 11.5 9.22094C12.1445 9.22094 12.6855 9.43964 13.1229 9.87703C13.5603 10.3144 13.779 10.8554 13.779 11.5C13.779 12.1446 13.5603 12.6856 13.1229 13.123C12.6855 13.5604 12.1445 13.7791 11.5 13.7791ZM20.2709 13.7791C19.6263 13.7791 19.0853 13.5604 18.6479 13.123C18.2105 12.6856 17.9918 12.1446 17.9918 11.5C17.9918 10.8554 18.2105 10.3144 18.6479 9.87703C19.0853 9.43964 19.6263 9.22094 20.2709 9.22094C20.9155 9.22094 21.4565 9.43964 21.8939 9.87703C22.3313 10.3144 22.55 10.8554 22.55 11.5C22.55 12.1446 22.3313 12.6856 21.8939 13.123C21.4565 13.5604 20.9155 13.7791 20.2709 13.7791ZM2.72901 5.00813C2.08443 5.00813 1.54344 4.78943 1.10604 4.35203C0.668649 3.91463 0.449951 3.37365 0.449951 2.72906C0.449951 2.08448 0.668649 1.54349 1.10604 1.10609C1.54344 0.668698 2.08443 0.45 2.72901 0.45C3.3736 0.45 3.91459 0.668698 4.35198 1.10609C4.78938 1.54349 5.00808 2.08448 5.00808 2.72906C5.00808 3.37365 4.78938 3.91463 4.35198 4.35203C3.91459 4.78943 3.3736 5.00813 2.72901 5.00813ZM11.5 5.00813C10.8554 5.00813 10.3144 4.78943 9.87698 4.35203C9.43959 3.91463 9.22089 3.37365 9.22089 2.72906C9.22089 2.08448 9.43959 1.54349 9.87698 1.10609C10.3144 0.668698 10.8554 0.45 11.5 0.45C12.1445 0.45 12.6855 0.668698 13.1229 1.10609C13.5603 1.54349 13.779 2.08448 13.779 2.72906C13.779 3.37365 13.5603 3.91463 13.1229 4.35203C12.6855 4.78943 12.1445 5.00813 11.5 5.00813ZM20.2709 5.00813C19.6263 5.00813 19.0853 4.78943 18.6479 4.35203C18.2105 3.91463 17.9918 3.37365 17.9918 2.72906C17.9918 2.08448 18.2105 1.54349 18.6479 1.10609C19.0853 0.668698 19.6263 0.45 20.2709 0.45C20.9155 0.45 21.4565 0.668698 21.8939 1.10609C22.3313 1.54349 22.55 2.08448 22.55 2.72906C22.55 3.37365 22.3313 3.91463 21.8939 4.35203C21.4565 4.78943 20.9155 5.00813 20.2709 5.00813Z" fill="white"/>
</svg>
