<svg width="16" height="16" viewBox="0 0 16 16" fill="none" xmlns="http://www.w3.org/2000/svg">
<path d="M11.56 4.26667V1.33333H4.44V4.26667H3.24V0H12.76V4.26667H11.56ZM1.2 5.6H14.8H3.24H1.2ZM13.18 7.71111C13.34 7.71111 13.48 7.64444 13.6 7.51111C13.72 7.37778 13.78 7.22222 13.78 7.04444C13.78 6.86667 13.72 6.71111 13.6 6.57778C13.48 6.44444 13.34 6.37778 13.18 6.37778C13.02 6.37778 12.88 6.44444 12.76 6.57778C12.64 6.71111 12.58 6.86667 12.58 7.04444C12.58 7.22222 12.64 7.37778 12.76 7.51111C12.88 7.64444 13.02 7.71111 13.18 7.71111ZM11.56 14.6667V10.4H4.44V14.6667H11.56ZM12.76 16H3.24V12.0889H0V6.62222C0 5.95556 0.203333 5.3963 0.61 4.94444C1.01667 4.49259 1.52 4.26667 2.12 4.26667H13.88C14.48 4.26667 14.9833 4.49259 15.39 4.94444C15.7967 5.3963 16 5.95556 16 6.62222V12.0889H12.76V16ZM14.8 10.7556V6.62222C14.8 6.32593 14.7133 6.08148 14.54 5.88889C14.3667 5.6963 14.1467 5.6 13.88 5.6H2.12C1.85333 5.6 1.63333 5.6963 1.46 5.88889C1.28667 6.08148 1.2 6.32593 1.2 6.62222V10.7556H3.24V9.06667H12.76V10.7556H14.8Z" fill="white"/>
</svg>
