<svg width="19" height="19" viewBox="0 0 19 19" fill="none" xmlns="http://www.w3.org/2000/svg">
<path d="M7.315 19L6.84 16.0075C6.53917 15.8967 6.2225 15.7462 5.89 15.5562C5.5575 15.3663 5.26458 15.1683 5.01125 14.9625L2.20875 16.245L0 12.35L2.565 10.4737C2.53333 10.3312 2.51354 10.169 2.50562 9.98687C2.49771 9.80479 2.49375 9.6425 2.49375 9.5C2.49375 9.3575 2.49771 9.19521 2.50562 9.01312C2.51354 8.83104 2.53333 8.66875 2.565 8.52625L0 6.65L2.20875 2.755L5.01125 4.0375C5.26458 3.83167 5.5575 3.63375 5.89 3.44375C6.2225 3.25375 6.53917 3.11125 6.84 3.01625L7.315 0H11.685L12.16 2.9925C12.4608 3.10333 12.7815 3.24979 13.1219 3.43188C13.4623 3.61396 13.7512 3.81583 13.9887 4.0375L16.7912 2.755L19 6.65L16.435 8.47875C16.4667 8.63708 16.4865 8.80729 16.4944 8.98937C16.5023 9.17146 16.5063 9.34167 16.5063 9.5C16.5063 9.65833 16.5023 9.82458 16.4944 9.99875C16.4865 10.1729 16.4667 10.3392 16.435 10.4975L19 12.35L16.7912 16.245L13.9887 14.9625C13.7354 15.1683 13.4465 15.3702 13.1219 15.5681C12.7973 15.766 12.4767 15.9125 12.16 16.0075L11.685 19H7.315ZM9.5 12.5875C10.355 12.5875 11.0833 12.2867 11.685 11.685C12.2867 11.0833 12.5875 10.355 12.5875 9.5C12.5875 8.645 12.2867 7.91667 11.685 7.315C11.0833 6.71333 10.355 6.4125 9.5 6.4125C8.645 6.4125 7.91667 6.71333 7.315 7.315C6.71333 7.91667 6.4125 8.645 6.4125 9.5C6.4125 10.355 6.71333 11.0833 7.315 11.685C7.91667 12.2867 8.645 12.5875 9.5 12.5875ZM9.5 11.1625C9.04083 11.1625 8.64896 11.0002 8.32438 10.6756C7.99979 10.351 7.8375 9.95917 7.8375 9.5C7.8375 9.04083 7.99979 8.64896 8.32438 8.32438C8.64896 7.99979 9.04083 7.8375 9.5 7.8375C9.95917 7.8375 10.351 7.99979 10.6756 8.32438C11.0002 8.64896 11.1625 9.04083 11.1625 9.5C11.1625 9.95917 11.0002 10.351 10.6756 10.6756C10.351 11.0002 9.95917 11.1625 9.5 11.1625ZM8.455 17.575H10.545L10.8775 14.915C11.4 14.7883 11.8948 14.5904 12.3619 14.3213C12.829 14.0521 13.2525 13.7275 13.6325 13.3475L16.15 14.44L17.1 12.73L14.8675 11.0913C14.9308 10.8221 14.9823 10.5569 15.0219 10.2956C15.0615 10.0344 15.0812 9.76917 15.0812 9.5C15.0812 9.23083 15.0654 8.96562 15.0338 8.70438C15.0021 8.44312 14.9467 8.17792 14.8675 7.90875L17.1 6.27L16.15 4.56L13.6325 5.6525C13.2683 5.24083 12.8567 4.89646 12.3975 4.61937C11.9383 4.34229 11.4317 4.16417 10.8775 4.085L10.545 1.425H8.455L8.1225 4.085C7.58417 4.19583 7.08146 4.38583 6.61437 4.655C6.14729 4.92417 5.73167 5.25667 5.3675 5.6525L2.85 4.56L1.9 6.27L4.1325 7.90875C4.06917 8.17792 4.01771 8.44312 3.97812 8.70438C3.93854 8.96562 3.91875 9.23083 3.91875 9.5C3.91875 9.76917 3.93854 10.0344 3.97812 10.2956C4.01771 10.5569 4.06917 10.8221 4.1325 11.0913L1.9 12.73L2.85 14.44L5.3675 13.3475C5.7475 13.7275 6.17104 14.0521 6.63812 14.3213C7.10521 14.5904 7.6 14.7883 8.1225 14.915L8.455 17.575Z" fill="#143358"/>
</svg>
