<svg width="9" height="15" viewBox="0 0 9 15" fill="none" xmlns="http://www.w3.org/2000/svg">
<path d="M5.51935 7.53148L0.41897 12.5714C0.150622 12.8382 0 13.199 0 13.5751C0 13.9513 0.150622 14.3121 0.41897 14.5789C0.55291 14.7123 0.712261 14.8182 0.887835 14.8905C1.06341 14.9628 1.25173 15 1.44193 15C1.63213 15 1.82045 14.9628 1.99602 14.8905C2.17159 14.8182 2.33095 14.7123 2.46489 14.5789L8.57382 8.54232C8.70886 8.40996 8.81605 8.2525 8.88919 8.07901C8.96234 7.90551 9 7.71943 9 7.53148C9 7.34353 8.96234 7.15744 8.88919 6.98395C8.81605 6.81046 8.70886 6.65299 8.57382 6.52064L2.46489 0.412902C2.33026 0.28095 2.1706 0.176557 1.99505 0.105705C1.81951 0.0348549 1.63154 -0.00106049 1.44193 2.28882e-05C1.25231 -0.00106049 1.06434 0.0348549 0.888801 0.105705C0.713259 0.176557 0.553596 0.28095 0.41897 0.412902C0.150622 0.679652 0 1.0405 0 1.41662C0 1.79275 0.150622 2.15359 0.41897 2.42034L5.51935 7.53148Z" fill="#7A7A7A"/>
</svg>
