<svg width="14" height="11" viewBox="0 0 14 11" fill="none" xmlns="http://www.w3.org/2000/svg">
<path d="M1.05 11C0.746667 11 0.495833 10.9026 0.2975 10.7078C0.0991666 10.513 0 10.2667 0 9.96875V7.33906C0.431667 7.2474 0.790417 7.03255 1.07625 6.69453C1.36208 6.35651 1.505 5.95833 1.505 5.5C1.505 5.04167 1.36208 4.64062 1.07625 4.29688C0.790417 3.95312 0.431667 3.74115 0 3.66094V1.03125C0 0.733333 0.0991666 0.486979 0.2975 0.292188C0.495833 0.097396 0.746667 0 1.05 0H12.95C13.2533 0 13.5042 0.097396 13.7025 0.292188C13.9008 0.486979 14 0.733333 14 1.03125V3.66094C13.5683 3.74115 13.2096 3.95312 12.9237 4.29688C12.6379 4.64062 12.495 5.04167 12.495 5.5C12.495 5.95833 12.6379 6.35651 12.9237 6.69453C13.2096 7.03255 13.5683 7.2474 14 7.33906V9.96875C14 10.2667 13.9008 10.513 13.7025 10.7078C13.5042 10.9026 13.2533 11 12.95 11H1.05ZM1.05 9.96875H12.95V8.09531C12.5067 7.7974 12.145 7.425 11.865 6.97812C11.585 6.53125 11.445 6.03854 11.445 5.5C11.445 4.96146 11.585 4.46875 11.865 4.02188C12.145 3.575 12.5067 3.2026 12.95 2.90469V1.03125H1.05V2.90469C1.505 3.2026 1.86958 3.575 2.14375 4.02188C2.41792 4.46875 2.555 4.96146 2.555 5.5C2.555 6.03854 2.41792 6.53125 2.14375 6.97812C1.86958 7.425 1.505 7.7974 1.05 8.09531V9.96875ZM7 8.88594C7.14 8.88594 7.2625 8.83438 7.3675 8.73125C7.4725 8.62813 7.525 8.50781 7.525 8.37031C7.525 8.23281 7.4725 8.1125 7.3675 8.00937C7.2625 7.90625 7.14 7.85469 7 7.85469C6.86 7.85469 6.7375 7.90625 6.6325 8.00937C6.5275 8.1125 6.475 8.23281 6.475 8.37031C6.475 8.50781 6.5275 8.62813 6.6325 8.73125C6.7375 8.83438 6.86 8.88594 7 8.88594ZM7 6.01562C7.14 6.01562 7.2625 5.96406 7.3675 5.86094C7.4725 5.75781 7.525 5.6375 7.525 5.5C7.525 5.3625 7.4725 5.24219 7.3675 5.13906C7.2625 5.03594 7.14 4.98438 7 4.98438C6.86 4.98438 6.7375 5.03594 6.6325 5.13906C6.5275 5.24219 6.475 5.3625 6.475 5.5C6.475 5.6375 6.5275 5.75781 6.6325 5.86094C6.7375 5.96406 6.86 6.01562 7 6.01562ZM7 3.14531C7.14 3.14531 7.2625 3.09375 7.3675 2.99063C7.4725 2.8875 7.525 2.76719 7.525 2.62969C7.525 2.49219 7.4725 2.37188 7.3675 2.26875C7.2625 2.16563 7.14 2.11406 7 2.11406C6.86 2.11406 6.7375 2.16563 6.6325 2.26875C6.5275 2.37188 6.475 2.49219 6.475 2.62969C6.475 2.76719 6.5275 2.8875 6.6325 2.99063C6.7375 3.09375 6.86 3.14531 7 3.14531Z" fill="#494949"/>
</svg>
