<svg width="25" height="25" viewBox="0 0 25 25" fill="none" xmlns="http://www.w3.org/2000/svg">
<path d="M12.5003 24.5837C10.7885 24.5837 9.19755 24.2765 7.72741 23.6623C6.25727 23.0481 4.97845 22.1972 3.89095 21.1097C2.80345 20.0222 1.95258 18.7434 1.33835 17.2732C0.72411 15.8031 0.416992 14.2121 0.416992 12.5003C0.416992 10.8087 0.72411 9.22776 1.33835 7.75762C1.95258 6.28748 2.80345 5.00866 3.89095 3.92116C4.97845 2.83366 6.25727 1.97776 7.72741 1.35345C9.19755 0.729145 10.7885 0.416992 12.5003 0.416992C14.0107 0.416992 15.4205 0.658659 16.7295 1.14199C18.0385 1.62533 19.2166 2.28991 20.2639 3.13574L18.9649 4.4347C18.0788 3.72984 17.092 3.18609 16.0045 2.80345C14.917 2.42081 13.7489 2.22949 12.5003 2.22949C9.58019 2.22949 7.13835 3.21126 5.1748 5.1748C3.21126 7.13835 2.22949 9.58019 2.22949 12.5003C2.22949 15.4205 3.21126 17.8623 5.1748 19.8258C7.13835 21.7894 9.58019 22.7712 12.5003 22.7712C15.4205 22.7712 17.8623 21.7894 19.8258 19.8258C21.7894 17.8623 22.7712 15.4205 22.7712 12.5003C22.7712 11.8962 22.7258 11.3071 22.6352 10.7331C22.5446 10.1592 22.4087 9.60032 22.2274 9.05657L23.617 7.66699C23.9392 8.41213 24.1809 9.18748 24.342 9.99303C24.5031 10.7986 24.5837 11.6344 24.5837 12.5003C24.5837 14.2121 24.2715 15.8031 23.6472 17.2732C23.0229 18.7434 22.167 20.0222 21.0795 21.1097C19.992 22.1972 18.7132 23.0481 17.243 23.6623C15.7729 24.2765 14.192 24.5837 12.5003 24.5837ZM10.718 17.9982L5.73366 12.9837L7.09303 11.6243L10.718 15.2493L23.2243 2.74303L24.6139 4.10241L10.718 17.9982Z" fill="#02A440"/>
</svg>
