<svg width="77" height="56" viewBox="0 0 77 56" fill="none" xmlns="http://www.w3.org/2000/svg">
<path d="M18.375 56C13.3583 56 9.04167 54.1888 5.425 50.5665C1.80833 46.9442 0 42.6208 0 37.5962C0 33.0391 1.44375 29.0224 4.33125 25.5462C7.21875 22.0699 10.9375 19.9812 15.4875 19.2801C16.6542 13.6129 19.3958 8.98278 23.7125 5.38967C28.0292 1.79656 33.0167 0 38.675 0C45.2667 0 50.7938 2.3808 55.2563 7.14241C59.7188 11.904 61.95 17.615 61.95 24.2754V26.3787C66.15 26.2619 69.7083 27.6202 72.625 30.4538C75.5417 33.2874 77 36.8659 77 41.1894C77 45.2207 75.5417 48.6969 72.625 51.6182C69.7083 54.5394 66.2375 56 62.2125 56H41.125C39.725 56 38.5 55.4742 37.45 54.4225C36.4 53.3709 35.875 52.144 35.875 50.7418V28.1315L28.6125 35.4053L24.85 31.6369L38.5 17.9656L52.15 31.6369L48.3875 35.4053L41.125 28.1315V50.7418H62.2125C64.8375 50.7418 67.0833 49.807 68.95 47.9374C70.8167 46.0678 71.75 43.8185 71.75 41.1894C71.75 38.5602 70.8167 36.3109 68.95 34.4413C67.0833 32.5717 64.8375 31.6369 62.2125 31.6369H56.7V24.2754C56.7 19.0756 54.9354 14.6062 51.4062 10.867C47.8771 7.1278 43.5167 5.25822 38.325 5.25822C33.1333 5.25822 28.7583 7.1278 25.2 10.867C21.6417 14.6062 19.8625 19.0756 19.8625 24.2754H18.2C14.5833 24.2754 11.5208 25.5462 9.0125 28.0876C6.50417 30.6291 5.25 33.7694 5.25 37.5086C5.25 41.1309 6.53333 44.242 9.1 46.8419C11.6667 49.4418 14.7583 50.7418 18.375 50.7418H30.625V56H18.375Z" fill="#143358"/>
</svg>
