<svg width="14" height="14" viewBox="0 0 14 14" fill="none" xmlns="http://www.w3.org/2000/svg">
<path d="M7 6.76329C6.0375 6.76329 5.25 6.44767 4.6375 5.81643C4.025 5.18519 3.71875 4.37359 3.71875 3.38164C3.71875 2.38969 4.025 1.5781 4.6375 0.94686C5.25 0.31562 6.0375 0 7 0C7.9625 0 8.75 0.31562 9.3625 0.94686C9.975 1.5781 10.2812 2.38969 10.2812 3.38164C10.2812 4.37359 9.975 5.18519 9.3625 5.81643C8.75 6.44767 7.9625 6.76329 7 6.76329V6.76329ZM0 14V11.8808C0 11.3097 0.138542 10.8213 0.415625 10.4155C0.692708 10.0097 1.05 9.70156 1.4875 9.49114C2.46458 9.04026 3.40156 8.70209 4.29844 8.47665C5.19531 8.25121 6.09583 8.13849 7 8.13849C7.90417 8.13849 8.80104 8.25497 9.69062 8.48792C10.5802 8.72088 11.5135 9.05529 12.4906 9.49114C12.9427 9.70156 13.3073 10.0097 13.5844 10.4155C13.8615 10.8213 14 11.3097 14 11.8808V14H0ZM1.3125 12.6473H12.6875V11.8808C12.6875 11.6404 12.6182 11.4112 12.4797 11.1932C12.3411 10.9753 12.1698 10.8137 11.9656 10.7085C11.0323 10.2426 10.1792 9.92324 9.40625 9.7504C8.63333 9.57756 7.83125 9.49114 7 9.49114C6.16875 9.49114 5.35938 9.57756 4.57188 9.7504C3.78438 9.92324 2.93125 10.2426 2.0125 10.7085C1.80833 10.8137 1.64062 10.9753 1.50937 11.1932C1.37812 11.4112 1.3125 11.6404 1.3125 11.8808V12.6473ZM7 5.41063C7.56875 5.41063 8.03906 5.219 8.41094 4.83575C8.78281 4.4525 8.96875 3.96779 8.96875 3.38164C8.96875 2.79549 8.78281 2.31079 8.41094 1.92754C8.03906 1.54428 7.56875 1.35266 7 1.35266C6.43125 1.35266 5.96094 1.54428 5.58906 1.92754C5.21719 2.31079 5.03125 2.79549 5.03125 3.38164C5.03125 3.96779 5.21719 4.4525 5.58906 4.83575C5.96094 5.219 6.43125 5.41063 7 5.41063Z" fill="#494949"/>
</svg>
