<svg width="16" height="11" viewBox="0 0 16 11" fill="none" xmlns="http://www.w3.org/2000/svg">
<path d="M8 8.61667C8.86061 8.61667 9.59091 8.31417 10.1909 7.70917C10.7909 7.10417 11.0909 6.36778 11.0909 5.5C11.0909 4.63222 10.7909 3.89583 10.1909 3.29083C9.59091 2.68583 8.86061 2.38333 8 2.38333C7.13939 2.38333 6.40909 2.68583 5.80909 3.29083C5.20909 3.89583 4.90909 4.63222 4.90909 5.5C4.90909 6.36778 5.20909 7.10417 5.80909 7.70917C6.40909 8.31417 7.13939 8.61667 8 8.61667ZM8 7.55333C7.4303 7.55333 6.94848 7.35472 6.55455 6.9575C6.16061 6.56028 5.96364 6.07444 5.96364 5.5C5.96364 4.92556 6.16061 4.43972 6.55455 4.0425C6.94848 3.64528 7.4303 3.44667 8 3.44667C8.5697 3.44667 9.05152 3.64528 9.44545 4.0425C9.83939 4.43972 10.0364 4.92556 10.0364 5.5C10.0364 6.07444 9.83939 6.56028 9.44545 6.9575C9.05152 7.35472 8.5697 7.55333 8 7.55333ZM8 11C6.2303 11 4.6303 10.4928 3.2 9.47833C1.7697 8.46389 0.70303 7.13778 0 5.5C0.70303 3.86222 1.7697 2.53611 3.2 1.52167C4.6303 0.507222 6.2303 0 8 0C9.7697 0 11.3697 0.507222 12.8 1.52167C14.2303 2.53611 15.297 3.86222 16 5.5C15.297 7.13778 14.2303 8.46389 12.8 9.47833C11.3697 10.4928 9.7697 11 8 11ZM8 9.9C9.46667 9.9 10.8152 9.49972 12.0455 8.69917C13.2758 7.89861 14.2121 6.83222 14.8545 5.5C14.2121 4.16778 13.2758 3.10139 12.0455 2.30083C10.8152 1.50028 9.46667 1.1 8 1.1C6.53333 1.1 5.18485 1.50028 3.95455 2.30083C2.72424 3.10139 1.78182 4.16778 1.12727 5.5C1.78182 6.83222 2.72424 7.89861 3.95455 8.69917C5.18485 9.49972 6.53333 9.9 8 9.9Z" fill="white"/>
</svg>
