<svg width="21" height="24" viewBox="0 0 21 24" fill="none" xmlns="http://www.w3.org/2000/svg">
<path d="M0.284546 8.18471C-0.108975 12.6321 3.18809 16.5693 7.63553 16.9628C12.083 17.3564 16.0284 14.06 16.4219 9.61259C16.8154 5.16515 13.5125 1.20294 9.06483 0.809399C4.61716 0.415858 0.678096 3.73695 0.284546 8.18471ZM2.0436 8.34036C2.35298 4.84391 5.41198 2.26715 8.90865 2.57655C12.4053 2.88594 14.9722 5.96016 14.6628 9.45693C14.3534 12.9534 11.2877 15.5134 7.79134 15.204C4.29494 14.8946 1.73421 11.837 2.0436 8.34036ZM4.41247 8.55791C4.39524 8.79147 4.47131 9.02227 4.62401 9.19987C4.7769 9.3773 4.99381 9.48684 5.22735 9.50425L7.39611 9.69615L7.20421 11.8649C7.17674 12.1019 7.24603 12.3399 7.39664 12.5247C7.54724 12.7097 7.76626 12.8259 8.00382 12.8469C8.24139 12.868 8.47724 12.792 8.65796 12.6363C8.83869 12.4808 8.94887 12.2587 8.96326 12.0205L9.15515 9.85179L11.3241 10.0437C11.5609 10.0715 11.7991 10.0021 11.984 9.85147C12.169 9.70087 12.2852 9.48185 12.3063 9.24429C12.3273 9.00672 12.2513 8.7705 12.0956 8.58996C11.94 8.40922 11.7177 8.29903 11.4797 8.28466L9.31098 8.09276L9.50288 5.924C9.53052 5.6872 9.46087 5.44918 9.31027 5.26419C9.15966 5.07938 8.94081 4.96316 8.70326 4.94214C8.46569 4.92112 8.22966 4.99709 8.04895 5.15259C7.86821 5.30826 7.75821 5.53036 7.74366 5.76834L7.55176 7.9371L5.383 7.7452C5.14588 7.72115 4.90908 7.79379 4.72624 7.94675C4.54356 8.09991 4.43042 8.32028 4.41247 8.55791ZM13.5493 16.0938C13.5364 16.322 13.6123 16.5464 13.7612 16.7197L19.0914 23.0847C19.2355 23.2834 19.4557 23.4135 19.6995 23.4432C19.9432 23.4731 20.1881 23.4 20.376 23.2417C20.5636 23.0836 20.677 22.8544 20.6889 22.6092C20.7007 22.3639 20.61 22.125 20.4385 21.9493L15.1154 15.5928C14.965 15.4082 14.7466 15.2922 14.5096 15.2711C14.2724 15.2499 14.0368 15.3252 13.856 15.4801C13.6753 15.6349 13.5647 15.8563 13.5493 16.0938Z" fill="white"/>
</svg>
